<?xml version="1.0" encoding="utf-8"?>
<!-- Generator: Adobe Illustrator 16.0.0, SVG Export Plug-In . SVG Version: 6.00 Build 0)  -->
<!DOCTYPE svg PUBLIC "-//W3C//DTD SVG 1.1//EN" "http://www.w3.org/Graphics/SVG/1.1/DTD/svg11.dtd">
<svg version="1.1" id="Layer_1" xmlns="http://www.w3.org/2000/svg" xmlns:xlink="http://www.w3.org/1999/xlink" x="0px" y="0px"
	 width="207.11px" height="60px" viewBox="0 0 207.11 60" enable-background="new 0 0 207.11 60" xml:space="preserve">
<g>
	<path fill="#11594B" d="M1.822,11.968c-1.449,6.267,2.113,8.916,6.241,8.916c3.818,0,7.363-2.549,8.354-6.826
		c0.683-2.953-0.687-5.399-3.642-5.399c-2.852,0-4.448,1.832-4.836,3.516c-0.202,0.865,0.732,1.019,0.543,1.832
		c-0.118,0.511-0.466,0.917-1.076,0.917c-0.919,0-1.063-0.917-0.803-2.036c0.588-2.549,3.049-5.042,6.361-5.042
		c3.361,0,5.182,2.699,4.381,6.161c-1.048,4.533-5.201,7.741-9.582,7.741s-9.032-2.8-7.443-9.676
		C1.957,4.99,8.198,0.254,16.144,0.254c5.042,0,7.409,1.224,9.904,1.224C28.951,1.478,30.16,0,30.821,0
		c0.253,0,0.331,0.101,0.284,0.307c-0.045,0.202-0.297,0.406-0.795,1.019c-1.344,1.63-1.89,3.107-2.631,6.313l-2.652,11.463
		c3.799-0.562,8.828-1.836,12.434-3.107l1.826-7.896c0.601-2.597,1.469-4.585,4.933-6.569c0.53-0.308,0.921-0.46,1.175-0.46
		c0.255,0,0.333,0.104,0.288,0.305c-0.047,0.204-0.296,0.408-0.794,1.021c-1.347,1.63-1.892,3.107-2.633,6.313l-1.344,5.809
		c1.112-0.408,2.293-1.324,2.865-2.038c0.348-0.407,0.528-0.511,0.73-0.511s0.232,0.104,0.195,0.256
		c-0.034,0.152-0.38,0.764-0.528,0.969c-1.028,1.578-2.231,3.26-3.908,4.125l-2.051,8.862c-0.893,3.87-1.013,6.365,0.464,6.365
		c1.834,0,4.119-3.054,5.766-5.549c0.296-0.408,0.408-0.664,0.715-0.664c0.202,0,0.281,0.102,0.234,0.306
		c-0.058,0.255-0.38,0.766-0.604,1.071c-1.55,2.291-4.773,6.978-8.033,6.978c-2.8,0-2.839-3.363-1.637-8.559l1.778-7.689
		c-3.37,0.914-8.236,1.478-12.208,2.137l-0.919,3.975c-1.733,7.488-6.542,10.441-11.279,10.441c-3.056,0-5.076-1.834-4.183-5.706
		c1.378-5.957,7.248-8.199,13.473-9.573l2.934-12.684c0.223-0.966,0.47-2.038,1.151-3.004c-3.462,0-5.227-1.836-10.576-1.836
		C9.33,2.188,3.211,5.959,1.822,11.968z M20.52,25.159l0.93-4.021c-5.697,1.069-10.995,3.056-12.208,8.302
		c-0.719,3.105,1.168,4.637,3.614,4.637C16.319,34.076,19.104,31.273,20.52,25.159z"/>
	<path fill="#11594B" d="M60.534,26.332c0.204,0,0.281,0.102,0.234,0.306c-0.047,0.203-0.294,0.611-0.604,1.071
		c-0.683,0.966-1.585,1.782-3.315,1.782c-0.511,0-0.945-0.104-1.327-0.206c-1.55,3.618-4.063,5.45-6.66,5.45
		c-3.311,0-5.65-2.444-4.4-7.843c1.271-5.502,5.008-7.997,8.315-7.997c3.668,0,4.557,3.872,3.767,7.284
		c-0.189,0.816-0.417,1.578-0.67,2.24c0.374,0.152,0.653,0.255,1.164,0.255c1.478,0,2.102-0.509,2.781-1.679
		C60.13,26.536,60.278,26.332,60.534,26.332z M54.663,29.031c-1.164-0.253-1.939-0.865-1.62-2.241c0.245-1.07,1.048-1.68,1.812-1.68
		c0.356,0,0.679,0.152,0.835,0.356c0.337-2.343-0.142-5.551-2.893-5.551c-1.783,0-3.846,2.087-4.941,6.824
		c-1.095,4.735,0.013,6.773,1.795,6.773C51.587,33.514,53.396,32.088,54.663,29.031z"/>
	<path fill="#11594B" d="M58.837,34.533c-0.453,0.202-0.782,0.305-1.039,0.305c-0.202,0-0.279-0.103-0.232-0.305
		c0.047-0.206,0.322-0.511,0.614-1.121c0.318-0.715,1.237-4.686,1.72-6.774c1.531-6.621,2.768-11.969,4.565-17.315
		c2.39-7.031,4.834-9.016,7.587-9.016c1.881,0,2.252,2.137,1.641,4.787c-1.555,6.722-5.91,12.784-10.177,18.234l-0.788,3.412
		c1.667-2.803,5.15-7.948,8.818-7.948c2.19,0,3.896,2.092,2.955,6.166c-0.094,0.408-0.189,0.816-0.322,1.17
		c1.81-0.561,3.275-1.17,4.222-2.19c0.202-0.201,0.404-0.407,0.605-0.407c0.155,0,0.284,0.103,0.236,0.305
		c-0.037,0.154-0.187,0.358-0.387,0.561c-1.035,1.172-2.942,1.937-4.93,2.601c-1.92,5.45-6.146,7.639-9.05,7.639
		c-1.883,0-2.394-1.325-2.087-2.648c0.73-3.159,4.901-4.229,7.855-4.892c0.168-0.507,0.299-1.069,0.428-1.628
		c0.801-3.464-0.056-5.044-1.076-5.044c-2.24,0-5.957,5.504-7,7.591c-0.664,1.325-1.11,2.597-1.392,3.818
		C61.283,33.208,59.748,34.125,58.837,34.533z M70.39,27.962c-2.573,0.561-6.049,1.273-6.661,3.921
		c-0.247,1.07,0.387,1.631,1.303,1.631C67.019,33.514,69.055,31.986,70.39,27.962z M64.004,21.442
		c3.174-4.024,7.306-9.779,8.824-16.349c0.542-2.343,0.112-3.564-0.857-3.564c-1.63,0-2.517,1.63-4.784,8.351
		C65.954,13.445,64.829,17.878,64.004,21.442z"/>
	<path fill="#11594B" d="M99.119,15.892c1.062-4.585-0.94-6.722-3.74-6.722c-2.75,0-5.085,1.729-5.545,3.717
		c-0.249,1.069,0.883,1.016,0.589,2.292c-0.129,0.56-0.722,0.917-1.282,0.917c-0.866,0-1.084-0.814-0.861-1.785
		c0.801-3.462,3.954-5.856,7.366-5.856c3.412,0,6.52,1.986,5.295,7.284c-1.851,7.998-7.653,13.04-15.171,14.058
		c-1.018,3.514-4.1,4.737-6.547,4.737c-1.68,0-2.523-0.968-2.229-2.242c0.46-1.986,3.775-3.104,5.863-3.104
		c-0.279-1.886-1.578-3.976-2.446-5.504c-0.744,1.224-1.42,2.396-2.064,3.412c-0.245,0.408-0.556,0.867-0.812,0.867
		c-0.204,0-0.32-0.152-0.285-0.307c0.036-0.152,0.122-0.305,0.356-0.659c0.582-0.971,1.46-2.346,2.236-3.72
		c1.469-2.599,2.766-5.347,4.548-5.347c1.478,0,1.821,0.71,1.622,1.578c-0.284,1.224-1.278,1.782-1.991,1.782
		c-0.612,0-0.818-0.204-1.022-0.204c-0.103,0-0.217,0.052-0.24,0.152c-0.236,1.021,0.889,1.886,1.823,3.565
		c0.925,1.732,1.43,2.852,1.329,4.177C92.586,28.063,97.318,23.683,99.119,15.892z M79.234,33.614c1.83,0,3.152-1.526,3.388-2.547
		c0.082-0.354,0.125-0.763,0.146-1.067c-1.785,0-4.546,0.713-4.901,2.24C77.645,33.208,78.263,33.614,79.234,33.614z"/>
	<path fill="#11594B" d="M128.66,28.218c-0.76,0.202-1.548,0.305-2.413,0.305c-3.312,0-5.65-1.782-4.957-4.786
		c0.683-2.955,3.765-4.384,6.007-4.384c3.36,0,4.634,1.989,3.846,5.401c-0.142,0.612-0.335,1.222-0.629,1.834
		c2.055-1.173,3.301-3.26,3.631-4.688c0.163-0.71-1.159-0.71-0.912-1.782c0.176-0.765,0.818-1.118,1.433-1.118
		c0.76,0,1.09,0.56,0.785,1.885c-0.566,2.444-2.472,5.396-5.45,6.825c-1.935,3.513-5.893,6.978-11.087,6.978
		c-5.094,0-9.638-2.599-8.178-8.912c1.273-5.505,6.994-8.661,10.83-9.17c-3.498-0.509-7.141-2.599-5.998-7.538
		c1.426-6.163,7.044-7.997,10.711-7.997c3.668,0,5.588,1.834,4.811,5.195c-0.307,1.324-0.896,1.885-1.66,1.885
		c-0.609,0-1.089-0.356-0.91-1.121c0.247-1.069,1.368-1.069,1.533-1.782c0.446-1.935-1.535-3.058-4.134-3.058
		c-3.157,0-6.023,2.038-7.071,6.573c-0.836,3.614,0.64,5.603,2.658,6.569c1.104,0.511,2.839,0.713,4.216,0.713
		c0.253,0,0.371,0.152,0.324,0.356c-0.035,0.152-0.198,0.408-0.451,0.408c-1.705,0.101-2.783,0.354-4.048,0.762
		c-3.075,0.969-6.514,3.059-7.633,7.896c-1.118,4.838,2.253,7.437,6.227,7.437C123.704,32.903,126.779,31.067,128.66,28.218z
		 M129.263,27.148c0.381-0.765,0.67-1.581,0.87-2.446c0.566-2.443-0.095-4.433-2.539-4.433c-1.632,0-3.856,1.478-4.295,3.363
		c-0.527,2.294,1.003,3.82,3.855,3.82C127.919,27.453,128.604,27.351,129.263,27.148z"/>
	<path fill="#11594B" d="M162.01,26.484c1.349-0.765,2.231-1.935,2.513-3.156c0.117-0.509-0.537-0.765-0.37-1.478
		c0.116-0.509,0.643-1.021,1.253-1.021c0.663,0,0.891,0.561,0.76,1.124c-0.623,2.696-2.283,4.582-4.392,5.549l-1.86,8.049
		c-0.377,1.63-0.882,3.158-1.417,4.582c1.495,1.021,3.02,2.141,4.492,3.26c5.292-3.717,12.602-5.807,18.714-5.807
		c9.066,0,16.917,3.26,15.434,9.679c-1.024,4.433-5.28,8.964-11.648,8.964c-9.167,0-16.44-5.552-23.37-11.051
		c-2.405,2.035-4.094,4.481-4.739,7.284c-0.92,3.971,1.657,6.264,3.644,6.264c1.069,0,1.164-1.069,2.438-1.069
		c0.561,0,0.801,0.507,0.67,1.069c-0.199,0.865-1.11,1.273-2.076,1.273c-3.464,0-6.917-2.903-5.846-7.537
		c0.707-3.058,2.581-5.654,5.176-7.845l-3.582-2.803c-4.141,9.322-11.794,13.345-19.639,13.345c-6.673,0-11.84-3.87-10.048-11.611
		c1.399-6.061,7.408-10.239,13.215-10.239c5.35,0,10.089,2.19,14.702,5.146c0.217-0.715,0.444-1.478,0.633-2.292l1.826-7.896
		c-4.738,0-9.979-2.443-8.341-9.523c1.602-6.928,10.37-12.02,14.465-14.311c1.4-0.767,2.74-1.938,3.743-2.751
		c0.689-0.561,0.904-0.612,1.159-0.612c0.254,0,0.424,0.152,0.353,0.46c-0.034,0.152-0.145,0.408-0.356,0.659
		c-2.237,2.854-3.215,5.757-4.157,9.833L162.01,26.484z M155.464,40.033c-4.582-3.312-9.251-5.805-14.448-5.805
		c-4.939,0-9.977,3.717-11.261,9.269c-1.484,6.416,3.966,9.064,9.109,9.064C145.945,52.562,152.287,48.487,155.464,40.033z
		 M162.39,11.409c0.541-2.343,1.084-4.686,2.472-6.06c-4.035,2.239-11.253,7.026-12.691,13.241c-1.437,6.213,1.898,8.76,6.532,8.76
		L162.39,11.409z M163.726,43.954c6.609,4.891,13.359,9.627,21.457,9.627c5.959,0,9.363-3.26,10.13-6.569
		c1.189-5.145-5.036-8.404-13.847-8.404C175.608,38.607,168.704,40.493,163.726,43.954z"/>
	<path fill="#11594B" d="M167.761,21.646c0.317-1.377,1.855-2.294,2.764-2.699c0.455-0.204,0.783-0.308,1.039-0.308
		c0.204,0,0.281,0.104,0.234,0.308c-0.048,0.204-0.322,0.509-0.614,1.121c-0.369,0.713-1.289,4.686-1.771,6.772
		c-1.062,4.585-1.012,5.704,0.363,5.704c1.679,0,3.334-2.749,5.254-5.549c0.312-0.46,0.46-0.664,0.715-0.664
		c0.205,0,0.282,0.102,0.234,0.306c-0.047,0.203-0.294,0.611-0.604,1.071c-1.548,2.291-4.211,6.978-7.471,6.978
		c-2.649,0-2.534-2.7-1.78-5.96L167.761,21.646z M172.595,11.104c0.865,0,1.084,0.814,0.871,1.731
		c-0.317,1.376-1.522,2.392-2.385,2.392c-0.816,0-1.149-0.763-0.95-1.63C170.355,12.632,171.374,11.104,172.595,11.104z"/>
	<path fill="#11594B" d="M188.104,26.841c-1.062,4.585-0.505,5.704,0.87,5.704c1.683,0,3.337-2.749,5.257-5.549
		c0.311-0.46,0.459-0.664,0.715-0.664c0.204,0,0.281,0.102,0.234,0.306c-0.048,0.203-0.295,0.611-0.605,1.071
		c-1.547,2.291-4.21,6.978-7.47,6.978c-2.649,0-3.056-2.648-2.302-5.908c-1.877,2.393-4.933,5.908-7.732,5.908
		c-2.599,0-3.268-2.396-2.479-5.808c2.038-8.811,3.088-13.347,4.885-18.693c2.389-7.026,4.834-9.013,7.586-9.013
		c1.883,0,2.254,2.139,1.643,4.786c-1.555,6.722-5.805,12.326-10.096,17.876l-0.67,2.905c-1.026,4.431-0.374,5.805,1,5.805
		c1.835,0,4.631-3.054,6.347-5.856c1.531-6.62,2.581-11.156,4.378-16.503c2.389-7.026,4.832-9.013,7.583-9.013
		c1.886,0,2.257,2.139,1.646,4.786c-1.555,6.722-5.807,12.326-10.096,17.876L188.104,26.841z M179.097,21.954
		c3.232-4.28,7.222-9.426,8.742-15.995c0.541-2.343,0.112-3.564-0.856-3.564c-1.63,0-2.517,1.63-4.785,8.352
		C180.965,14.311,179.922,18.387,179.097,21.954z M189.285,21.954c3.23-4.28,7.223-9.426,8.742-15.995
		c0.542-2.343,0.112-3.564-0.856-3.564c-1.63,0-2.517,1.63-4.784,8.352C191.154,14.311,190.11,18.387,189.285,21.954z"/>
	<path fill="#11594B" d="M206.862,26.332c0.204,0,0.281,0.102,0.234,0.306c-0.048,0.203-0.295,0.611-0.604,1.071
		c-1.078,1.576-2.336,2.393-4.171,2.393c-0.721,2.902-3.977,4.432-6.477,4.432c-1.679,0-2.523-0.968-2.229-2.242
		c0.554-2.395,3.659-3.056,5.748-3.056c-0.079-0.765-0.371-1.478-0.732-2.343c-0.52-1.273-1.6-3.21-1.6-3.21
		c-0.742,1.224-1.419,2.396-2.063,3.412c-0.244,0.408-0.557,0.867-0.812,0.867c-0.204,0-0.32-0.152-0.285-0.307
		c0.036-0.152,0.122-0.305,0.355-0.659c0.582-0.971,1.461-2.346,2.236-3.72c1.469-2.599,2.766-5.347,4.548-5.347
		c1.478,0,1.821,0.71,1.621,1.578c-0.283,1.224-1.277,1.782-1.99,1.782c-0.612,0-0.818-0.204-1.022-0.204
		c-0.103,0-0.217,0.052-0.24,0.152c-0.236,1.021,0.889,1.886,1.823,3.565c0.925,1.732,1.573,2.445,1.256,4.481
		c1.795-0.05,2.708-0.915,3.688-2.289C206.458,26.536,206.608,26.332,206.862,26.332z M195.859,33.614
		c1.829,0,3.054-1.323,3.384-2.749c0.082-0.356,0.079-0.561,0.099-0.865c-1.945,0.05-4.424,0.408-4.849,2.24
		C194.269,33.208,194.888,33.614,195.859,33.614z"/>
</g>
</svg>
