<?xml version="1.0" encoding="utf-8"?>
<!-- Generator: Adobe Illustrator 16.0.0, SVG Export Plug-In . SVG Version: 6.00 Build 0)  -->
<!DOCTYPE svg PUBLIC "-//W3C//DTD SVG 1.1//EN" "http://www.w3.org/Graphics/SVG/1.1/DTD/svg11.dtd">
<svg version="1.1" id="Layer_1" xmlns="http://www.w3.org/2000/svg" xmlns:xlink="http://www.w3.org/1999/xlink" x="0px" y="0px"
	 width="80px" height="80px" viewBox="0 0 80 80" enable-background="new 0 0 80 80" xml:space="preserve">
<g id="kVvDXc_1_">
	<g>
		<g id="u8mKL7_1_">
			<g>
				<path fill="#C44427" d="M0,42.314c0-1.502,0-3.002,0-4.506c0.124-0.048,0.118-0.152,0.124-0.257
					c0.081-1.709,0.301-3.401,0.629-5.078c1.664-8.506,5.641-15.759,11.975-21.66C19.419,4.58,27.364,1.051,36.496,0.212
					C37.098,0.157,37.729,0.27,38.312,0c1.126,0,2.252,0,3.379,0c0.056,0.162,0.199,0.118,0.313,0.123
					c1.771,0.068,3.527,0.28,5.269,0.613c9.998,1.91,18.119,6.91,24.336,14.943c4.768,6.163,7.474,13.164,8.176,20.938
					c0.058,0.646-0.062,1.318,0.215,1.942c0,1.042,0,2.085,0,3.13c-0.215,0.096-0.111,0.289-0.12,0.436
					c-0.071,1.354-0.198,2.702-0.417,4.036c-1.48,9.058-5.521,16.778-12.232,23.042c-6.614,6.171-14.465,9.672-23.471,10.576
					c-0.605,0.062-1.236-0.04-1.818,0.22c-1.375,0-2.753,0-4.132,0c-0.052-0.168-0.196-0.118-0.309-0.126
					c-1.415-0.087-2.822-0.246-4.219-0.49c-8.993-1.566-16.604-5.701-22.76-12.425c-6.019-6.572-9.438-14.33-10.308-23.211
					C0.165,43.273,0.267,42.764,0,42.314z M43.421,77.361c0.312,0,0.631,0.037,0.938-0.006c3.078-0.424,6.078-1.172,8.992-2.248
					c0.703-0.26,1.371-0.604,2.067-0.869c0.299-0.115,0.392-0.588,0.604-0.54c0.635,0.139,1.018-0.312,1.479-0.529
					c2.125-1.004,4.016-2.387,5.885-3.797c1.116-0.839,2.102-1.826,3.121-2.772c0.789-0.729,1.465-1.582,2.184-2.39
					c0.824-0.922,1.449-1.991,2.164-2.995c0.162-0.072,0.246-0.223,0.324-0.365c0.545-1.021,1.188-1.986,1.77-2.982
					c0.938-1.604,1.66-3.288,2.32-5c1.03-2.67,1.69-5.446,1.953-8.309c0.094-1.012,0.235-2.022,0.262-3.039
					c0.067-2.582-0.049-5.151-0.471-7.712c-0.729-4.428-2.224-8.584-4.455-12.465c-2.084-3.621-4.703-6.812-7.865-9.559
					c-2.021-1.756-4.184-3.307-6.521-4.601c-4.961-2.749-10.282-4.326-15.937-4.654C38.95,2.34,35.667,2.542,32.423,3.22
					c-3.951,0.827-7.675,2.232-11.175,4.239c-4.072,2.34-7.586,5.34-10.549,8.982c-2.547,3.129-4.504,6.598-5.948,10.36
					c-1.182,3.071-1.918,6.255-2.222,9.522c-0.191,2.049-0.239,4.108-0.05,6.176c0.16,1.742,0.372,3.47,0.747,5.181
					c0.896,4.102,2.398,7.965,4.56,11.571c0.781,1.299,1.548,2.608,2.594,3.726c1.011,1.74,2.557,3.017,3.936,4.424
					c1.698,1.74,3.715,3.117,5.751,4.451c0.417,0.271,0.886,0.392,1.31,0.674c1.022,0.68,2.042,1.516,3.394,1.521
					c0.183,0.002,0.301,0.149,0.372,0.299c0.089,0.191,0.249,0.267,0.424,0.341c1.347,0.556,2.714,1.041,4.122,1.42
					c0.233,0.084,0.461,0.188,0.7,0.252c3.65,0.976,7.368,1.348,11.136,1.244C42.158,77.584,42.805,77.568,43.421,77.361z"/>
				<path fill="#F78F3D" d="M10.379,62.979c-1.046-1.115-1.813-2.427-2.594-3.726c-2.162-3.606-3.664-7.471-4.56-11.571
					c-0.375-1.711-0.587-3.438-0.747-5.181c-0.189-2.067-0.142-4.127,0.05-6.176c0.304-3.268,1.04-6.451,2.222-9.522
					c1.444-3.763,3.401-7.23,5.948-10.36C13.662,12.8,17.176,9.8,21.248,7.46c3.5-2.007,7.224-3.412,11.175-4.239
					c3.244-0.679,6.527-0.881,9.813-0.692c5.654,0.328,10.976,1.905,15.937,4.654c2.337,1.294,4.499,2.845,6.521,4.601
					c3.162,2.746,5.781,5.938,7.865,9.559c2.231,3.881,3.727,8.037,4.455,12.465c0.422,2.561,0.538,5.131,0.471,7.711
					c-0.025,1.018-0.168,2.028-0.262,3.041c-0.263,2.86-0.923,5.638-1.953,8.308c-0.66,1.712-1.383,3.396-2.32,5
					c-0.582,0.996-1.225,1.963-1.77,2.981c-0.078,0.145-0.162,0.293-0.324,0.366c-0.174-0.192-0.104-0.435-0.121-0.657
					c-0.133-1.482-0.19-2.979-0.416-4.449c-0.299-1.965-0.691-3.92-1.111-5.863c-0.316-1.465-0.762-2.9-1.605-4.161
					c-0.268-0.397-0.512-0.892-1.115-0.894c-0.364-1.045-0.791-1.357-1.887-1.377c0.037-0.262,0.639-0.396,0.237-0.726
					c-0.274-0.225-0.134-0.307,0.003-0.453c0.467-0.497,0.887-1.062,1.42-1.47c0.43-0.33-0.223-0.87,0.325-1.088
					c-0.545-0.165-0.053-0.356,0.017-0.482c0.114-0.212,0.285-0.413,0.477-0.565c0.352-0.275,0.288-0.467-0.109-0.635
					c0.215-0.186,0.403-0.346,0.59-0.505c0.092-0.092,0.256-0.118,0.26-0.299c-0.185-0.034-0.271,0.081-0.359,0.193
					c-0.154,0.068-0.307,0.134-0.479,0.213c-0.02-0.362,0.263-0.472,0.377-0.682c0.047-0.084,0.177-0.23,0.084-0.257
					c-0.64-0.173-0.131-0.495-0.062-0.679c0.204-0.542,0.631-0.956,0.838-1.535c0.342-0.956,1.094-1.667,1.846-2.337
					c1.711-1.525,2.633-3.454,2.651-5.726c0.031-4.203-1.557-7.798-4.483-10.77c-1.344-1.365-3.053-1.96-5.006-1.764
					c-1.186,0.12-2.244,0.568-3.269,1.132c-0.134,0.071-0.406,0.238-0.417,0.081c-0.042-0.81-0.872-0.81-1.264-1.258
					c-0.17-0.193-0.375-0.534-0.707-0.595c-0.557-0.102-0.814-0.943-1.543-0.618c-0.02,0.008-0.129-0.146-0.17-0.238
					c-0.068-0.142-0.176-0.194-0.32-0.252c-0.613-0.246-1.311-0.335-1.776-0.88c-0.028-0.034-0.131-0.063-0.139-0.05
					c-0.294,0.414-0.38,0.042-0.49-0.139c-0.058-0.092-0.103-0.226-0.207-0.168c-0.657,0.351-0.972-0.768-1.627-0.367
					c-0.718-0.561-1.733-0.243-2.438-0.817c-0.2-0.168-0.41,0.21-0.547-0.053c-0.396-0.768-1.25,0.074-1.695-0.492
					c-0.321,0.419-0.178-0.275-0.416-0.168c-0.436,0.194-0.856-0.131-1.273-0.107c-0.561,0.034-1.04-0.744-1.633-0.139
					c-0.034-0.047-0.059-0.112-0.1-0.137c-0.233-0.123-1.482-0.217-1.776-0.248c-0.517-0.056-1.032,0.094-1.554-0.103
					c-0.356-0.131-0.833-0.472-1.14,0.157c-0.05,0.103-0.126-0.084-0.146-0.081c-0.446,0.021-0.931-0.28-1.311-0.045
					c-0.319,0.199-0.576,0.131-0.838,0.063c-0.49-0.132-0.915,0.018-1.336,0.212c-0.073,0.034-0.076,0.128-0.22,0.092
					c-1.485-0.394-2.707,0.61-4.085,0.828c-0.445,0.067-0.506,0.026-0.5-0.352C30.023,9.604,30,9.818,29.932,9.976
					c-0.094,0.22-0.414,0.372-0.445,0.341c-0.293-0.289-0.802-0.142-1.043-0.593c-0.175-0.33-0.503-0.603-0.812-0.833
					c-2.075-1.564-4.333-1.75-6.652-0.684c-2.885,1.323-5.083,3.458-6.732,6.145c-1.918,3.128-2.06,6.322-0.251,9.585
					c0.404,0.729,1.289,1.26,1.022,2.313c-0.073,0.286,0.495,0.543,0.134,0.915c-0.011-0.053-0.026-0.118-0.095-0.076
					c-0.018,0.013,0.008,0.097,0.013,0.149c0.024,0.19,0.217,0.4,0,0.571c-0.244,0.193-0.157,0.38-0.071,0.603
					c0.152,0.377-0.123,0.812,0.139,1.184c-0.055,0-0.11-0.002-0.163-0.005c-0.079-0.058-0.165-0.186-0.249-0.104
					c-0.052,0.053,0.055,0.165,0.142,0.215c0.065,0.356,0.291,0.729-0.05,1.093c0.406,0.112,0.503,0.427,0.073,0.663
					c-0.442,0.243-0.296,0.442-0.125,0.733c0.236,0.403,0.076,0.822,0.008,1.236c-0.032-0.1-0.076-0.186-0.188-0.204
					c-0.011,0-0.047,0.07-0.04,0.076c0.063,0.062,0.071,0.259,0.236,0.112c0.133,0.613,0.367,1.192,0.624,1.767
					c0.102,0.223,0.391,0.45,0.126,0.746c-0.005-0.078-0.047-0.12-0.126-0.123c-0.01-0.062-0.031-0.115-0.107-0.084
					c-0.005,0.003,0.023,0.09,0.037,0.137c0.037,0.05,0.073,0.1,0.107,0.149c0.155,0.243,0.461,0.679,0.44,0.697
					c-0.443,0.349,0.073,0.45,0.163,0.615c0.162,0.31,0.398,0.574,0.595,0.862c0.039,0.061,0.055,0.196-0.045,0.199
					c-0.068,0.002-0.139-0.121-0.207-0.188l-0.04-0.009c-0.121-0.131-0.207-0.38-0.438-0.12c-0.262,0.042-0.479-0.11-0.718-0.173
					c-1.266-0.346-2.613,0.194-3.286,1.331c-0.668,1.127-0.495,2.584,0.419,3.51c1.315,1.336,3.228,1.17,4.564-0.396
					c-0.005,0.943-0.212,1.854-0.435,2.762c-0.238-0.021-0.469-0.111-0.608-0.287c-0.37-0.468-0.734-0.322-1.142-0.074
					c-0.663,0.405-1.253,0.901-1.761,1.485c-0.508,0.587-0.558,1.113-0.184,1.614c-0.202,0.979-0.642,1.884-0.823,2.868
					c-0.052,0.292,0.105,0.606-0.062,0.853c-0.37,0.542-0.37,1.174-0.475,1.776c-0.123,0.715-0.083,1.478-0.204,2.167
					c-0.121,0.707-0.333,1.438-0.412,2.158C10.597,59.423,10.507,61.202,10.379,62.979z M67.637,36.964
					c0.043-0.041,0.084-0.083,0.127-0.125c0.038-0.045,0.077-0.089,0.119-0.131c0.059-0.021,0.113-0.063,0.062-0.118
					c-0.053-0.055-0.096,0.002-0.122,0.055c-0.054,0.034-0.105,0.065-0.157,0.1c-0.05,0.039-0.104,0.081-0.154,0.123
					c-0.058,0.047-0.14,0.115-0.082,0.179C67.533,37.155,67.585,37.038,67.637,36.964z M11.461,27.154
					c-1.601-0.011-2.94,1.252-2.951,2.777c-0.013,1.766,1.216,3.081,2.903,3.104c1.593,0.024,2.948-1.314,2.972-2.929
					C14.406,28.485,13.096,27.162,11.461,27.154z M8.259,36.288c-0.005,0.904,0.66,1.611,1.538,1.633
					c0.891,0.021,1.661-0.707,1.677-1.585c0.019-0.862-0.765-1.654-1.629-1.644C8.959,34.703,8.267,35.4,8.259,36.288z"/>
				<path fill="#00908D" d="M64.598,43.812c1.096,0.02,1.522,0.332,1.887,1.377c-0.036,0.072-0.109,0.146-0.106,0.218
					c0.028,1.462-0.677,2.665-1.465,3.78c-1.188,1.686-2.052,3.473-2.188,5.545c-0.1,1.484-1.056,2.644-1.512,3.992
					c-0.175,0.515-0.729,1.062-1.095,1.6c-1.415,2.083-2.931,4.085-4.634,5.945c-1.825,1.99-4.045,3.506-6.213,5.08
					c-1.733,1.258-3.42,2.57-4.879,4.146c-0.484,0.521-1.074,1.023-0.972,1.865c-0.616,0.207-1.264,0.223-1.897,0.24
					c-3.768,0.104-7.485-0.27-11.135-1.244c-0.238-0.062-0.466-0.168-0.7-0.252c-0.92-0.838-1.554-1.89-2.23-2.914
					c-0.547-0.827-0.844-1.875-1.874-2.32c-0.047-0.021-0.081-0.098-0.099-0.154c-0.26-0.836-0.886-1.48-1.19-2.291
					c-0.254-0.681-0.799-1.201-1.04-1.892c-0.115-0.33-0.155-0.673-0.322-1.001c-0.364-0.715-0.941-1.252-1.413-1.876
					c-0.885-1.177-2.033-2.142-2.754-3.453c-0.16-0.286-0.328-0.577-0.692-0.683c-0.154-0.045-0.285-0.193-0.235-0.391
					c0.05-0.191-0.003-0.365-0.155-0.436c-0.563-0.256-0.634-0.791-0.818-1.288c-0.333-0.896-0.629-1.804-0.893-2.726
					c-0.163-0.565,0.06-1.279-0.579-1.681c0.354-0.498,0.026-0.998-0.005-1.493c-0.105-1.771-0.679-3.221-2.628-3.679
					c-0.375-0.501-0.325-1.027,0.184-1.614c0.508-0.584,1.098-1.08,1.761-1.486c0.408-0.248,0.772-0.393,1.142,0.074
					c0.139,0.176,0.37,0.268,0.608,0.288c0.097,0.291,0.472,0.313,0.571,0.603c-0.267,0.367-0.689,0.521-1.041,0.775
					c-0.508,0.369-0.82,0.817-0.681,1.483c0.33,1.593,0.912,3.106,1.491,4.616c0.22,0.565,0.597,1.101,0.998,1.566
					c1.378,1.619,3.171,2.338,5.288,2.332c0.749,0,1.491-0.068,2.232-0.119c0.663,0.664,1.344,1.31,2.093,1.877
					c1.012,0.784,2.018,1.58,3.155,2.174c1.905,0.986,3.718,2.105,5.319,3.545c1.192,1.072,2.083,2.437,3.356,3.436
					c0.302,0.235,0.433,0.241,0.692-0.034c0.859-0.903,1.703-1.825,2.637-2.645c1.199-1.045,2.473-1.999,3.723-2.981
					c1.47-1.158,2.949-2.309,4.425-3.461c0.834-0.543,1.63-1.133,2.38-1.785c1.229-0.854,2.391-1.795,3.518-2.771
					c1.646-1.424,3.242-2.9,4.58-4.633c0.861-0.905,1.322-2.038,1.779-3.176C63.309,45.048,63.723,44.249,64.598,43.812z"/>
				<path fill="#11594B" d="M43.421,77.361c-0.103-0.842,0.486-1.344,0.972-1.865c1.459-1.575,3.146-2.889,4.879-4.146
					c2.168-1.574,4.388-3.09,6.213-5.08c1.703-1.86,3.219-3.862,4.634-5.945c0.366-0.537,0.92-1.085,1.095-1.6
					c0.456-1.35,1.412-2.508,1.512-3.992c0.137-2.072,1.002-3.859,2.188-5.545c0.788-1.115,1.493-2.318,1.465-3.78
					c-0.003-0.071,0.07-0.146,0.106-0.218c0.604,0.002,0.85,0.494,1.117,0.894c0.844,1.261,1.289,2.696,1.604,4.161
					c0.42,1.943,0.812,3.898,1.11,5.863c0.227,1.471,0.283,2.967,0.418,4.449c0.018,0.224-0.053,0.465,0.119,0.657
					c-0.715,1.004-1.338,2.073-2.164,2.995c-0.719,0.809-1.394,1.659-2.183,2.391c-1.021,0.945-2.005,1.934-3.12,2.771
					c-1.871,1.41-3.761,2.793-5.886,3.797c-0.461,0.218-0.844,0.668-1.479,0.529c-0.213-0.049-0.306,0.425-0.604,0.539
					c-0.697,0.266-1.365,0.611-2.066,0.871c-2.914,1.076-5.914,1.822-8.994,2.248C44.052,77.398,43.732,77.361,43.421,77.361z"/>
				<path fill="#11594B" d="M12.761,47.831c1.95,0.458,2.523,1.907,2.628,3.679c0.031,0.495,0.359,0.995,0.005,1.493
					c0.639,0.401,0.417,1.114,0.579,1.681c0.264,0.922,0.561,1.828,0.893,2.726c0.184,0.497,0.254,1.032,0.818,1.289
					c0.152,0.067,0.205,0.243,0.155,0.435c-0.05,0.196,0.081,0.346,0.235,0.391c0.364,0.104,0.532,0.396,0.692,0.683
					c0.721,1.312,1.869,2.276,2.754,3.453c0.472,0.624,1.048,1.161,1.413,1.876c0.167,0.328,0.207,0.671,0.322,1.001
					c0.241,0.688,0.786,1.211,1.04,1.892c0.304,0.812,0.93,1.455,1.19,2.291c0.018,0.057,0.052,0.133,0.099,0.154
					c1.03,0.445,1.326,1.493,1.874,2.32c0.676,1.024,1.31,2.076,2.23,2.914c-1.407-0.379-2.775-0.864-4.122-1.42
					c-0.176-0.073-0.335-0.148-0.424-0.34c-0.071-0.149-0.189-0.298-0.372-0.3c-1.352-0.005-2.372-0.841-3.394-1.521
					c-0.424-0.282-0.894-0.403-1.31-0.674c-2.036-1.334-4.054-2.711-5.751-4.451c-1.378-1.407-2.924-2.684-3.936-4.424
					c0.128-1.775,0.217-3.556,0.406-5.324c0.079-0.721,0.291-1.451,0.412-2.158c0.121-0.689,0.081-1.452,0.204-2.167
					c0.105-0.603,0.105-1.234,0.475-1.776c0.167-0.246,0.01-0.561,0.062-0.853C12.119,49.715,12.559,48.809,12.761,47.831z"/>
				<path fill="#FFFFFF" d="M64.598,43.812c-0.875,0.437-1.289,1.234-1.627,2.082c-0.455,1.137-0.916,2.27-1.779,3.176
					c-0.625-0.207-1.031-0.775-1.676-0.976c-0.326-0.103-0.449-0.05-0.545,0.232c-0.033,0.006-0.068,0.014-0.104,0.019
					c0.008,0.016,0.016,0.031,0.023,0.045c0.022-0.022,0.049-0.045,0.075-0.067c0.078,0.014,0.193-0.005,0.233,0.042
					c0.107,0.129-0.037,0.181-0.118,0.218c-0.896,0.419-1.672,1.132-2.746,1.121c-0.121,0-0.244,0.04-0.362,0.073
					c-0.043,0.014-0.07,0.07-0.106,0.109c0.146,0.139,0.394-0.042,0.485,0.174c-0.451,0.514-1.104,0.575-1.656,0.844
					c-1.42,0.688-2.861,1.35-4.231,2.128c-0.517,0.293-1.194,0.39-1.521,0.989c-0.807,0.185-1.613,0.373-2.455,0.326
					c-0.264-0.018-0.553,0.018-0.793,0.116c-0.527,0.224-0.521,0.247-1.055,0.261c-0.188,0.002-0.375,0.004-0.561,0.008
					c-0.135-0.023-0.221,0.025-0.244,0.164c-0.312-0.136-0.605,0.076-0.912,0.047c-0.265,0.229-0.794-0.219-0.922,0.359
					c-0.098-0.318-0.43-0.095-0.577-0.234c-0.39-0.367-0.841,0.307-1.21-0.099c-0.023,0.482-0.477-0.034-0.584,0.253
					c-0.293-0.717-0.466-0.14-0.626,0.096c-0.21-0.153-0.168-0.439-0.404-0.491c-0.196,0.106-0.115,0.343-0.251,0.478
					c-0.254-0.613-0.618-0.611-1.129,0.019c0-0.163,0-0.31,0-0.451c0.008-0.031,0.019-0.062,0.026-0.095
					c-0.029,0.011-0.058,0.021-0.089,0.031c-0.34-0.201-0.54,0.115-0.799,0.217c-0.107-0.141,0.076-0.365-0.134-0.483
					c-0.238,0.047-0.27,0.296-0.424,0.422c-0.042-0.159,0.008-0.532-0.139-0.448c-0.511,0.295-1.011-0.203-1.486,0.068l0.008,0.008
					c0.081-0.128,0.162-0.254,0.241-0.382l0.024-0.024l-0.016,0.031c-0.421,0.037-0.841,0.074-1.26,0.113l0.008,0.008
					c-0.133-0.181-0.346-0.068-0.508-0.134l0.008,0.011c-0.327-0.279-0.712-0.076-1.069-0.131c-0.086-0.014-0.291,0.016-0.249-0.064
					c0.293-0.535-0.223-0.258-0.341-0.332c-0.246-0.15-0.586-0.088-0.843-0.309c0.417-0.148,0.796,0.191,1.205,0.014
					c-0.5-0.238-1.069-0.263-1.459-0.674c0.396-0.771,0.852-1.52,1.171-2.322c0.498-1.248,1.166-2.314,2.455-2.873
					c2.534,0.006,4.486-1.105,5.975-3.104c0.364-0.493,0.406-0.487,0.689,0.06c0.823,1.588,1.983,2.814,3.676,3.49
					c0.769,0.307,0.867,0.346,1.258,0.18c-2.549-0.725-4.071-2.403-4.834-4.824c1.426,0.391,2.484-0.079,3.202-1.354
					c0.063-0.106,0.139-0.21,0.207-0.312c0.549-0.828,0.484-1.521-0.218-2.238c-0.612-0.629-1.319-1.147-2.063-1.604
					c-0.685-0.417-1.459-0.43-2.156-0.095c-0.82,0.396-1.575,0.925-2.366,1.384c-0.548,0.317-0.687,0.802-0.603,1.384
					c0.257,1.755,1.509,2.838,3.28,2.84c-1.26,2.558-3.307,3.907-6.163,4.021c-0.346-0.078-0.584,0.045-0.906,0.24
					c-1.012,0.613-1.708,1.499-2.411,2.405c-0.532,0.685-1.012,1.431-1.821,1.845c-1.158-0.896-2.46-1.556-3.729-2.27
					c-0.495-1.766-1.449-3.385-1.688-5.237c-0.037-0.285-0.247-0.392-0.54-0.399c-0.703-0.021-1.355,0.178-1.992,0.424
					c-1.111,0.436-2.214,0.894-3.32,1.342c-0.1-0.288-0.474-0.312-0.571-0.604c0.223-0.908,0.43-1.818,0.435-2.762
					c0.348-0.221,0.288-0.561,0.259-0.891c0.011-0.379,0.836-0.734,0.029-1.13c0.113-0.517-0.073-0.917-0.472-1.242
					c-0.278-0.228-0.409-0.516-0.319-0.88c0.068,0.067,0.139,0.19,0.207,0.188c0.1-0.003,0.084-0.139,0.045-0.199
					c-0.197-0.288-0.433-0.553-0.595-0.862c-0.089-0.165-0.605-0.267-0.163-0.615c0.021-0.019-0.286-0.454-0.44-0.697
					c0.032-0.023,0.063-0.05,0.089-0.079c0.265-0.296-0.024-0.523-0.126-0.746c-0.257-0.574-0.49-1.153-0.624-1.767l-0.008,0.016
					c0.068-0.414,0.228-0.833-0.008-1.236c-0.17-0.291-0.317-0.49,0.125-0.733c0.43-0.236,0.333-0.551-0.073-0.663
					c0.341-0.364,0.115-0.736,0.05-1.093c0.034-0.037,0.071-0.073,0.107-0.11c0.053,0.003,0.107,0.005,0.163,0.005
					c-0.262-0.372,0.013-0.807-0.139-1.184c-0.086-0.223-0.173-0.409,0.071-0.603c0.217-0.171,0.024-0.381,0-0.571
					c0.029-0.021,0.058-0.048,0.082-0.073c0.361-0.372-0.207-0.629-0.134-0.915c0.267-1.054-0.618-1.585-1.022-2.313
					c-1.808-3.263-1.667-6.457,0.251-9.585c1.648-2.687,3.847-4.821,6.732-6.145c2.319-1.066,4.577-0.881,6.652,0.684
					c0.31,0.23,0.637,0.503,0.812,0.833c0.241,0.451,0.75,0.304,1.043,0.593c0.031,0.031,0.351-0.121,0.445-0.341
					C30,9.818,30.023,9.604,30.283,9.509c-0.005,0.378,0.055,0.419,0.5,0.352c1.378-0.218,2.6-1.222,4.085-0.828
					c0.145,0.036,0.147-0.058,0.22-0.092c0.422-0.194,0.847-0.344,1.336-0.212c0.262,0.067,0.519,0.136,0.838-0.063
					c0.38-0.235,0.865,0.065,1.311,0.045c0.021-0.003,0.097,0.184,0.146,0.081c0.307-0.629,0.783-0.288,1.14-0.157
					c0.521,0.196,1.038,0.047,1.554,0.103c0.294,0.031,1.543,0.125,1.776,0.248c0.041,0.024,0.064,0.09,0.1,0.137
					c0.593-0.605,1.072,0.173,1.633,0.139c0.417-0.023,0.84,0.302,1.273,0.107c0.238-0.107,0.095,0.587,0.416,0.168
					c0.445,0.566,1.3-0.275,1.695,0.492c0.137,0.263,0.346-0.115,0.547,0.053c0.703,0.574,1.721,0.257,2.438,0.817
					c0.655-0.4,0.97,0.718,1.627,0.367c0.104-0.058,0.149,0.076,0.207,0.168c0.11,0.181,0.196,0.553,0.49,0.139
					c0.008-0.014,0.108,0.016,0.139,0.05c0.468,0.545,1.163,0.634,1.776,0.88c0.145,0.058,0.252,0.11,0.32,0.252
					c0.041,0.092,0.15,0.246,0.17,0.238c0.729-0.325,0.986,0.517,1.543,0.618c0.332,0.061,0.537,0.401,0.707,0.595
					c0.392,0.448,1.222,0.448,1.264,1.258c0.011,0.157,0.283-0.01,0.417-0.081c1.024-0.563,2.083-1.012,3.269-1.132
					c1.953-0.196,3.662,0.398,5.006,1.764c2.928,2.972,4.516,6.566,4.483,10.77c-0.019,2.271-0.94,4.2-2.651,5.726
					c-0.752,0.67-1.504,1.381-1.846,2.337c-0.207,0.579-0.634,0.993-0.838,1.535c-0.068,0.184-0.576,0.506,0.062,0.679
					c0.092,0.026-0.037,0.173-0.084,0.257c-0.115,0.21-0.396,0.319-0.377,0.682c0.172-0.079,0.324-0.145,0.479-0.213
					c0.033,0.034,0.064,0.071,0.1,0.105c-0.186,0.159-0.373,0.319-0.589,0.505c0.397,0.168,0.461,0.359,0.109,0.635
					c-0.191,0.152-0.361,0.354-0.478,0.565c-0.068,0.126-0.561,0.317-0.016,0.482c-0.548,0.218,0.104,0.758-0.325,1.088
					c-0.534,0.408-0.954,0.973-1.42,1.471c-0.137,0.146-0.278,0.229-0.003,0.452C65.238,43.416,64.635,43.552,64.598,43.812z
					 M57.211,35.927c0.076-0.146,0.154-0.294,0.23-0.44c0.953-1.797,0.996-3.59,0.025-5.408c-0.561-1.051-1.476-1.714-2.408-2.371
					c-0.578-1.315-2.623-2.644-4.504-1.362c-2.289,1.559-4.854,1.808-7.513,1.697c-1.804-0.075-3.563-0.458-5.348-0.631
					c-1.62-0.163-2.736-1.082-3.745-2.19c-1.179-1.3-2.495-1.835-4.067-0.778c-1.257,0.846-2.295,1.912-3.144,3.165
					c-1.297,1.915-1.908,4.098-2.434,6.312c-0.176,0.938,0.076,1.769,0.799,2.368c0.98,0.812,1.3,1.824,1.206,3.05
					c-0.058,0.727-0.055,1.46,0.233,2.154c0.194,0.461,0.886,0.911,1.3,0.797c0.548-0.154,0.694-0.603,0.697-1.121
					c0-0.147,0.011-0.294,0.003-0.438c-0.152-2.273,0.209-4.438,1.373-6.433c0.556-0.862,1.192-1.666,2.036-2.259
					c4.117-2.896,8.524-3.188,13.15-1.407c0.781,0.302,1.426,0.844,2.181,1.188c-0.058,0.744-0.067,1.483,0.114,2.217
					c0.476,1.892,1.701,3.112,3.435,3.894c0.388,1.787,0.349,3.571,0.032,5.372c-0.102,0.581-0.102,1.205,0.054,1.801
					c0.118,0.455,0.356,0.567,0.774,0.302c0.935-0.604,1.438-1.505,1.48-2.554c0.09-2.119,0.771-3.811,2.696-4.938
					C56.557,37.51,57.208,36.886,57.211,35.927z M70.716,28.805c0.05-0.136,0.118-0.267,0.152-0.408
					c0.483-1.9,0.28-3.758-0.386-5.579c-0.771-2.117-1.765-4.101-3.512-5.604c-1.392-1.195-2.969-1.63-4.764-1.099
					c-0.104,0.019-0.204,0.037-0.307,0.053c-0.842,0.134-1.459,0.553-1.762,1.381c-0.029,0.079-0.181,0.165,0.012,0.218
					c0.307,0.084,0.154,0.215,0.047,0.349c-0.09,0.115-0.312,0.23,0.044,0.304c0.243,0.047,0.255,0.221,0.137,0.427
					c-0.069,0.126-0.19,0.317,0.136,0.302c0.152-0.008,0.163,0.11,0.191,0.252c0.146,0.694,0.316,1.396,0.852,1.912
					c0.23,0.221,0.778,0.314,0.045,0.663c0.246,0.134,0.689,0.137,0.414,0.5c-0.406,0.546,0.076,0.347,0.283,0.389
					c0.021,0.021,0.039,0.042,0.061,0.06c0,0.04-0.006,0.076-0.008,0.115c-0.009,0.014-0.014,0.029-0.019,0.045
					c0.002-0.019,0.005-0.034,0.008-0.053c0.937,0.241-0.397,0.54,0.009,0.761c0.123,0.23,0.481-0.364,0.439,0.141
					c-0.042,0.524-0.034,0.985,0.411,1.34c-0.015,0.013-0.029,0.028-0.04,0.044c0,0.003,0.021,0.021,0.031,0.031
					c0.014-0.016,0.029-0.028,0.043-0.042c0.078,0.019,0.199,0.042,0.133,0.147c-0.201,0.33-0.133,0.521,0.182,0.772
					c0.268,0.213,0.604,0.635,0.551,0.886c-0.082,0.38,0.145,0.713,0.002,1.09c-0.07,0.189-0.041,0.637,0.44,0.605
					c0.217-0.013,0.406,0.039,0.19,0.312c-0.064,0.084-0.146,0.239-0.033,0.249c0.439,0.045-0.012,0.425,0.217,0.52
					c0.218,0.092,0.439,0.165,0.736,0.272c-0.4,0.188-0.514,0.377-0.139,0.581c0.204,0.11,0.387,0.236,0.178,0.453
					c-0.271,0.281-0.055,0.307,0.146,0.367c0.372,0.113,0.523,0.414,0.643,0.744c-0.006,0.014-0.008,0.026-0.014,0.039
					c0-0.016,0.002-0.031,0.006-0.047c0.383,0.139,0.69-0.226,1.059-0.17c0.07,0.173-0.115,0.333,0.042,0.523
					C69.021,31.689,70.126,30.464,70.716,28.805z M21.764,20.179c0.026,0.019,0.065,0.061,0.076,0.053
					c0.065-0.04,0.029-0.081-0.008-0.121c-0.032-0.136-0.063-0.272-0.094-0.411c0.026-0.023,0.05-0.05,0.076-0.076
					c0.178,0.073,0.296,0.372,0.508,0.233c0.17-0.11-0.021-0.333-0.018-0.506c0.005-0.193-0.123-0.503,0.296-0.4
					c0.053,0.065,0.021,0.238,0.142,0.181c0.081-0.037,0.019-0.173-0.063-0.241c-0.28-0.38,0.094-0.584,0.226-0.854l0.008-0.008
					c0.149,0.056,0.296,0.113,0.438,0.165c0.178-0.154,0.068-0.377,0.16-0.584c0.233-0.511,0.857-0.579,1.033-1.085l-0.008,0.008
					c0.335,0.058,0.236-0.584,0.438-0.398c0.542,0.504,0.369-0.151,0.414-0.251c0.115-0.247,0.115-0.687,0.438-0.618
					c0.385,0.083,0.403-0.226,0.574-0.347c0.142-0.104,0.165-0.358,0.398-0.398c0.013,0.008,0.029,0.017,0.044,0.024
					c-0.019-0.006-0.037-0.011-0.052-0.017c-0.205-0.57,0.322-0.712,0.595-1.001c0.317-0.338,0.82-0.416,1.119-0.783
					c0.322-0.391,0.506-0.746,0.102-1.244c-0.414-0.514-0.917-0.899-1.425-1.295c-0.052-0.154-0.197-0.204-0.319-0.28
					c-1.716-1.037-3.478-1.014-5.251-0.188c-2.471,1.15-4.326,3.008-5.785,5.259c-0.737,1.138-1.263,2.393-1.284,3.794
					c-0.178,2.238,0.673,4.119,2.018,5.83c0.113,0.142,0.223,0.383,0.409,0.333c0.244-0.062,0.155-0.346,0.191-0.54l-0.008,0.009
					c0.291-0.389,0.579-0.216,0.865,0.01c0.031,0.037,0.06,0.071,0.091,0.107c-0.01-0.052-0.023-0.104-0.034-0.159
					c0.023-0.456,0.375-0.859,0.212-1.345l-0.005,0.005c0.05-0.062,0.097-0.178,0.144-0.178c0.417-0.008,0.836,0.013,0.957-0.526
					c0.002-0.019,0.076-0.032,0.112-0.026c0.291,0.031,0.291-0.236,0.406-0.388c0.019,0.052,0.039,0.104,0.061,0.157
					c0.013-0.016,0.042-0.031,0.039-0.04c-0.018-0.05-0.044-0.097-0.065-0.146c0.002-0.186,0.013-0.472,0.175-0.477
					c0.404-0.013,0.419-0.272,0.595-0.529C20.918,20.562,21.214,20.11,21.764,20.179z M40.753,47.616
					c-0.982,0-1.931-0.118-2.791-0.647c-0.197-0.119-0.27,0.062-0.351,0.215c-0.128,0.241,0.065,0.219,0.188,0.269
					C38.762,47.844,39.739,47.979,40.753,47.616z"/>
				<path fill="#F78F3D" d="M11.461,27.154c1.635,0.008,2.945,1.331,2.924,2.953c-0.024,1.614-1.378,2.953-2.972,2.929
					c-1.688-0.023-2.917-1.339-2.903-3.104C8.521,28.406,9.86,27.144,11.461,27.154z"/>
				<path fill="#F78F3D" d="M17.15,41.439c0.029,0.33,0.089,0.67-0.259,0.892c-1.336,1.565-3.249,1.731-4.564,0.396
					c-0.915-0.925-1.087-2.382-0.419-3.509c0.673-1.137,2.02-1.677,3.286-1.331c0.238,0.062,0.456,0.215,0.718,0.173l-0.013-0.011
					c0.063,0.045,0.126,0.092,0.188,0.137c0.086,0,0.173-0.003,0.262-0.006l0.04,0.009c-0.089,0.364,0.042,0.652,0.319,0.88
					c0.398,0.325,0.584,0.726,0.472,1.242c-0.338-0.023-0.506-0.338-0.778-0.469c-0.092-0.045-0.173-0.115-0.278-0.037
					c-0.078,0.058-0.099,0.157-0.042,0.212C16.513,40.437,16.841,40.932,17.15,41.439z M15.759,39.705
					c0.026,0.003,0.052,0.006,0.079,0.006c-0.013-0.017-0.024-0.032-0.037-0.045c-0.026-0.014-0.05-0.023-0.076-0.037
					C15.735,39.655,15.748,39.682,15.759,39.705z"/>
				<path fill="#F78F3D" d="M8.259,36.288c0.008-0.888,0.7-1.585,1.585-1.596c0.864-0.011,1.648,0.781,1.629,1.644
					c-0.016,0.878-0.786,1.605-1.677,1.585C8.919,37.899,8.254,37.192,8.259,36.288z"/>
				<path fill="#FFFFFF" d="M16.348,38.18c-0.089,0.003-0.176,0.006-0.262,0.006c-0.062-0.045-0.125-0.092-0.188-0.137l0.013,0.011
					C16.141,37.8,16.228,38.049,16.348,38.18z"/>
				<path fill="#FFFFFF" d="M67.457,37.784c0.089-0.112,0.176-0.228,0.359-0.193c-0.004,0.181-0.168,0.207-0.26,0.299
					C67.521,37.855,67.491,37.818,67.457,37.784z"/>
				<path fill="#FFFFFF" d="M14.868,29.701c-0.086-0.05-0.194-0.162-0.142-0.215c0.084-0.081,0.17,0.047,0.249,0.104
					C14.938,29.628,14.902,29.664,14.868,29.701z"/>
				<path fill="#FFFFFF" d="M14.781,33.411c-0.165,0.146-0.173-0.05-0.236-0.112c-0.008-0.006,0.029-0.076,0.04-0.076
					c0.112,0.019,0.157,0.104,0.188,0.204L14.781,33.411z"/>
				<path fill="#FFFFFF" d="M15.334,35.854c-0.013-0.047-0.042-0.134-0.037-0.137c0.076-0.031,0.097,0.021,0.107,0.084
					C15.381,35.819,15.357,35.838,15.334,35.854z"/>
				<path fill="#FFFFFF" d="M15.405,35.801c0.079,0.003,0.121,0.045,0.126,0.123c-0.026,0.029-0.058,0.056-0.089,0.079
					c-0.034-0.05-0.071-0.1-0.107-0.149C15.357,35.838,15.381,35.819,15.405,35.801z"/>
				<path fill="#FFFFFF" d="M67.824,36.645c0.025-0.053,0.07-0.109,0.123-0.055c0.05,0.055-0.006,0.097-0.063,0.118
					C67.863,36.687,67.841,36.666,67.824,36.645z"/>
				<path fill="#FFFFFF" d="M67.883,36.708c-0.042,0.042-0.081,0.086-0.119,0.131c-0.035-0.031-0.065-0.063-0.098-0.095
					c0.052-0.034,0.104-0.065,0.157-0.1C67.841,36.666,67.863,36.687,67.883,36.708z"/>
				<path fill="#FFFFFF" d="M67.512,36.867c0.053-0.042,0.104-0.084,0.154-0.123c0.031,0.031,0.062,0.063,0.098,0.095
					c-0.043,0.042-0.084,0.084-0.127,0.125C67.596,36.933,67.555,36.898,67.512,36.867z"/>
				<path fill="#FFFFFF" d="M67.637,36.964c-0.052,0.074-0.104,0.191-0.207,0.082c-0.058-0.063,0.024-0.132,0.082-0.179
					C67.555,36.898,67.596,36.933,67.637,36.964z"/>
				<path fill="#FFFFFF" d="M15.069,27.238c-0.005-0.053-0.031-0.137-0.013-0.149c0.068-0.042,0.084,0.023,0.095,0.076
					C15.127,27.19,15.098,27.217,15.069,27.238z"/>
				<path fill="#AFADAD" d="M37.221,54.871c0,0.143,0,0.288,0,0.451c0.511-0.629,0.875-0.633,1.129-0.02
					c0.136-0.134,0.055-0.369,0.251-0.477c0.236,0.052,0.194,0.338,0.404,0.492c0.16-0.235,0.333-0.812,0.626-0.098
					c0.107-0.285,0.561,0.23,0.584-0.252c0.369,0.404,0.82-0.27,1.21,0.098c0.147,0.142,0.479-0.084,0.577,0.235
					c0.128-0.579,0.657-0.131,0.922-0.358c0.064,0.265,0.271,0.341,0.51,0.391c2.596,0.557,5.022,1.533,7.28,2.925
					c-1.476,1.152-2.955,2.304-4.425,3.461c-1.25,0.982-2.523,1.938-3.723,2.981c-0.936,0.818-1.778,1.74-2.637,2.645
					c-0.259,0.275-0.39,0.271-0.692,0.034c-1.273-0.999-2.164-2.362-3.356-3.437c-1.601-1.438-3.414-2.558-5.319-3.545
					c-1.137-0.592-2.143-1.389-3.155-2.172c0.086-0.086,0.16-0.197,0.265-0.257c2.353-1.387,4.892-2.271,7.573-2.76
					c0.215-0.037,0.398-0.103,0.556-0.249c0.154-0.126,0.186-0.375,0.424-0.422c0.209,0.118,0.026,0.344,0.134,0.484
					c0.259-0.103,0.458-0.42,0.799-0.217C37.179,54.829,37.201,54.852,37.221,54.871z"/>
				<path fill="#11594B" d="M28.294,51.837c0.81-0.414,1.289-1.161,1.821-1.845c0.702-0.906,1.399-1.792,2.411-2.405
					c0.322-0.196,0.561-0.319,0.906-0.241c0.04,0.059,0.079,0.118,0.118,0.176c-1.289,0.56-1.958,1.625-2.455,2.875
					c-0.32,0.803-0.776,1.552-1.171,2.321c-0.946,1.89-2.442,3.084-4.504,3.563c-0.037,0.01-0.068,0.044-0.105,0.068
					c-0.742,0.051-1.483,0.119-2.232,0.119c-2.117,0.006-3.91-0.713-5.288-2.332c-0.401-0.467-0.778-1.001-0.998-1.566
					c-0.579-1.51-1.161-3.023-1.491-4.616c-0.139-0.666,0.173-1.114,0.681-1.483c0.351-0.254,0.773-0.408,1.041-0.775
					c1.105-0.447,2.209-0.905,3.32-1.342c0.637-0.246,1.289-0.444,1.992-0.424c0.293,0.01,0.503,0.115,0.54,0.4
					c0.238,1.854,1.192,3.472,1.688,5.238c0.079,1-0.079,1.852-1.352,2.033c0.341,0.516,0.747,0.83,1.258,0.972
					C25.86,52.964,27.128,52.643,28.294,51.837z"/>
				<path fill="#666766" d="M58.971,48.328c0.096-0.282,3.797-2.915,4.123-2.812c0.645,0.199-0.672,2.203-1.902,3.555
					c-1.336,1.731-2.933,3.21-4.58,4.633c-1.127,0.979-2.287,1.919-3.516,2.771c-1.285-0.768-2.574-1.523-3.927-2.168
					c-0.101-0.049-0.151-0.188-0.226-0.283c0.324-0.602,1.004-0.697,1.521-0.99c1.37-0.778,2.812-1.438,4.231-2.128
					c0.553-0.269,1.205-0.33,1.656-0.845c-0.093-0.215-0.342-0.033-0.485-0.172c0.036-0.039,0.063-0.098,0.106-0.111
					c0.118-0.032,0.241-0.072,0.362-0.072c1.074,0.011,1.851-0.702,2.746-1.121c0.081-0.037,0.226-0.089,0.118-0.218
					c-0.04-0.048-0.155-0.028-0.233-0.042L58.971,48.328z"/>
				<path fill="#666766" d="M25.315,56.35c0.037-0.023,0.068-0.059,0.105-0.067c2.062-0.479,3.558-1.675,4.504-3.563
					c0.125,0.131,0.269,0.224,0.422,0.296c0.326,0.153,0.697,0.216,1.037,0.378c-0.409,0.178-0.789-0.162-1.205-0.014
					c0.257,0.221,0.597,0.157,0.843,0.309c0.118,0.074,0.634-0.203,0.341,0.332c-0.042,0.08,0.163,0.051,0.249,0.064
					c0.356,0.055,0.742-0.148,1.069,0.131c-0.013,0.005-0.031,0.008-0.044,0.016c-0.005,0.006-0.005,0.021-0.005,0.031
					c0.013-0.019,0.026-0.039,0.042-0.058c0.163,0.065,0.375-0.047,0.508,0.134c-0.008,0.016-0.016,0.028-0.023,0.042
					c0.005-0.016,0.01-0.03,0.016-0.05c0.419-0.039,0.839-0.076,1.26-0.113l-0.008-0.007c-0.079,0.128-0.16,0.254-0.241,0.382
					c-0.037,0.003-0.074,0.008-0.113,0.008c0.011,0.021,0.016,0.039,0.026,0.062c0.026-0.026,0.052-0.054,0.078-0.076
					c0.475-0.272,0.975,0.226,1.486-0.067c0.147-0.084,0.097,0.287,0.139,0.447c-0.157,0.146-0.341,0.212-0.556,0.249
					c-2.681,0.487-5.22,1.373-7.573,2.761c-0.104,0.06-0.178,0.17-0.265,0.256C26.659,57.659,25.978,57.016,25.315,56.35z"/>
				<path fill="#666766" d="M48.945,54.021c0.072,0.096,0.125,0.235,0.225,0.283c1.354,0.646,2.643,1.401,3.926,2.17
					c-0.75,0.651-1.546,1.241-2.38,1.784c-2.258-1.392-4.685-2.368-7.28-2.925c-0.236-0.05-0.443-0.126-0.51-0.391
					c0.307,0.029,0.602-0.184,0.909-0.047c0.179,0.088,0.213-0.043,0.247-0.166c0.186-0.002,0.372-0.004,0.561-0.008
					c0.534-0.013,0.526-0.037,1.055-0.26c0.24-0.1,0.529-0.134,0.794-0.117C47.331,54.395,48.137,54.206,48.945,54.021z"/>
				<path fill="#FFFFFF" d="M47.283,31.818c-0.754-0.344-1.398-0.886-2.18-1.188c-4.627-1.781-9.036-1.488-13.151,1.407
					c-0.844,0.593-1.48,1.396-2.036,2.259c-1.177-0.039-2.361-0.011-3.527-0.146c-0.692-0.081-1.412,0.023-2.083-0.23
					c0.526-2.215,1.137-4.397,2.434-6.312c0.849-1.253,1.887-2.319,3.144-3.165c1.572-1.057,2.888-0.521,4.067,0.778
					c1.009,1.108,2.125,2.027,3.745,2.19c1.784,0.173,3.545,0.556,5.348,0.631c2.659,0.11,5.224-0.139,7.513-1.697
					c1.881-1.281,3.926,0.047,4.504,1.362c-0.119-0.023-0.246-0.034-0.36-0.076c-1.851-0.676-3.593-0.44-5.209,0.652
					C48.24,29.127,47.613,30.388,47.283,31.818z M30.699,27.903c-1.331-0.003-2.51,0.998-2.518,2.144
					c-0.008,1.043,1.09,2.254,2.039,2.248c1.085-0.005,2.211-1.367,2.217-2.678C32.439,28.506,31.832,27.906,30.699,27.903z"/>
				<path fill="#B5B7BA" d="M19.896,21.919c-0.115,0.151-0.115,0.419-0.406,0.388c-0.037-0.006-0.11,0.008-0.112,0.026
					c-0.121,0.539-0.54,0.519-0.957,0.526c-0.047,0-0.094,0.115-0.144,0.178c-0.008-0.016-0.013-0.033-0.024-0.044
					c-0.008-0.006-0.023,0-0.037,0c0.023,0.013,0.045,0.026,0.066,0.039c0.162,0.485-0.189,0.889-0.212,1.345
					c-0.019,0.018-0.04,0.033-0.058,0.052c-0.286-0.226-0.574-0.398-0.865-0.01c-0.008-0.037-0.013-0.071-0.021-0.108
					c-0.016,0.011-0.034,0.021-0.05,0.032c0.026,0.023,0.052,0.044,0.079,0.067c-0.037,0.194,0.052,0.478-0.191,0.54
					c-0.186,0.05-0.296-0.191-0.409-0.333c-1.344-1.711-2.196-3.592-2.018-5.83c0.299,0.019,0.503-0.181,0.723-0.327
					c3.414-2.301,6.834-4.596,10.227-6.926c0.587-0.403,1.289-0.684,1.69-1.331c0.508,0.396,1.011,0.781,1.425,1.295
					c0.404,0.498,0.22,0.854-0.102,1.244c-0.299,0.367-0.802,0.445-1.119,0.783c-0.272,0.289-0.799,0.431-0.595,1.001l0.008-0.008
					c-0.233,0.04-0.257,0.294-0.398,0.398c-0.17,0.121-0.188,0.43-0.574,0.347c-0.322-0.068-0.322,0.371-0.438,0.618
					c-0.045,0.1,0.128,0.755-0.414,0.251c-0.202-0.186-0.103,0.456-0.438,0.398c-0.013-0.016-0.026-0.028-0.042-0.042
					c0.019,0.011,0.034,0.023,0.05,0.034c-0.176,0.506-0.799,0.574-1.033,1.085c-0.091,0.207,0.019,0.43-0.16,0.584
					c-0.142-0.052-0.288-0.109-0.438-0.165c-0.047-0.028-0.094-0.061-0.142-0.089c-0.008,0.019-0.019,0.037-0.026,0.055
					c0.052,0.017,0.107,0.029,0.16,0.042c-0.131,0.271-0.506,0.475-0.226,0.854c-0.026,0.021-0.052,0.042-0.079,0.062
					c-0.419-0.104-0.291,0.205-0.296,0.398c-0.003,0.173,0.188,0.396,0.018,0.506c-0.212,0.139-0.33-0.16-0.508-0.233
					c-0.029-0.021-0.073-0.065-0.084-0.058c-0.068,0.042-0.031,0.09,0.008,0.134c0.031,0.139,0.062,0.275,0.094,0.411
					c-0.023,0.021-0.044,0.045-0.068,0.068c-0.55-0.068-0.846,0.383-1.063,0.705c-0.176,0.257-0.191,0.517-0.595,0.529
					c-0.162,0.005-0.173,0.291-0.175,0.477L19.896,21.919z"/>
				<path fill="#B5B7BA" d="M63.202,25.271c-0.445-0.354-0.453-0.815-0.411-1.34c0.042-0.505-0.316,0.09-0.439-0.141
					c-0.406-0.221,0.928-0.52-0.009-0.761l0.011,0.008c0.002-0.039,0.008-0.075,0.008-0.115c0.014-0.028,0.025-0.055,0.039-0.081
					c-0.033,0.006-0.064,0.014-0.1,0.021c-0.207-0.042-0.689,0.157-0.283-0.389c0.275-0.363-0.168-0.366-0.414-0.5
					c0.733-0.349,0.187-0.442-0.045-0.663c-0.533-0.516-0.703-1.218-0.852-1.912c-0.027-0.142-0.039-0.26-0.191-0.252
					c-0.326,0.016-0.205-0.176-0.136-0.302c0.118-0.206,0.106-0.38-0.137-0.427c-0.354-0.073-0.134-0.188-0.044-0.304
					c0.107-0.134,0.26-0.265-0.047-0.349c-0.191-0.053-0.041-0.139-0.012-0.218c0.303-0.828,0.92-1.247,1.762-1.381
					c0.103-0.016,0.203-0.034,0.307-0.053c2.643,4.028,5.279,8.056,7.926,12.077c0.152,0.236,0.246,0.545,0.582,0.613
					c-0.59,1.659-1.695,2.885-3.142,3.844c-0.157-0.19,0.028-0.351-0.042-0.523c-0.367-0.056-0.676,0.309-1.059,0.17l0.008,0.008
					c-0.117-0.33-0.271-0.631-0.643-0.744c-0.201-0.061-0.417-0.086-0.146-0.367c0.209-0.217,0.027-0.343-0.178-0.453
					c-0.375-0.204-0.263-0.393,0.139-0.581c-0.297-0.107-0.52-0.181-0.736-0.272c-0.229-0.095,0.223-0.475-0.217-0.52
					c-0.113-0.01-0.031-0.165,0.033-0.249c0.216-0.272,0.025-0.324-0.19-0.312c-0.481,0.031-0.512-0.416-0.44-0.604
					c0.143-0.377-0.084-0.71-0.002-1.09c0.053-0.251-0.283-0.673-0.551-0.886c-0.314-0.251-0.383-0.442-0.182-0.772
					c0.066-0.105-0.055-0.129-0.133-0.147L63.202,25.271z"/>
				<path fill="#B5B7BA" d="M27.178,10.203c-0.401,0.647-1.103,0.928-1.69,1.331c-3.393,2.33-6.813,4.625-10.227,6.926
					c-0.22,0.146-0.424,0.346-0.723,0.327c0.021-1.401,0.547-2.656,1.284-3.794c1.459-2.251,3.314-4.108,5.785-5.259
					c1.774-0.825,3.535-0.849,5.251,0.188C26.981,9.999,27.125,10.049,27.178,10.203z"/>
				<path fill="#B5B7BA" d="M70.716,28.805c-0.336-0.068-0.43-0.377-0.582-0.613c-2.646-4.021-5.284-8.049-7.926-12.077
					c1.795-0.531,3.372-0.097,4.765,1.099c1.746,1.504,2.739,3.487,3.51,5.604c0.666,1.821,0.871,3.679,0.387,5.579
					C70.834,28.538,70.766,28.669,70.716,28.805z"/>
				<path fill="#11594B" d="M47.283,31.818c0.33-1.431,0.957-2.691,2.207-3.535c1.615-1.093,3.359-1.328,5.209-0.652
					c0.115,0.042,0.24,0.053,0.361,0.076c0.933,0.657,1.848,1.32,2.407,2.371c0.97,1.818,0.929,3.611-0.026,5.408
					c-0.075,0.146-0.153,0.294-0.229,0.44c-0.364,0.364-0.674,0.781-1.087,1.101c-1.605,1.242-3.391,1.412-5.293,0.901
					c-1.732-0.781-2.959-2.002-3.434-3.894C47.215,33.302,47.225,32.562,47.283,31.818z M48.596,33.433
					c0.199,1.014,0.666,1.868,1.488,2.51c1.658,1.454,4.445,1.452,6.074-0.906c1.017-1.468,0.958-3.073,0.064-4.518
					c-0.852-1.376-2.502-2.109-4.066-1.905C50.074,28.889,48.208,30.861,48.596,33.433z"/>
				<path fill="#AFADAD" d="M39.595,43.326c-1.771-0.002-3.023-1.085-3.28-2.84c-0.084-0.582,0.055-1.066,0.603-1.384
					c0.792-0.459,1.546-0.988,2.366-1.384c0.697-0.335,1.472-0.322,2.155,0.095c0.744,0.456,1.451,0.975,2.064,1.604
					c0.702,0.718,0.766,1.41,0.219,2.238c-0.068,0.102-0.145,0.204-0.207,0.312c-0.719,1.275-1.777,1.745-3.203,1.354
					C40.075,43.324,39.834,43.324,39.595,43.326z M40.773,42.682c0.64,0.101,1.19,0.147,1.644-0.299
					c0.14-0.136,0.207-0.316,0.136-0.514c-0.047-0.133-0.183-0.225-0.293-0.167C41.754,41.964,41.148,42.082,40.773,42.682z
					 M38.812,42.577c0.144-0.026,0.301,0.062,0.359-0.089c0.058-0.152-0.04-0.303-0.147-0.383c-0.291-0.227-0.6-0.434-0.912-0.629
					c-0.142-0.086-0.325-0.14-0.466-0.017c-0.168,0.146-0.116,0.341-0.024,0.511C37.887,42.459,38.372,42.501,38.812,42.577z"/>
				<path fill="#FFFFFF" d="M24.306,33.92c0.671,0.254,1.391,0.149,2.083,0.23c1.166,0.136,2.35,0.107,3.527,0.146
					c-1.164,1.994-1.525,4.158-1.373,6.433c0.008,0.146-0.003,0.291-0.003,0.438c-0.002,0.519-0.149,0.967-0.697,1.121
					c-0.414,0.114-1.105-0.336-1.3-0.797c-0.288-0.694-0.291-1.428-0.233-2.154c0.094-1.226-0.226-2.237-1.206-3.05
					C24.382,35.688,24.13,34.857,24.306,33.92z"/>
				<path fill="#FFFFFF" d="M50.832,37.929c1.902,0.511,3.688,0.341,5.293-0.901c0.413-0.319,0.723-0.736,1.087-1.101
					c-0.003,0.959-0.655,1.583-1.342,1.983c-1.927,1.129-2.606,2.818-2.696,4.939c-0.042,1.047-0.547,1.948-1.48,2.553
					c-0.418,0.267-0.656,0.154-0.774-0.303c-0.153-0.595-0.153-1.219-0.053-1.8C51.18,41.5,51.219,39.716,50.832,37.929z"/>
				<path fill="#666766" d="M28.294,51.837c-1.166,0.806-2.434,1.127-3.823,0.736c-0.511-0.142-0.917-0.456-1.258-0.972
					c1.273-0.183,1.431-1.033,1.352-2.033C25.833,50.281,27.136,50.939,28.294,51.837z"/>
				<path fill="#11594B" d="M39.595,43.326c0.239-0.002,0.479-0.002,0.718-0.006c0.763,2.422,2.285,4.102,4.835,4.824
					c-0.392,0.168-0.49,0.129-1.258-0.179c-1.693-0.676-2.854-1.901-3.677-3.489c-0.283-0.547-0.325-0.554-0.689-0.061
					c-1.489,1.999-3.441,3.109-5.975,3.104c-0.04-0.058-0.079-0.117-0.118-0.176C36.289,47.232,38.335,45.884,39.595,43.326z"/>
				<path fill="#666766" d="M40.753,47.616c-1.014,0.36-1.991,0.228-2.953-0.165c-0.123-0.051-0.317-0.026-0.188-0.268
					c0.081-0.152,0.154-0.336,0.351-0.216C38.822,47.498,39.771,47.616,40.753,47.616z"/>
				<path fill="#AFADAD" d="M17.15,41.439c-0.309-0.508-0.637-1.003-1.069-1.423c-0.058-0.055-0.037-0.154,0.042-0.212
					c0.105-0.078,0.187-0.008,0.278,0.037c0.272,0.131,0.44,0.445,0.778,0.469C17.986,40.706,17.161,41.062,17.15,41.439z"/>
				<path fill="#AFADAD" d="M44.082,54.732c-0.034,0.123-0.068,0.254-0.247,0.164C43.861,54.759,43.948,54.709,44.082,54.732z"/>
				<path fill="#939291" d="M22.679,18.89c0.082,0.068,0.144,0.204,0.063,0.241c-0.121,0.058-0.089-0.115-0.142-0.179
					C22.626,18.932,22.653,18.91,22.679,18.89z"/>
				<path fill="#AFADAD" d="M58.967,48.323c-0.025,0.022-0.053,0.045-0.076,0.067c-0.008-0.014-0.016-0.029-0.022-0.045
					c0.034-0.005,0.069-0.013,0.103-0.019L58.967,48.323z"/>
				<path fill="#939291" d="M19.93,21.89c0.021,0.05,0.047,0.097,0.065,0.146c0.002,0.009-0.026,0.024-0.039,0.04
					c-0.021-0.053-0.042-0.105-0.061-0.157L19.93,21.89z"/>
				<path fill="#939291" d="M18.07,24.377c0.01,0.055,0.023,0.107,0.034,0.159c-0.031-0.036-0.06-0.07-0.091-0.107
					C18.03,24.41,18.051,24.395,18.07,24.377z"/>
				<path fill="#939291" d="M66.475,32.295c-0.004,0.016-0.006,0.031-0.006,0.047c0.006-0.013,0.008-0.025,0.014-0.039
					L66.475,32.295z"/>
				<path fill="#939291" d="M62.342,23.029c-0.003,0.019-0.006,0.034-0.008,0.053c0.005-0.016,0.01-0.031,0.018-0.045L62.342,23.029
					z"/>
				<polygon fill="#939291" points="34.433,54.216 34.449,54.186 34.425,54.209 				"/>
				<path fill="#AFADAD" d="M37.158,54.809c0.032-0.011,0.061-0.021,0.089-0.031c-0.008,0.031-0.019,0.062-0.026,0.095
					C37.201,54.852,37.179,54.829,37.158,54.809z"/>
				<path fill="#939291" d="M26.788,14.526c0.016,0.006,0.034,0.011,0.052,0.017c-0.016-0.008-0.031-0.017-0.044-0.024
					L26.788,14.526z"/>
				<path fill="#939291" d="M21.833,20.11c0.037,0.04,0.073,0.081,0.008,0.121c-0.011,0.008-0.05-0.034-0.076-0.053
					C21.788,20.155,21.809,20.132,21.833,20.11z"/>
				<path fill="#939291" d="M63.236,25.304c-0.014,0.014-0.029,0.026-0.043,0.042c-0.01-0.01-0.031-0.028-0.031-0.031
					c0.011-0.016,0.025-0.031,0.04-0.044L63.236,25.304z"/>
				<path fill="#F78F3D" d="M15.897,38.049c0.063,0.045,0.126,0.092,0.188,0.137C16.023,38.141,15.96,38.094,15.897,38.049z"/>
				<path fill="#AFADAD" d="M15.759,39.705c-0.011-0.023-0.024-0.05-0.034-0.076c0.026,0.014,0.05,0.023,0.076,0.037L15.759,39.705z
					"/>
				<path fill="#AFADAD" d="M15.8,39.666c0.013,0.013,0.024,0.028,0.037,0.045c-0.026,0-0.053-0.003-0.079-0.006L15.8,39.666z"/>
				<path fill="#FFFFFF" d="M34.176,54.583c-0.026,0.022-0.052,0.05-0.078,0.076c-0.011-0.021-0.016-0.039-0.026-0.062
					c0.039,0,0.076-0.005,0.113-0.008L34.176,54.583z"/>
				<path fill="#FFFFFF" d="M32.672,54.203c-0.016,0.02-0.029,0.039-0.042,0.058c0-0.011,0-0.026,0.005-0.03
					c0.013-0.008,0.031-0.012,0.044-0.017L32.672,54.203z"/>
				<path fill="#FFFFFF" d="M33.173,54.329c-0.005,0.019-0.01,0.034-0.016,0.05c0.008-0.014,0.016-0.025,0.023-0.042L33.173,54.329z
					"/>
				<path fill="#11594B" d="M30.699,27.903c1.132,0.003,1.74,0.603,1.737,1.714c-0.005,1.311-1.132,2.673-2.217,2.678
					c-0.948,0.006-2.046-1.205-2.039-2.248C28.189,28.901,29.368,27.9,30.699,27.903z"/>
				<path fill="#FFFFFF" d="M17.155,24.41c-0.026-0.023-0.053-0.044-0.079-0.067c0.016-0.011,0.034-0.021,0.05-0.032
					c0.008,0.037,0.013,0.071,0.021,0.108L17.155,24.41z"/>
				<path fill="#FFFFFF" d="M22.904,18.035c-0.053-0.013-0.108-0.025-0.16-0.042c0.008-0.018,0.019-0.036,0.026-0.055
					c0.047,0.028,0.094,0.061,0.142,0.089L22.904,18.035z"/>
				<path fill="#FFFFFF" d="M24.542,16.523c-0.016-0.011-0.032-0.023-0.05-0.034c0.016,0.014,0.029,0.026,0.042,0.042L24.542,16.523
					z"/>
				<path fill="#FFFFFF" d="M18.282,23.032c-0.021-0.013-0.042-0.026-0.066-0.039c0.013,0,0.029-0.006,0.037,0
					c0.011,0.011,0.016,0.028,0.024,0.044L18.282,23.032z"/>
				<path fill="#FFFFFF" d="M21.738,19.699c-0.04-0.044-0.076-0.092-0.008-0.134c0.011-0.008,0.055,0.037,0.084,0.058
					C21.788,19.649,21.764,19.676,21.738,19.699z"/>
				<path fill="#FFFFFF" d="M62.3,22.862c0.034-0.008,0.065-0.016,0.101-0.021c-0.014,0.026-0.026,0.053-0.039,0.081
					C62.339,22.904,62.32,22.883,62.3,22.862z"/>
				<path fill="#B5B7BA" d="M48.596,33.433c-0.388-2.571,1.479-4.544,3.562-4.819c1.563-0.204,3.216,0.529,4.067,1.905
					c0.893,1.444,0.95,3.05-0.065,4.518c-1.628,2.358-4.416,2.36-6.074,0.906C49.87,34.938,49.372,34.104,48.596,33.433z
					 M53.955,31.305c-0.395-0.854-1.13-0.878-1.921-0.825c-0.668,0.044-1.071,0.396-1.289,0.99
					c-0.238,0.652-0.095,1.315,0.058,1.947c0.092,0.377,0.305,0.78,0.78,0.883c0.011,0.134,0.076,0.207,0.208,0.274
					c0.93,0.496,1.666,0.281,2.641-0.783C55.034,33.131,54.762,31.703,53.955,31.305z"/>
				<path fill="#FFFFFF" d="M48.596,33.433c0.775,0.671,1.273,1.506,1.488,2.51C49.262,35.301,48.795,34.446,48.596,33.433z"/>
				<path fill="#11594B" d="M40.773,42.682c0.375-0.6,0.98-0.718,1.486-0.979c0.11-0.059,0.246,0.033,0.293,0.167
					c0.071,0.196,0.004,0.378-0.136,0.514C41.964,42.829,41.414,42.781,40.773,42.682z"/>
				<path fill="#11594B" d="M38.812,42.577c-0.44-0.076-0.925-0.118-1.19-0.604c-0.092-0.171-0.144-0.365,0.024-0.512
					c0.141-0.123,0.325-0.07,0.466,0.016c0.312,0.196,0.621,0.403,0.912,0.629c0.107,0.082,0.205,0.23,0.147,0.384
					C39.113,42.639,38.956,42.551,38.812,42.577z"/>
				<path fill="#11594B" d="M51.583,34.3c-0.478-0.103-0.688-0.506-0.78-0.883c-0.152-0.632-0.296-1.295-0.058-1.947
					c0.218-0.595,0.621-0.946,1.289-0.99c0.791-0.053,1.526-0.029,1.921,0.825l0.011-0.011c-0.124-0.05-0.159,0.058-0.224,0.118
					c-0.01,0.045-0.021,0.092-0.031,0.136l-0.002,0.003c-0.271-0.361-0.632-0.27-1.038-0.228c0.304,0.217,0.3,0.634,0.663,0.726
					l-0.003,0.003c-0.136,0.036-0.181,0.117-0.123,0.251l0.003-0.002c-0.104-0.021-0.134,0.031-0.126,0.123l-0.003,0.002
					c-0.098-0.013-0.126,0.037-0.123,0.123l-0.003,0.003c-0.089-0.005-0.12,0.042-0.122,0.123v0.003
					c-0.132,0.039-0.18,0.118-0.126,0.246v0.006c-0.101-0.019-0.131,0.031-0.124,0.12l-0.002,0.005
					c-0.092-0.01-0.126,0.037-0.123,0.121l-0.003,0.002c-0.134,0.04-0.179,0.118-0.126,0.249h0.003
					c-0.101-0.019-0.134,0.032-0.123,0.123l-0.005,0.003c-0.096-0.011-0.126,0.037-0.121,0.123l-0.005,0.003
					c-0.087-0.005-0.121,0.042-0.121,0.123l-0.002,0.003c-0.126,0.039-0.171,0.12-0.123,0.246l-0.003,0.005
					c-0.207-0.039-0.207,0.129-0.252,0.252L51.583,34.3z"/>
				<path fill="#11594B" d="M53.955,31.305c0.807,0.398,1.079,1.826,0.477,2.486c-0.975,1.064-1.711,1.279-2.641,0.783
					c-0.132-0.067-0.197-0.141-0.208-0.274l-0.005,0.008c0.126-0.042,0.275-0.061,0.252-0.252l0.003-0.005
					c0.133-0.037,0.179-0.118,0.123-0.246l0.002-0.003c0.103,0.021,0.132-0.031,0.121-0.123l0.005-0.003
					c0.092,0.011,0.126-0.036,0.121-0.123l0.005-0.003c0.084,0.003,0.12-0.044,0.123-0.123H52.33
					c0.126-0.042,0.173-0.12,0.126-0.249l0.003-0.002c0.094,0.013,0.125-0.037,0.123-0.121l0.002-0.005
					c0.087,0.005,0.124-0.039,0.124-0.12v-0.006c0.131-0.036,0.183-0.115,0.126-0.246v-0.003c0.102,0.019,0.131-0.034,0.122-0.123
					l0.003-0.003c0.092,0.011,0.126-0.039,0.123-0.123l0.003-0.002c0.084,0,0.121-0.048,0.126-0.123l-0.003,0.002
					c0.118-0.044,0.171-0.123,0.123-0.251l0.003-0.003c0.254-0.07,0.393-0.226,0.375-0.498l0.002-0.003
					c0.087,0.04,0.129-0.016,0.165-0.081c0.028-0.058,0.058-0.115,0.09-0.173L53.955,31.305z"/>
				<path fill="#435F66" d="M53.708,31.551c0.019,0.272-0.121,0.428-0.375,0.498c-0.364-0.092-0.358-0.509-0.663-0.726
					C53.077,31.281,53.438,31.189,53.708,31.551z"/>
				<path fill="#939291" d="M51.83,34.056c0.023,0.191-0.126,0.21-0.252,0.252C51.623,34.185,51.623,34.017,51.83,34.056z"/>
				<path fill="#939291" d="M53.331,32.052c0.048,0.128-0.005,0.207-0.123,0.251C53.15,32.169,53.195,32.088,53.331,32.052z"/>
				<path fill="#939291" d="M52.833,32.678c0.058,0.131,0.005,0.21-0.126,0.246C52.654,32.796,52.702,32.717,52.833,32.678z"/>
				<path fill="#939291" d="M52.456,33.178c0.047,0.129,0,0.207-0.126,0.249C52.277,33.296,52.322,33.218,52.456,33.178z"/>
				<path fill="#AFADAD" d="M53.965,31.294c-0.031,0.058-0.061,0.115-0.09,0.173c-0.044-0.018-0.089-0.036-0.134-0.055
					C53.805,31.352,53.841,31.244,53.965,31.294z"/>
				<path fill="#939291" d="M51.956,33.805c0.056,0.128,0.01,0.209-0.123,0.246C51.785,33.925,51.83,33.844,51.956,33.805z"/>
				<path fill="#939291" d="M53.21,32.301c-0.005,0.075-0.042,0.123-0.126,0.123C53.077,32.332,53.107,32.279,53.21,32.301z"/>
				<path fill="#939291" d="M53.742,31.412c0.045,0.019,0.09,0.037,0.134,0.055c-0.036,0.065-0.078,0.121-0.165,0.081
					C53.721,31.504,53.732,31.457,53.742,31.412z"/>
				<path fill="#939291" d="M52.205,33.553c0.005,0.087-0.029,0.134-0.121,0.123C52.079,33.59,52.109,33.542,52.205,33.553z"/>
				<path fill="#939291" d="M52.079,33.679c0.011,0.092-0.019,0.144-0.121,0.123C51.958,33.721,51.992,33.674,52.079,33.679z"/>
				<path fill="#939291" d="M52.333,33.427c-0.003,0.079-0.039,0.126-0.123,0.123C52.199,33.459,52.232,33.408,52.333,33.427z"/>
				<path fill="#939291" d="M52.582,33.055c0.002,0.084-0.029,0.134-0.123,0.121C52.456,33.092,52.49,33.045,52.582,33.055z"/>
				<path fill="#939291" d="M52.708,32.93c0,0.081-0.037,0.125-0.124,0.12C52.577,32.961,52.607,32.911,52.708,32.93z"/>
				<path fill="#939291" d="M52.956,32.552c0.009,0.089-0.021,0.142-0.122,0.123C52.835,32.594,52.867,32.547,52.956,32.552z"/>
				<path fill="#939291" d="M53.082,32.426c0.003,0.084-0.031,0.134-0.123,0.123C52.956,32.463,52.984,32.413,53.082,32.426z"/>
			</g>
		</g>
	</g>
</g>
<path fill="#00908D" d="M15.291,46.084l1.736-0.391l1.181,1.391l8.167,8.25l-1.042,2.875l-5.917-1.666l-2.208-2.542L15.5,50.709
	C15.5,50.709,14.249,47.417,15.291,46.084z"/>
<path fill="#FFFFFF" d="M31.031,53.172c0,0-0.599-0.057-1.891-0.859c-0.633-0.394-0.984-0.547-1.094-0.641s-2.547-1.766-4.859-2.781
	s-4.766-1.469-6.297-3.328c0.391-1.469,2.125-2.828,2.125-2.828l4.688-1.031l8.969,4.922l0.578,0.438l0.469,0.969"/>
<path fill="#666766" d="M26.708,57.709c0,0-3.667-3.168-9.709-11.834c1.542,1.042,2.375,1.584,5.083,2.584s7.817,4.195,8.263,4.556
	c-0.971,0.444-1.013,2.277-1.013,2.277L26.708,57.709z"/>
<g>
	<path fill-rule="evenodd" clip-rule="evenodd" fill="#666766" d="M38.687,33.667c-0.896,2.417-5.597,3.777-10.629,1.909
		c-5.031-1.867-8.489-6.255-7.592-8.671c0.896-2.416,5.593-2.537,10.734-0.994C41.674,29.054,39.584,31.25,38.687,33.667z"/>
	<path fill-rule="evenodd" clip-rule="evenodd" fill="#666766" d="M64.493,30.451c-0.511-2.526-4.737-3.617-9.997-2.552
		c-5.26,1.065-10.533,3.018-9.052,6.411c1.032,2.361,5.17,3.598,10.452,2.644C61.166,36.002,65.006,32.977,64.493,30.451z"/>
	<path fill-rule="evenodd" clip-rule="evenodd" d="M51.138,38.294c-1.126-0.397-2.246-0.812-3.381-1.188
		c-1.11-0.367-1.9-1.07-2.436-2.102c-0.39-0.749-0.837-1.469-1.227-2.218c-0.265-0.513-0.647-0.78-1.227-0.809
		c-0.614-0.03-1.229-0.091-1.877-0.142c-0.32,0.3-0.64,0.57-0.925,0.874c-0.399,0.427-0.801,0.856-1.152,1.324
		c-0.929,1.235-2.171,1.85-3.671,2.174c-3.553,0.77-6.893,0.356-10.073-1.435c-1.505-0.847-2.697-2.017-3.776-3.328
		c-0.351-0.426-0.689-0.865-1.007-1.316c-1.352-1.921-2.956-3.624-4.574-5.315c-0.349-0.365-0.63-0.799-1.018-1.3
		c0.357-0.203,0.582-0.392,0.84-0.465c1.064-0.302,2.145-0.501,3.265-0.417c3.745,0.286,7.37,1.123,10.929,2.306
		c3.724,1.238,7.465,2.419,11.197,3.634c1.194,0.388,2.376,0.452,3.637,0.255c4.101-0.643,8.21-1.232,12.33-1.752
		c3.024-0.382,6.064-0.674,9.123-0.513c1.448,0.076,2.803,0.505,4.041,1.275c-0.016,0.194-0.03,0.389-0.046,0.583
		c-2.627,2.069-5.207,4.192-7.655,6.475c-2.001,1.867-4.361,3.024-7.073,3.447c-0.378,0.06-0.754,0.13-1.131,0.195
		C53.213,38.456,52.176,38.375,51.138,38.294z M22.567,25.729c-0.889,0.231-1.163,0.583-1.276,1.484
		c-0.087,0.698,0.028,1.366,0.299,1.997c0.571,1.328,1.351,2.5,2.502,3.42c2.859,2.287,6.068,3.336,9.712,2.698
		c1.966-0.344,3.721-1.14,4.803-2.978c0.458-0.779,0.468-1.327-0.207-1.909c-0.582-0.501-1.234-0.967-1.931-1.281
		c-1.356-0.612-2.75-1.153-4.157-1.639c-2.327-0.804-4.653-1.634-7.139-1.823 M63.482,29.564c-0.336-0.18-0.653-0.447-1.011-0.518
		c-0.791-0.158-1.6-0.251-2.406-0.312c-2.113-0.159-4.205,0.095-6.286,0.419c-1.693,0.264-3.382,0.579-5.057,0.94
		c-0.921,0.199-1.786,0.593-2.513,1.227c-0.801,0.699-0.919,1.317-0.381,2.229c0.518,0.875,1.183,1.617,2.065,2.154
		c1.673,1.017,3.491,1.514,5.438,1.618c3.151,0.167,5.884-0.783,8.11-3.042C62.674,33.029,63.618,31.615,63.482,29.564z
		 M64.847,31.681c-0.011,0.026-0.027,0.052-0.031,0.08c0,0.009,0.029,0.021,0.044,0.032c0.011-0.026,0.024-0.052,0.027-0.079
		C64.888,31.705,64.86,31.692,64.847,31.681z M20.81,25.026c-0.004-0.028-0.008-0.056-0.011-0.084
		c-0.021,0.005-0.06,0.006-0.061,0.015c-0.005,0.027,0.003,0.056,0.007,0.083C20.767,25.036,20.788,25.031,20.81,25.026z
		 M18.651,24.67l-0.042,0.048l0.055,0.014L18.651,24.67z M16.835,24.751l0.053,0.043l0.015-0.06L16.835,24.751z M64.705,28.522
		l0.036-0.034l-0.052-0.013L64.705,28.522z"/>
</g>
<g>
	<path fill="none" d="M16.466,45.679c-0.276-0.02-0.508-0.162-0.627-0.367C15.958,45.518,16.19,45.659,16.466,45.679z"/>
	<path d="M64.599,41.761c-0.397,0.16-0.576,0.418-0.568,0.748c0.004,0.196,0.083,0.371,0.281,0.514
		c0.156,0.113,0.209,0.219-0.042,0.324c-0.628,0.265-0.71,0.959-0.272,1.296c0.153,0.118,0.152,0.216-0.076,0.306
		c-0.806,0.317-0.99,0.912-0.453,1.455c0.115,0.116,0.081,0.176-0.072,0.227c-0.113,0.037-0.233,0.065-0.345,0.105
		c-0.586,0.215-0.938,0.902-0.433,1.413c0.056,0.057,0.104,0.117,0.174,0.196c-0.093,0.027-0.162,0.054-0.234,0.066
		c-0.906,0.148-1.326,0.685-1.04,1.331c0.033,0.073,0.07,0.147,0.115,0.243c-0.561,0.018-1.052,0.125-1.37,0.482
		c-0.321,0.359-0.21,0.74-0.049,1.143c-0.188,0-0.329-0.004-0.471,0c-0.871,0.02-1.516,0.566-1.418,1.201
		c0.046,0.291-0.004,0.33-0.399,0.312c-0.737-0.031-1.338,0.252-1.568,0.763c-0.066,0.146-0.093,0.31-0.08,0.463
		c0.016,0.189-0.096,0.235-0.312,0.22c-0.062-0.004-0.123-0.013-0.186-0.021c-0.922-0.126-1.765,0.359-1.817,1.049
		c-0.004,0.053-0.006,0.105-0.006,0.158c0.002,0.129-0.083,0.18-0.254,0.151c-0.043-0.007-0.085-0.018-0.128-0.028
		c-0.879-0.217-1.646-0.027-2.106,0.563c-0.143,0.183-0.167,0.423-0.209,0.64c-0.044,0.229-0.073,0.252-0.354,0.127
		c-0.545-0.241-1.113-0.273-1.681-0.068c-0.488,0.176-0.864,0.441-0.991,0.852c-0.089,0.283-0.288,0.342-0.599,0.155
		c-0.312-0.187-0.661-0.282-1.059-0.274c-0.76,0.014-1.324,0.258-1.669,0.769c-0.167,0.247-0.299,0.265-0.522,0.049
		c-0.736-0.712-2.169-0.501-2.817,0.092c-0.062,0.056-0.112,0.118-0.174,0.175c-0.124,0.115-0.265,0.126-0.408,0.02
		c-0.112-0.084-0.209-0.18-0.327-0.259c-0.779-0.524-2.13-0.476-2.791,0.285c-0.044,0.052-0.122,0.087-0.185,0.13
		c-0.061-0.053-0.146-0.098-0.179-0.157c-0.464-0.853-1.444-1.03-2.5-0.753c-0.228,0.061-0.404,0.225-0.608,0.337
		c-0.074,0.04-0.159,0.07-0.24,0.105c-0.039-0.054-0.092-0.104-0.113-0.163c-0.308-0.842-1.534-1.221-2.569-0.79
		c-0.455,0.188-0.464,0.19-0.561-0.181c-0.192-0.735-1.014-1.13-2.106-0.986c-0.208,0.027-0.399,0.129-0.663,0.219
		c-0.01-0.143-0.02-0.232-0.022-0.321c-0.02-0.716-0.99-1.29-1.923-1.056c-0.481,0.119-0.478,0.096-0.485-0.277
		c-0.012-0.648-0.669-1.184-1.523-1.141c-0.237,0.012-0.476,0.02-0.723,0.029c0.122-0.999-0.443-1.537-1.909-1.484
		c0.237-0.391,0.233-0.734-0.048-1.066c-0.288-0.34-0.734-0.457-1.306-0.486c0.204-0.367,0.423-0.703,0.167-1.096
		c-0.249-0.384-0.701-0.516-1.214-0.645c0.08-0.111,0.13-0.209,0.212-0.291c0.476-0.471,0.045-1.248-0.648-1.396
		c-0.067-0.014-0.131-0.039-0.195-0.064c-0.147-0.057-0.171-0.118-0.072-0.232c0.489-0.571,0.166-1.236-0.709-1.461
		c-0.215-0.055-0.208-0.137-0.113-0.252c0.426-0.515,0.309-0.93-0.362-1.281c-0.256-0.135-0.261-0.171-0.053-0.332
		c0.508-0.395,0.382-1.047-0.256-1.32c-0.09-0.039-0.184-0.074-0.309-0.123c0.063-0.033,0.124-0.066,0.184-0.101l-0.504-0.021
		c-0.128,0.013-0.253,0.007-0.376-0.017l-0.412-0.019c0.041,0.026,0.074,0.054,0.12,0.079c0.186,0.101,0.13,0.177,0.009,0.271
		c-0.115,0.089-0.26,0.169-0.33,0.276c-0.298,0.453-0.075,0.932,0.552,1.188c0.187,0.076,0.184,0.138,0.052,0.234
		c-0.039,0.027-0.077,0.055-0.114,0.084c-0.485,0.377-0.269,1.138,0.382,1.343c0.352,0.11,0.343,0.132,0.137,0.375
		c-0.448,0.524-0.207,1.038,0.394,1.387c0.133,0.077,0.389,0.098,0.428,0.185c0.045,0.099-0.091,0.24-0.142,0.365
		c-0.033,0.082-0.062,0.166-0.079,0.25c-0.079,0.428,0.243,0.844,0.768,1.002c0.398,0.119,0.41,0.145,0.227,0.431
		c-0.053,0.083-0.1,0.17-0.129,0.259c-0.191,0.586,0.312,1.15,1.087,1.227c0.372,0.037,0.387,0.056,0.24,0.314
		c-0.366,0.644,0.245,1.404,1.163,1.443c0.399,0.018,0.412,0.031,0.326,0.33c-0.237,0.823,0.598,1.473,1.699,1.32
		c0.317-0.043,0.355-0.014,0.296,0.227c-0.145,0.584,0.337,1.172,1.123,1.289c0.314,0.047,0.667-0.004,0.99-0.053
		c0.31-0.047,0.353-0.044,0.327,0.184c-0.001,0.014-0.002,0.027-0.004,0.04c-0.137,0.925,1.205,1.591,2.195,1.147
		c0.193-0.088,0.287-0.004,0.317,0.126c0.03,0.129,0.029,0.263,0.057,0.392c0.143,0.66,0.905,1.093,1.796,0.997
		c0.267-0.028,0.526-0.111,0.774-0.192c0.22-0.073,0.318-0.041,0.376,0.131c0.068,0.195,0.12,0.406,0.26,0.574
		c0.582,0.695,1.68,0.83,2.593,0.338c0.461-0.249,0.462-0.249,0.673,0.135c0.443,0.814,1.967,1.052,2.731,0.556
		c0.167-0.108,0.329-0.224,0.464-0.352c0.139-0.13,0.247-0.108,0.358,0.004c0.078,0.079,0.127,0.175,0.211,0.25
		c0.155,0.142,0.298,0.302,0.495,0.403c0.929,0.48,2.179,0.302,2.707-0.475c0.161-0.238,0.258-0.236,0.467-0.025
		c0.458,0.465,1.064,0.691,1.851,0.578c0.603-0.088,0.996-0.386,1.299-0.76c0.147-0.18,0.267-0.197,0.489-0.066
		c0.056,0.033,0.105,0.07,0.159,0.105c1.01,0.689,2.655,0.333,3.001-0.65c0.033-0.093,0.058-0.188,0.101-0.33
		c0.188,0.066,0.358,0.115,0.511,0.182c0.464,0.207,0.957,0.289,1.479,0.171c0.775-0.177,1.231-0.642,1.288-1.278
		c0.019-0.203,0.091-0.238,0.355-0.176c0.21,0.051,0.415,0.121,0.63,0.149c0.894,0.116,2.032-0.433,1.937-1.243
		c-0.031-0.275,0.059-0.326,0.433-0.262c1.205,0.203,2.081-0.488,1.959-1.194c-0.034-0.198,0.074-0.239,0.356-0.212
		c0.262,0.025,0.54,0.06,0.788,0.02c0.795-0.131,1.188-0.6,1.146-1.306c-0.018-0.28-0.009-0.287,0.365-0.294
		c1.077-0.021,1.81-0.724,1.476-1.413c-0.12-0.249-0.041-0.331,0.314-0.349c0.908-0.046,1.542-0.655,1.183-1.391
		c-0.115-0.235-0.104-0.286,0.235-0.296c0.864-0.024,1.372-0.729,1.074-1.302c-0.205-0.394-0.199-0.396,0.302-0.584
		c0.756-0.285,0.967-0.947,0.465-1.447c-0.068-0.068-0.111-0.148-0.166-0.223c0.059-0.025,0.071-0.034,0.088-0.038
		c1.073-0.265,1.37-0.929,0.706-1.599c-0.156-0.158-0.085-0.24,0.119-0.321c0.74-0.291,0.74-1.021,0.207-1.376
		c-0.177-0.119-0.135-0.191,0.025-0.277c0.064-0.035,0.13-0.069,0.192-0.107c0.425-0.261,0.462-0.852,0.072-1.133
		c-0.199-0.143-0.266-0.203-0.229-0.277h-0.988C64.742,41.699,64.684,41.727,64.599,41.761z M20.062,49.765
		c0.393,0.207,0.367,0.814-0.032,1.07c0.055-0.169,0.151-0.348,0.158-0.529C20.194,50.126,20.108,49.944,20.062,49.765z
		 M19.214,47.995c0.234,0.225,0.247,0.477,0.122,0.725c-0.163,0.323-0.487,0.521-0.976,0.555c0.328-0.119,0.682-0.2,0.829-0.497
		C19.32,48.513,19.351,48.261,19.214,47.995z M15.395,43.335c0.002-0.413,0.447-0.734,1.006-0.727
		c0.54,0.009,0.973,0.332,0.961,0.717c-0.013,0.416-0.458,0.751-0.993,0.746C15.827,44.065,15.394,43.737,15.395,43.335z
		 M16.268,45.546c0.093,0.062,0.146,0.098,0.2,0.133c-0.001,0-0.001,0-0.001,0c-0.276-0.02-0.508-0.161-0.627-0.367
		c-0.001-0.004-0.004-0.008-0.005-0.011c-0.015-0.026-0.028-0.054-0.039-0.081c-0.013-0.037-0.024-0.075-0.031-0.114
		c-0.062-0.347,0.174-0.642,0.611-0.767c0.43-0.123,0.927-0.02,1.167,0.241c0.259,0.28,0.218,0.667-0.086,0.911
		c0.041-0.179,0.125-0.367,0.119-0.556c-0.004-0.191-0.082-0.387-0.396-0.458c0.072,0.08,0.158,0.156,0.208,0.243
		c0.047,0.081,0.057,0.173,0.089,0.278c-0.239,0.008-0.316,0.096-0.344,0.257c-0.029,0.17-0.323,0.288-0.579,0.278
		c-0.083-0.002-0.167-0.008-0.328-0.018C16.241,45.527,16.254,45.536,16.268,45.546z M16.936,47.427
		c-0.044,0.008-0.111-0.005-0.147-0.027c-0.315-0.191-0.546-0.422-0.486-0.741c0.068-0.356,0.31-0.638,0.798-0.739
		c0.411-0.085,0.812-0.035,1.131,0.203c0.018,0.014,0.027,0.033,0.036,0.051c0.002,0.004-0.008,0.011-0.016,0.02
		c-0.121-0.064-0.243-0.129-0.365-0.195c-0.019,0.015-0.036,0.028-0.054,0.043c0.039,0.032,0.078,0.064,0.114,0.098
		c0.117,0.113,0.249,0.221,0.342,0.344c0.069,0.092,0.076,0.191-0.107,0.258c-0.083,0.03-0.146,0.132-0.163,0.208
		c-0.043,0.188-0.203,0.288-0.423,0.343C17.378,47.345,17.157,47.386,16.936,47.427z M18.024,49.272
		c-0.404,0.021-0.803-0.351-0.871-0.604c-0.106-0.394,0.124-0.784,0.562-0.96c0.422-0.168,1.029-0.125,1.376,0.125
		c-0.199-0.059-0.334-0.098-0.468-0.138c-0.015,0.015-0.028,0.03-0.041,0.046c0.393,0.129,0.604,0.336,0.564,0.651
		c-0.023-0.009-0.049-0.017-0.073-0.025c-0.065,0.049-0.176,0.093-0.186,0.147c-0.073,0.396-0.394,0.564-0.91,0.573
		c-0.025,0.001-0.049,0.013-0.073,0.021c-0.006,0.002-0.009,0.01-0.025,0.029C17.924,49.179,17.972,49.226,18.024,49.272z
		 M19.064,50.938c-0.126,0.014-0.241,0.074-0.417,0.131c-0.419-0.117-0.724-0.438-0.713-0.806c0.011-0.386,0.334-0.704,0.835-0.823
		c0.479-0.113,0.915-0.041,1.201,0.24c-0.159-0.064-0.254-0.105-0.354-0.14c-0.092-0.03-0.19-0.053-0.312-0.056
		c0.445,0.149,0.833,0.318,0.714,0.758c-0.054-0.003-0.111-0.006-0.186-0.01c-0.021,0.082-0.039,0.146-0.053,0.21
		C19.711,50.737,19.47,50.896,19.064,50.938z M20.342,52.875c-0.567,0.063-1.107-0.359-1.135-0.854
		c-0.028-0.491,0.546-0.912,1.261-0.921c0.628-0.006,1.103,0.361,1.12,0.869C21.604,52.501,21.113,52.857,20.342,52.875z
		 M22.055,54.583c-0.751,0.005-1.318-0.412-1.318-0.969c0-0.492,0.65-0.975,1.32-0.98c0.678-0.006,1.273,0.419,1.282,0.914
		C23.352,54.097,22.754,54.578,22.055,54.583z M24.119,56.14c-0.742-0.01-1.361-0.484-1.35-1.039c0.012-0.59,0.658-1.023,1.523-1.01
		c0.606,0.01,1.318,0.385,1.263,0.987C25.547,55.681,24.914,56.148,24.119,56.14z M26.361,57.517
		c-0.615-0.017-1.178-0.527-1.154-1.042c0.028-0.58,0.683-1.06,1.418-1.038c0.775,0.021,1.398,0.496,1.345,1.057
		C27.915,57.087,27.448,57.548,26.361,57.517z M29.238,58.903c-0.843-0.006-1.502-0.485-1.5-1.092
		c0.003-0.671,0.719-1.217,1.578-1.213c0.709,0.004,1.547,0.477,1.49,1.105C30.801,58.401,30.137,58.909,29.238,58.903z
		 M32.345,60.052c-0.904,0.006-1.612-0.51-1.616-1.176c-0.005-0.678,0.706-1.254,1.582-1.227c0.797,0.025,1.661,0.408,1.646,1.183
		C33.944,59.494,33.226,60.048,32.345,60.052z M35.679,60.716c-0.859,0.002-1.58-0.566-1.579-1.244
		c0.003-0.689,0.752-1.26,1.657-1.26c0.953-0.001,1.729,0.543,1.721,1.207C37.47,60.151,36.689,60.714,35.679,60.716z
		 M39.409,61.031c-0.913-0.001-1.662-0.544-1.666-1.206c-0.004-0.76,0.753-1.322,1.782-1.322c0.92,0,1.607,0.535,1.61,1.253
		C41.139,60.46,40.363,61.032,39.409,61.031z M42.949,60.862c-0.876,0.004-1.588-0.545-1.59-1.227
		c-0.001-0.715,0.782-1.289,1.749-1.283c0.894,0.005,1.598,0.531,1.602,1.197C44.712,60.297,43.962,60.856,42.949,60.862z
		 M46.539,60.515c-0.879,0.003-1.681-0.596-1.664-1.265c0.017-0.591,0.638-1.269,1.659-1.263c1.002,0.006,1.715,0.493,1.718,1.189
		C48.255,59.921,47.496,60.513,46.539,60.515z M49.876,59.56c-0.905-0.024-1.541-0.525-1.561-1.188
		c-0.02-0.656,0.707-1.274,1.642-1.214c0.976-0.003,1.604,0.456,1.606,1.173C51.564,59.006,50.799,59.584,49.876,59.56z
		 M52.949,58.191c-0.819,0.069-1.533-0.507-1.531-1.126c0.001-0.697,0.649-1.176,1.613-1.164c0.725,0.01,1.474,0.465,1.463,1.104
		C54.482,57.685,53.836,58.19,52.949,58.191z M55.479,56.724c-0.802-0.023-1.415-0.506-1.376-1.084
		c0.04-0.59,0.672-1.027,1.461-0.992c0.897,0.041,1.338,0.457,1.325,1.075C56.879,56.278,56.195,56.745,55.479,56.724z
		 M57.76,55.323c-0.749-0.013-1.391-0.508-1.365-1.055c0.027-0.586,0.684-1.023,1.511-1.008c0.707,0.013,1.326,0.5,1.306,1.026
		C59.188,54.87,58.534,55.337,57.76,55.323z M58.974,53.233c-0.042-0.032-0.091-0.06-0.179-0.115
		c0.02,0.092,0.032,0.148,0.055,0.256c-0.332-0.303-0.481-0.592-0.328-0.926c0.169-0.365,0.504-0.607,1.037-0.686
		c0.456-0.067,0.827,0.037,1.18,0.291c-0.116,0-0.189,0-0.283,0c0.121,0.144,0.23,0.273,0.339,0.402
		c-0.031,0-0.062,0.001-0.094,0.002c-0.048,0.093-0.136,0.186-0.136,0.277c0,0.304-0.207,0.498-0.56,0.611
		C59.637,53.466,59.277,53.468,58.974,53.233z M61.014,52.921c-0.154,0.471-0.679,0.758-1.248,0.682
		c1.217-0.213,1.396-0.805,0.953-1.444C61.012,52.229,61.13,52.567,61.014,52.921z M62.556,51.126
		c-0.042-0.142-0.086-0.285-0.128-0.43c-0.025,0.002-0.05,0.004-0.073,0.006c-0.078,0.174-0.167,0.346-0.233,0.521
		c-0.155,0.404-0.916,0.596-1.363,0.341c-0.061-0.034-0.135-0.057-0.269-0.112c0.346,0.42,1.146,0.438,1.791,0.096
		c-0.082,0.199-0.563,0.387-0.922,0.359c-0.643-0.047-1.131-0.432-1.126-0.89c0.002-0.431,0.491-0.827,1.109-0.854
		c0.219-0.01,0.448,0.061,0.664,0.114c0.05,0.013,0.064,0.104,0.1,0.166C62.447,50.432,62.663,50.743,62.556,51.126z M63.778,49.706
		c-0.263,0.416-0.889,0.629-1.442,0.438c0.585,0.028,1.069-0.013,1.313-0.413c0.133-0.216,0.093-0.492-0.11-0.666
		c0.018,0.074,0.033,0.149,0.052,0.232c-0.067,0.021-0.138,0.045-0.219,0.072c0.062,0.276-0.043,0.516-0.39,0.631
		c-0.317,0.105-0.647,0.07-0.928-0.146c-0.056,0.049-0.094,0.082-0.13,0.113c-0.305-0.1-0.405-0.589-0.199-0.924
		c0.273-0.443,0.899-0.626,1.488-0.434C63.816,48.808,64.054,49.269,63.778,49.706z M64.771,47.358
		c-0.078-0.038-0.129-0.062-0.136-0.064c-0.077,0.102-0.153,0.195-0.218,0.294c-0.034,0.052-0.055,0.11-0.067,0.169
		c-0.081,0.383-0.269,0.502-0.802,0.5c-0.085,0-0.17,0-0.289,0c0.381,0.229,0.887,0.091,1.46-0.363
		c-0.072,0.322-0.559,0.576-1.073,0.559c-0.61-0.021-1.061-0.344-1.092-0.785c-0.032-0.443,0.371-0.838,0.923-0.904
		C64.08,46.69,64.619,46.927,64.771,47.358z M65.556,45.712c-0.126-0.139-0.215-0.239-0.308-0.337
		c-0.009-0.009-0.046-0.004-0.076-0.005c0.078,0.095,0.15,0.184,0.239,0.293c-0.113,0.017-0.179,0.025-0.253,0.036
		c0.007,0.565-0.437,0.769-1.152,0.748c0.33,0.259,1.012,0.083,1.438-0.354c0.011,0.232-0.451,0.519-0.882,0.545
		c-0.631,0.039-1.142-0.286-1.212-0.771c-0.057-0.39,0.366-0.793,0.893-0.852C64.898,44.942,65.425,45.204,65.556,45.712z
		 M65.066,44.812c0.217-0.125,0.462-0.267,0.691-0.398C65.663,44.649,65.373,44.812,65.066,44.812z M65.656,44.021
		c-0.19,0.158-0.241,0.377-0.465,0.49c-0.134,0.066-0.338,0.072-0.512,0.078c-0.154,0.006-0.312-0.025-0.468-0.041
		c-0.015,0.014-0.029,0.027-0.044,0.042c-0.282-0.206-0.318-0.456-0.201-0.723c0.117-0.272,0.358-0.453,0.761-0.478
		c0.175-0.012,0.357-0.006,0.528,0.02C65.66,43.47,65.915,43.807,65.656,44.021z M66.101,42.458
		c0.006,0.402-0.413,0.723-0.943,0.722c-0.574-0.001-0.978-0.3-0.97-0.72c0.008-0.385,0.445-0.678,1.012-0.676
		C65.66,41.785,66.096,42.11,66.101,42.458z"/>
	<path fill="#FFFFFF" d="M46.534,57.987c-1.021-0.006-1.643,0.672-1.659,1.263c-0.017,0.669,0.785,1.268,1.664,1.265
		c0.957-0.002,1.716-0.594,1.713-1.338C48.249,58.48,47.536,57.993,46.534,57.987z M46.987,60.317
		c-0.612,0.16-1.135,0.056-1.435-0.319c0.107,0.054,0.214,0.11,0.322,0.163c0.601,0.287,1.451,0.01,1.628-0.504
		c0.06-0.174,0.267-0.318,0.39-0.484c0.044-0.059,0.074-0.146,0.049-0.207c-0.053-0.134-0.145-0.26-0.22-0.388
		c0.188,0.028,0.333,0.24,0.362,0.533C48.142,59.727,47.797,60.106,46.987,60.317z"/>
	<path fill="#FFFFFF" d="M39.525,58.503c-1.029,0-1.786,0.562-1.782,1.322c0.004,0.662,0.753,1.205,1.666,1.206
		c0.954,0.001,1.729-0.571,1.727-1.275C41.133,59.038,40.445,58.503,39.525,58.503z M40.811,60.196
		c-0.188,0.339-0.821,0.68-1.284,0.668c-0.502-0.013-0.938-0.14-1.303-0.484c0.332,0.071,0.584,0.137,0.846,0.181
		c0.442,0.074,0.803-0.034,1.088-0.29c0.101-0.091,0.195-0.188,0.309-0.27c0.065-0.047,0.163-0.068,0.247-0.102
		c0.036,0.01,0.07,0.02,0.105,0.029c-0.028-0.242-0.06-0.484-0.088-0.726C41.002,59.524,41,59.854,40.811,60.196z"/>
	<path fill="#FFFFFF" d="M43.108,58.353c-0.967-0.006-1.75,0.568-1.749,1.283c0.002,0.682,0.714,1.23,1.59,1.227
		c1.013-0.006,1.763-0.565,1.761-1.312C44.706,58.884,44.002,58.357,43.108,58.353z M43.365,60.697
		c-0.542,0.109-1.133-0.062-1.376-0.374c0.289,0.062,0.592,0.161,0.905,0.184c0.352,0.025,0.654-0.097,0.854-0.328
		c0.105-0.121,0.212-0.244,0.339-0.354c0.078-0.066,0.193-0.109,0.344-0.191c-0.046-0.18-0.103-0.408-0.155-0.627
		c0.149,0.033,0.245,0.229,0.235,0.549C44.493,60.188,44.14,60.541,43.365,60.697z"/>
	<path fill="#FFFFFF" d="M35.757,58.212c-0.905,0-1.654,0.57-1.657,1.26c-0.001,0.678,0.72,1.246,1.579,1.244
		c1.01-0.002,1.791-0.564,1.799-1.297C37.486,58.755,36.71,58.211,35.757,58.212z M36.915,60.184
		c-0.412,0.373-0.998,0.462-1.621,0.358c-0.402-0.066-0.679-0.258-0.797-0.572c0.335,0.367,0.812,0.434,1.354,0.383
		c0.627-0.06,0.81-0.413,0.952-0.787c0.262,0.057,0.342,0.02,0.358-0.164c0.006-0.076-0.023-0.155-0.027-0.232
		c-0.004-0.049,0.008-0.099,0.012-0.147c0.026,0.003,0.052,0.005,0.077,0.007C37.384,59.448,37.282,59.851,36.915,60.184z"/>
	<path fill="#FFFFFF" d="M49.957,57.158c-0.935-0.061-1.661,0.558-1.642,1.214c0.02,0.662,0.655,1.163,1.561,1.188
		c0.923,0.024,1.688-0.554,1.688-1.229C51.561,57.614,50.933,57.155,49.957,57.158z M51.39,58.503
		c-0.124,0.47-0.496,0.773-1.139,0.879c-0.481,0.079-0.907,0.011-1.234-0.289c0.045,0.015,0.096,0.023,0.132,0.045
		c0.41,0.252,0.861,0.205,1.266,0.033c0.463-0.195,0.689-0.521,0.628-0.928c-0.019-0.125-0.037-0.236,0.248-0.174
		c-0.057-0.131-0.102-0.232-0.155-0.354C51.372,57.835,51.476,58.177,51.39,58.503z"/>
	<path fill="#FFFFFF" d="M32.311,57.649c-0.876-0.027-1.587,0.549-1.582,1.227c0.004,0.666,0.712,1.182,1.616,1.176
		c0.88-0.004,1.599-0.558,1.612-1.22C33.972,58.058,33.107,57.675,32.311,57.649z M33.779,58.572
		c0.066,0.45-0.057,0.854-0.577,1.138c-0.544,0.295-1.14,0.271-1.714,0.061c-0.313-0.116-0.493-0.332-0.46-0.633
		c0.156,0.512,0.668,0.66,1.25,0.604c0.606-0.057,1.007-0.338,1.01-0.844c0.142,0.02,0.252,0.034,0.408,0.056
		c-0.019-0.175-0.035-0.331-0.05-0.487c0.017-0.004,0.035-0.01,0.052-0.014C33.727,58.492,33.773,58.53,33.779,58.572z"/>
	<path fill="#FFFFFF" d="M53.031,55.901c-0.964-0.012-1.612,0.467-1.613,1.164c-0.002,0.619,0.712,1.195,1.531,1.126
		c0.887-0.001,1.533-0.507,1.545-1.186C54.505,56.366,53.756,55.911,53.031,55.901z M53.818,57.868
		c-0.519,0.296-1.428,0.291-1.746-0.037c0.514,0.164,0.967,0.182,1.38-0.074c0.393-0.241,0.501-0.564,0.423-0.939
		c0.296,0.096,0.308,0.088,0.302-0.156C54.472,56.937,54.271,57.61,53.818,57.868z"/>
	<path fill="#FFFFFF" d="M29.316,56.599c-0.859-0.004-1.575,0.542-1.578,1.213c-0.002,0.606,0.656,1.086,1.5,1.092
		c0.899,0.006,1.563-0.502,1.568-1.199C30.863,57.075,30.025,56.603,29.316,56.599z M29.915,58.68
		c-0.653,0.194-1.434,0.184-1.708-0.315c0.326,0.192,0.697,0.223,1.085,0.182c0.334-0.035,0.601-0.148,0.76-0.379
		c0.056-0.082,0.102-0.16,0.28-0.111c0.183,0.053,0.225-0.065,0.245-0.165c0.017-0.093,0.015-0.188,0.024-0.333
		C30.815,57.919,30.43,58.526,29.915,58.68z"/>
	<path fill="#FFFFFF" d="M26.625,55.437c-0.736-0.021-1.391,0.458-1.418,1.038c-0.024,0.515,0.54,1.025,1.154,1.042
		c1.087,0.031,1.554-0.43,1.609-1.023C28.023,55.933,27.4,55.458,26.625,55.437z M27.2,57.306c-0.44,0.207-1.172,0.152-1.425-0.151
		c0.345,0.171,0.68,0.161,0.999,0.085c0.336-0.081,0.5-0.299,0.616-0.545c0.1,0,0.203,0,0.356,0c0-0.174,0-0.34,0-0.54
		C28.033,56.508,27.799,57.024,27.2,57.306z"/>
	<path fill="#FFFFFF" d="M55.564,54.647c-0.789-0.035-1.421,0.402-1.461,0.992c-0.039,0.578,0.574,1.061,1.376,1.084
		c0.716,0.021,1.399-0.445,1.41-1.001C56.902,55.104,56.462,54.688,55.564,54.647z M56.637,55.368
		c0.02,0.145,0.057,0.289,0.056,0.434c-0.004,0.307-0.422,0.7-0.827,0.799c-0.391,0.096-0.908,0.015-1.163-0.205
		c0.467,0.096,0.904,0.245,1.288-0.076c0.315-0.264,0.4-0.564,0.271-0.938c0.129,0.044,0.193,0.066,0.257,0.088
		c0.021-0.034,0.039-0.068,0.059-0.102C56.597,55.368,56.617,55.368,56.637,55.368z"/>
	<path fill="#FFFFFF" d="M25.556,55.078c0.055-0.603-0.657-0.978-1.263-0.987c-0.866-0.014-1.511,0.42-1.523,1.01
		c-0.012,0.555,0.607,1.029,1.35,1.039C24.914,56.148,25.547,55.681,25.556,55.078z M24.53,56.012
		c-0.432,0.04-0.872,0.067-1.157-0.265c0.353,0.142,0.736,0.176,1.1,0.086c0.411-0.101,0.461-0.42,0.601-0.695
		c0.08,0.053,0.134,0.09,0.191,0.129c0.107-0.107,0.107-0.107-0.08-0.742c0.244,0.119,0.349,0.418,0.259,0.736
		C25.344,55.616,24.925,55.976,24.53,56.012z"/>
	<path fill="#FFFFFF" d="M57.905,53.261c-0.827-0.016-1.483,0.422-1.511,1.008c-0.025,0.547,0.616,1.042,1.365,1.055
		c0.774,0.014,1.428-0.453,1.451-1.036C59.231,53.761,58.612,53.273,57.905,53.261z M58.29,55.177
		c-0.422,0.119-1.013,0.041-1.245-0.182c0.379,0.16,0.755,0.205,1.145,0.04c0.316-0.134,0.506-0.315,0.497-0.601
		c-0.004-0.145-0.085-0.307,0.132-0.43c0.037-0.021-0.049-0.178-0.104-0.262c-0.046-0.069-0.133-0.125-0.16-0.201
		c0.393,0.216,0.497,0.53,0.504,0.872C59.062,54.714,58.709,55.058,58.29,55.177z"/>
	<path fill="#FFFFFF" d="M23.34,53.548c-0.009-0.495-0.604-0.92-1.282-0.914c-0.67,0.006-1.32,0.488-1.32,0.98
		c0,0.557,0.566,0.974,1.318,0.969C22.754,54.578,23.352,54.097,23.34,53.548z M21.714,54.46c-0.145-0.049-0.293-0.09-0.428-0.148
		c-0.034-0.016-0.022-0.089-0.038-0.164c0.208,0.111,0.35,0.188,0.49,0.264C21.73,54.427,21.723,54.443,21.714,54.46z
		 M22.439,54.423c-0.189,0.071-0.377,0.127-0.599-0.033c0.115-0.027,0.179-0.049,0.247-0.057c0.443-0.052,0.769-0.331,0.75-0.646
		c-0.011-0.183-0.011-0.183,0.257-0.257c-0.162-0.406-0.569-0.578-1.111-0.633c0.455-0.1,0.965,0.151,1.187,0.525
		C23.421,53.745,23.044,54.198,22.439,54.423z"/>
	<path fill="#FFFFFF" d="M60.564,52.735c0-0.092,0.088-0.185,0.136-0.277c0.031-0.001,0.062-0.002,0.094-0.002
		c-0.108-0.129-0.218-0.259-0.339-0.402c0.094,0,0.167,0,0.283,0c-0.353-0.254-0.724-0.358-1.18-0.291
		c-0.533,0.078-0.868,0.32-1.037,0.686c-0.153,0.334-0.004,0.623,0.328,0.926c-0.022-0.107-0.035-0.164-0.055-0.256
		c0.088,0.056,0.137,0.083,0.179,0.115c0.304,0.234,0.663,0.232,1.031,0.113C60.357,53.233,60.564,53.039,60.564,52.735z"/>
	<path fill="#FFFFFF" d="M21.588,51.97c-0.017-0.508-0.492-0.875-1.12-0.869c-0.714,0.009-1.289,0.43-1.261,0.921
		c0.028,0.494,0.567,0.917,1.135,0.854C21.113,52.857,21.604,52.501,21.588,51.97z M20.206,52.776
		c0.091-0.046,0.149-0.098,0.216-0.105c0.505-0.057,0.676-0.299,0.669-0.64c-0.002-0.109,0.021-0.188,0.219-0.142
		c-0.078-0.355-0.364-0.558-0.769-0.689c0.622,0.041,1.009,0.51,0.872,1.008C21.304,52.608,20.753,52.886,20.206,52.776z"/>
	<path fill="#FFFFFF" d="M62.105,50.443c-0.035-0.062-0.05-0.153-0.1-0.166c-0.216-0.054-0.445-0.124-0.664-0.114
		c-0.618,0.027-1.107,0.424-1.109,0.854c-0.005,0.458,0.483,0.843,1.126,0.89c0.358,0.027,0.84-0.16,0.922-0.359
		c-0.645,0.343-1.445,0.324-1.791-0.096c0.134,0.056,0.208,0.078,0.269,0.112c0.447,0.255,1.208,0.063,1.363-0.341
		c0.066-0.176,0.155-0.348,0.233-0.521c0.023-0.002,0.048-0.004,0.073-0.006c0.042,0.145,0.086,0.288,0.128,0.43
		C62.663,50.743,62.447,50.432,62.105,50.443z"/>
	<path fill="#FFFFFF" d="M62.555,47.667c0.031,0.441,0.481,0.764,1.092,0.785c0.515,0.018,1.001-0.236,1.073-0.559
		c-0.573,0.454-1.079,0.592-1.46,0.363c0.119,0,0.204,0,0.289,0c0.533,0.002,0.721-0.117,0.802-0.5
		c0.013-0.059,0.033-0.117,0.067-0.169c0.064-0.099,0.141-0.192,0.218-0.294c0.007,0.003,0.058,0.026,0.136,0.064
		c-0.152-0.432-0.691-0.668-1.294-0.596C62.926,46.829,62.522,47.224,62.555,47.667z"/>
	<path fill="#FFFFFF" d="M63.214,48.61c-0.589-0.192-1.215-0.01-1.488,0.434c-0.206,0.335-0.105,0.824,0.199,0.924
		c0.036-0.031,0.074-0.064,0.13-0.113c0.28,0.217,0.61,0.252,0.928,0.146c0.347-0.115,0.452-0.354,0.39-0.631
		c0.081-0.027,0.151-0.051,0.219-0.072c-0.019-0.083-0.034-0.158-0.052-0.232c0.203,0.174,0.243,0.45,0.11,0.666
		c-0.244,0.4-0.729,0.441-1.313,0.413c0.554,0.19,1.18-0.022,1.442-0.438C64.054,49.269,63.816,48.808,63.214,48.61z"/>
	<path fill="#FFFFFF" d="M19.78,50.443c0.015-0.064,0.032-0.128,0.053-0.21c0.074,0.004,0.131,0.007,0.186,0.01
		c0.119-0.439-0.269-0.608-0.714-0.758c0.122,0.003,0.22,0.025,0.312,0.056c0.099,0.034,0.195,0.075,0.354,0.14
		c-0.286-0.281-0.722-0.354-1.201-0.24c-0.501,0.119-0.825,0.438-0.835,0.823c-0.011,0.367,0.294,0.688,0.713,0.806
		c0.176-0.057,0.292-0.117,0.417-0.131C19.47,50.896,19.711,50.737,19.78,50.443z"/>
	<path fill="#FFFFFF" d="M63.35,45.866c0.07,0.485,0.581,0.811,1.212,0.771c0.431-0.026,0.893-0.312,0.882-0.545
		c-0.426,0.438-1.107,0.613-1.438,0.354c0.716,0.021,1.159-0.183,1.152-0.748c0.074-0.011,0.14-0.02,0.253-0.036
		c-0.089-0.109-0.161-0.198-0.239-0.293c0.03,0.001,0.067-0.004,0.076,0.005c0.093,0.098,0.182,0.198,0.308,0.337
		c-0.131-0.508-0.657-0.77-1.313-0.697C63.716,45.073,63.293,45.477,63.35,45.866z"/>
	<path fill="#FFFFFF" d="M17.979,49.088c0.516-0.009,0.837-0.177,0.91-0.573c0.009-0.055,0.121-0.099,0.186-0.147
		c0.024,0.009,0.049,0.017,0.073,0.025c0.04-0.315-0.172-0.522-0.564-0.651c0.013-0.016,0.026-0.031,0.041-0.046
		c0.134,0.04,0.269,0.079,0.468,0.138c-0.347-0.25-0.954-0.293-1.376-0.125c-0.438,0.176-0.668,0.566-0.562,0.96
		c0.068,0.254,0.467,0.625,0.871,0.604c-0.052-0.047-0.1-0.094-0.143-0.135c0.016-0.02,0.019-0.027,0.025-0.029
		C17.93,49.101,17.954,49.089,17.979,49.088z"/>
	<path fill="#FFFFFF" d="M18.017,46.947c0.018-0.076,0.08-0.178,0.163-0.208c0.183-0.066,0.176-0.166,0.107-0.258
		c-0.093-0.123-0.225-0.23-0.342-0.344c-0.036-0.033-0.076-0.065-0.114-0.098c0.019-0.015,0.036-0.028,0.054-0.043
		c0.122,0.066,0.244,0.131,0.365,0.195c0.008-0.009,0.019-0.016,0.016-0.02c-0.009-0.018-0.019-0.037-0.036-0.051
		c-0.319-0.238-0.72-0.288-1.131-0.203c-0.488,0.102-0.73,0.383-0.798,0.739c-0.06,0.319,0.171,0.55,0.486,0.741
		c0.036,0.022,0.104,0.035,0.147,0.027c0.221-0.041,0.443-0.082,0.659-0.137C17.814,47.235,17.974,47.136,18.017,46.947z"/>
	<path fill="#FFFFFF" d="M17.362,43.325c0.012-0.385-0.421-0.708-0.961-0.717c-0.56-0.008-1.004,0.313-1.006,0.727
		c-0.001,0.402,0.432,0.73,0.975,0.736C16.904,44.076,17.349,43.741,17.362,43.325z M15.68,43.649
		c0.199,0.049,0.421,0.121,0.655,0.152c0.094,0.012,0.236-0.053,0.314-0.111c0.147-0.111,0.281-0.238,0.387-0.373
		c0.042-0.055,0.013-0.152-0.017-0.223c-0.041-0.09-0.117-0.172-0.198-0.285c0.296,0.064,0.458,0.324,0.417,0.605
		c-0.044,0.301-0.341,0.527-0.713,0.543C16.062,43.978,15.742,43.846,15.68,43.649z"/>
	<path fill="#FFFFFF" d="M64.188,42.46c-0.008,0.42,0.396,0.719,0.97,0.72c0.53,0.001,0.949-0.319,0.943-0.722
		c-0.005-0.348-0.44-0.673-0.901-0.674C64.633,41.782,64.195,42.075,64.188,42.46z M65.369,42.966
		c0.265-0.07,0.254-0.276,0.259-0.434c0.115-0.046,0.214-0.084,0.328-0.129c0.121,0.166,0.044,0.32-0.102,0.458
		c-0.221,0.208-0.64,0.305-0.962,0.214c-0.228-0.064-0.442-0.154-0.462-0.371C64.699,42.888,64.98,43.069,65.369,42.966z"/>
	<path fill="#FFFFFF" d="M17.133,45.256c0.028-0.161,0.105-0.249,0.344-0.257c-0.032-0.105-0.042-0.197-0.089-0.278
		c-0.051-0.087-0.137-0.163-0.208-0.243c0.314,0.071,0.393,0.267,0.396,0.458c0.005,0.188-0.078,0.377-0.119,0.556
		c0.304-0.244,0.345-0.631,0.086-0.911c-0.24-0.261-0.737-0.364-1.167-0.241c-0.438,0.125-0.673,0.42-0.611,0.767
		c0.007,0.039,0.018,0.077,0.031,0.114c0.011,0.027,0.024,0.055,0.039,0.081c0.001,0.003,0.004,0.007,0.005,0.011
		c0.119,0.205,0.351,0.348,0.627,0.367c-0.053-0.035-0.106-0.071-0.199-0.133c-0.014-0.01-0.027-0.019-0.042-0.029
		c0.161,0.01,0.244,0.016,0.328,0.018C16.81,45.544,17.104,45.426,17.133,45.256z"/>
	<path fill="#FFFFFF" d="M16.467,45.679c-0.054-0.035-0.107-0.071-0.2-0.133C16.36,45.607,16.413,45.644,16.467,45.679
		C16.466,45.679,16.466,45.679,16.467,45.679z"/>
	<path fill="#FFFFFF" d="M64.728,43.39c-0.402,0.024-0.644,0.205-0.761,0.478c-0.117,0.267-0.081,0.517,0.201,0.723
		c0.015-0.015,0.029-0.028,0.044-0.042c0.156,0.016,0.313,0.047,0.468,0.041c0.174-0.006,0.378-0.012,0.512-0.078
		c0.224-0.113,0.274-0.332,0.465-0.49c0.259-0.214,0.004-0.551-0.4-0.611C65.085,43.384,64.902,43.378,64.728,43.39z"/>
	<path fill="#FFFFFF" d="M16.332,42.344l-0.376-0.017C16.078,42.351,16.204,42.356,16.332,42.344z"/>
	<path fill="#FFFFFF" d="M60.719,52.158c0.443,0.64,0.264,1.231-0.953,1.444c0.569,0.076,1.094-0.211,1.248-0.682
		C61.13,52.567,61.012,52.229,60.719,52.158z"/>
	<path fill="#FFFFFF" d="M18.36,49.274c0.489-0.033,0.813-0.231,0.976-0.555c0.125-0.248,0.112-0.5-0.122-0.725
		c0.136,0.266,0.106,0.518-0.025,0.782C19.042,49.074,18.688,49.155,18.36,49.274z"/>
	<path fill="#FFFFFF" d="M20.062,49.765c0.045,0.18,0.131,0.361,0.126,0.541c-0.006,0.182-0.103,0.36-0.158,0.529
		C20.43,50.579,20.455,49.972,20.062,49.765z"/>
	<path fill="#FFFFFF" d="M65.758,44.413c-0.229,0.132-0.475,0.273-0.691,0.398C65.373,44.812,65.663,44.649,65.758,44.413z"/>
	<path d="M47.722,58.578c0.075,0.128,0.167,0.254,0.22,0.388c0.025,0.062-0.005,0.148-0.049,0.207
		c-0.123,0.166-0.33,0.311-0.39,0.484c-0.177,0.514-1.027,0.791-1.628,0.504c-0.108-0.053-0.215-0.109-0.322-0.163
		c0.3,0.375,0.822,0.479,1.435,0.319c0.81-0.211,1.154-0.591,1.097-1.206C48.055,58.818,47.91,58.606,47.722,58.578z"/>
	<path d="M40.818,59.929c-0.035-0.01-0.069-0.02-0.105-0.029c-0.084,0.033-0.182,0.055-0.247,0.102
		c-0.113,0.082-0.208,0.179-0.309,0.27c-0.285,0.256-0.646,0.364-1.088,0.29c-0.261-0.044-0.514-0.109-0.846-0.181
		c0.366,0.345,0.801,0.472,1.303,0.484c0.463,0.012,1.097-0.329,1.284-0.668c0.189-0.342,0.191-0.672-0.08-0.993
		C40.759,59.444,40.79,59.687,40.818,59.929z"/>
	<path d="M44.276,59.007c0.053,0.219,0.109,0.447,0.155,0.627c-0.15,0.082-0.266,0.125-0.344,0.191
		c-0.127,0.109-0.233,0.232-0.339,0.354c-0.2,0.231-0.503,0.354-0.854,0.328c-0.313-0.022-0.616-0.121-0.905-0.184
		c0.243,0.312,0.834,0.483,1.376,0.374c0.774-0.156,1.128-0.509,1.146-1.142C44.521,59.236,44.426,59.04,44.276,59.007z"/>
	<path d="M37.133,59.169c0.004,0.077,0.033,0.156,0.027,0.232c-0.016,0.184-0.096,0.221-0.358,0.164
		c-0.142,0.374-0.325,0.728-0.952,0.787c-0.542,0.051-1.018-0.016-1.354-0.383c0.118,0.314,0.395,0.506,0.797,0.572
		c0.623,0.104,1.209,0.015,1.621-0.358c0.367-0.333,0.469-0.735,0.308-1.155c-0.025-0.002-0.05-0.004-0.077-0.007
		C37.142,59.07,37.129,59.12,37.133,59.169z"/>
	<path d="M51.135,57.716c0.054,0.121,0.099,0.223,0.155,0.354c-0.285-0.062-0.267,0.049-0.248,0.174
		c0.062,0.406-0.165,0.732-0.628,0.928c-0.404,0.172-0.855,0.219-1.266-0.033c-0.036-0.021-0.087-0.03-0.132-0.045
		c0.327,0.3,0.753,0.368,1.234,0.289c0.643-0.105,1.015-0.409,1.139-0.879C51.476,58.177,51.372,57.835,51.135,57.716z"/>
	<path d="M33.697,58.953c-0.156-0.021-0.267-0.036-0.408-0.056c-0.003,0.506-0.404,0.787-1.01,0.844
		c-0.582,0.057-1.094-0.092-1.25-0.604c-0.033,0.301,0.147,0.517,0.46,0.633c0.574,0.211,1.169,0.234,1.714-0.061
		c0.52-0.283,0.643-0.688,0.577-1.138c-0.006-0.042-0.053-0.08-0.081-0.12c-0.017,0.004-0.035,0.01-0.052,0.014
		C33.663,58.622,33.679,58.778,33.697,58.953z"/>
	<path d="M53.875,56.817c0.078,0.375-0.03,0.698-0.423,0.939c-0.413,0.256-0.866,0.238-1.38,0.074
		c0.318,0.328,1.228,0.333,1.746,0.037c0.453-0.258,0.653-0.932,0.358-1.207C54.183,56.905,54.171,56.913,53.875,56.817z"/>
	<path d="M30.601,57.558c-0.009,0.145-0.007,0.24-0.024,0.333c-0.02,0.1-0.062,0.218-0.245,0.165
		c-0.178-0.049-0.224,0.029-0.28,0.111c-0.159,0.23-0.426,0.344-0.76,0.379c-0.388,0.041-0.76,0.011-1.085-0.182
		c0.274,0.499,1.055,0.51,1.708,0.315C30.43,58.526,30.815,57.919,30.601,57.558z"/>
	<path d="M27.746,56.154c0,0.2,0,0.366,0,0.54c-0.153,0-0.257,0-0.356,0c-0.117,0.246-0.28,0.464-0.616,0.545
		c-0.318,0.076-0.654,0.086-0.999-0.085c0.253,0.304,0.985,0.358,1.425,0.151C27.799,57.024,28.033,56.508,27.746,56.154z"/>
	<path d="M56.262,55.382c0.129,0.373,0.044,0.674-0.271,0.938c-0.384,0.321-0.821,0.172-1.288,0.076
		c0.255,0.22,0.772,0.301,1.163,0.205c0.405-0.099,0.823-0.492,0.827-0.799c0.001-0.145-0.036-0.289-0.056-0.434
		c-0.02,0-0.04,0-0.06,0c-0.02,0.033-0.038,0.067-0.059,0.102C56.455,55.448,56.391,55.426,56.262,55.382z"/>
	<path d="M25.185,54.524c0.187,0.635,0.187,0.635,0.08,0.742c-0.057-0.039-0.111-0.076-0.191-0.129
		c-0.139,0.275-0.189,0.595-0.601,0.695c-0.364,0.09-0.748,0.056-1.1-0.086c0.285,0.332,0.725,0.305,1.157,0.265
		c0.395-0.036,0.814-0.396,0.914-0.751C25.534,54.942,25.429,54.644,25.185,54.524z"/>
	<path d="M58.554,53.542c0.027,0.076,0.114,0.132,0.16,0.201c0.056,0.084,0.142,0.24,0.104,0.262
		c-0.217,0.123-0.136,0.285-0.132,0.43c0.009,0.285-0.181,0.467-0.497,0.601c-0.39,0.165-0.766,0.12-1.145-0.04
		c0.232,0.223,0.823,0.301,1.245,0.182c0.419-0.119,0.772-0.463,0.768-0.763C59.051,54.072,58.946,53.758,58.554,53.542z"/>
	<path d="M23.17,53.323c-0.221-0.374-0.731-0.625-1.187-0.525c0.542,0.055,0.949,0.227,1.111,0.633
		c-0.268,0.074-0.268,0.074-0.257,0.257c0.019,0.314-0.308,0.594-0.75,0.646c-0.067,0.008-0.131,0.029-0.247,0.057
		c0.222,0.16,0.41,0.104,0.599,0.033C23.044,54.198,23.421,53.745,23.17,53.323z"/>
	<path d="M21.286,54.312c0.135,0.059,0.284,0.1,0.428,0.148c0.008-0.017,0.016-0.033,0.024-0.049
		c-0.141-0.076-0.282-0.152-0.49-0.264C21.264,54.223,21.252,54.296,21.286,54.312z"/>
	<path d="M20.542,51.2c0.404,0.132,0.69,0.334,0.769,0.689c-0.197-0.047-0.221,0.032-0.219,0.142
		c0.007,0.341-0.164,0.583-0.669,0.64c-0.066,0.008-0.125,0.06-0.216,0.105c0.547,0.109,1.098-0.168,1.208-0.568
		C21.55,51.71,21.163,51.241,20.542,51.2z"/>
	<path d="M17.238,43.415c0.041-0.281-0.121-0.541-0.417-0.605c0.081,0.113,0.157,0.195,0.198,0.285
		c0.03,0.07,0.06,0.168,0.017,0.223c-0.106,0.135-0.24,0.262-0.387,0.373c-0.078,0.059-0.22,0.123-0.314,0.111
		c-0.233-0.031-0.456-0.104-0.655-0.152c0.062,0.196,0.382,0.328,0.844,0.309C16.897,43.942,17.194,43.716,17.238,43.415z"/>
	<path d="M64.893,43.075c0.322,0.091,0.741-0.006,0.962-0.214c0.146-0.138,0.223-0.292,0.102-0.458
		c-0.114,0.045-0.213,0.083-0.328,0.129c-0.005,0.157,0.006,0.363-0.259,0.434c-0.389,0.104-0.67-0.078-0.938-0.262
		C64.45,42.921,64.665,43.011,64.893,43.075z"/>
</g>
<g id="EVMELC_1_">
	<g>
		<path fill-rule="evenodd" clip-rule="evenodd" fill="#FFFFFF" d="M17.119,49.473c-0.026,0.01-0.052,0.014-0.079,0.006
			c-0.014-0.008-0.027-0.02-0.041-0.029l0.002,0.004c-0.003-0.013-0.007-0.025-0.011-0.037l-0.006-0.009l0.004-0.007
			c0-0.008,0.02-0.022-0.007-0.024c-0.07-0.062-0.136,0.011-0.203,0.008c-0.119-0.004-0.097,0.058-0.069,0.126
			c-0.152,0.045-0.309,0.04-0.464,0.057c-0.395,0.044-0.789,0.078-1.185,0.119c-0.009-0.01-0.017-0.009-0.026,0
			c-1.324,0.112-2.644,0.26-3.958,0.456c-0.771,0.116-1.539,0.247-2.307,0.382c-0.565,0.098-1.134,0.187-1.697,0.303
			c-0.069,0.016-0.141,0.021-0.204,0.047c-0.126,0.055-0.17-0.028-0.212-0.111c-0.109-0.228-0.165-0.468-0.195-0.714
			c-0.036-0.301-0.068-0.603,0.007-0.904c0.035-0.141,0.053-0.152,0.199-0.154c0.704,0.006,1.406-0.05,2.109-0.083
			c0.723-0.035,1.447-0.072,2.17-0.126c0.765-0.053,1.528-0.122,2.289-0.211c0.708-0.083,1.412-0.178,2.119-0.267
			c0.4-0.049,0.801-0.097,1.203-0.145c0.003,0.256,0.036,0.51,0.087,0.761c0.007,0.035,0.028,0.041,0.069,0.037
			c0.073-0.006,0.143-0.066,0.219-0.015l0.008,0.003l0.004,0.008c0.006,0.014,0.014,0.026,0.02,0.042
			c-0.016,0.033-0.025,0.069-0.001,0.103c0.001,0.021,0.004,0.04,0.007,0.059c-0.011,0.023-0.009,0.043,0.005,0.061
			c-0.019,0.031-0.01,0.06,0.011,0.087c0,0.004-0.001,0.007,0,0.01c0,0.001,0.002,0.002,0.004,0.004
			c-0.002-0.003-0.003-0.01-0.004-0.014c0.023-0.032,0.021-0.061-0.012-0.087c0.02-0.023,0.014-0.041-0.006-0.061
			c0.017-0.022,0.015-0.04-0.006-0.059c0.024-0.032,0.017-0.07,0.001-0.103c0.003-0.02-0.006-0.032-0.019-0.044
			c-0.003-0.01-0.007-0.021-0.009-0.031v0.006c0.015-0.017,0.023-0.033,0.007-0.055l0.005,0.001v0.006
			c-0.001-0.011-0.003-0.022-0.004-0.033l-0.001,0.006l-0.005,0.001c0.017-0.021,0.018-0.047,0.004-0.068
			c-0.01-0.017-0.021,0.006-0.033,0.01c-0.002-0.091-0.005-0.18-0.009-0.267c0.095,0.044,0.139,0.119,0.147,0.222
			C17.065,48.99,17.117,49.229,17.119,49.473z"/>
		<path fill-rule="evenodd" clip-rule="evenodd" fill="#090909" d="M17.286,48.073c1.174-0.128,2.35-0.237,3.527-0.328
			c1.326-0.102,2.651-0.199,3.976-0.319c0.378-0.034,0.755-0.071,1.132-0.105c0.021-0.002,0.042-0.003,0.053-0.025
			c0.012,0.008,0.023,0.014,0.036,0.021c-0.004,0.049-0.038,0.067-0.076,0.09c-0.107,0.065-0.159,0.151-0.146,0.288
			c0.015,0.171,0.044,0.337,0.064,0.506c0.004,0.036,0.016,0.074-0.007,0.11c-0.313,0.043-0.626,0.089-0.939,0.127
			c-0.917,0.118-1.829,0.251-2.742,0.384c-1.105,0.158-2.211,0.323-3.321,0.456c-0.462,0.056-0.925,0.113-1.389,0.172
			c-0.038-0.022-0.023-0.063-0.03-0.096c-0.008-0.168-0.025-0.333-0.062-0.496C17.338,48.596,17.312,48.334,17.286,48.073z"/>
		<path fill-rule="evenodd" clip-rule="evenodd" fill="#090909" d="M27.6,47.155c1.06-0.097,2.119-0.213,3.174-0.341
			c0.799-0.097,1.589-0.237,2.381-0.372c0.656-0.112,1.314-0.211,1.97-0.317c0.371-0.06,0.742-0.125,1.111-0.192
			c0.064-0.011,0.105,0,0.149,0.041c0.074,0.069,0.134,0.151,0.196,0.23c-0.004,0.019,0.007,0.032,0.021,0.041l-0.005,0.006
			c-0.019,0.038-0.027,0.079-0.022,0.119c0.015,0.135,0.033,0.268,0.055,0.4c0.014,0.083,0.001,0.172,0.046,0.25
			c-0.014,0.038-0.026,0.079-0.042,0.117c-0.066,0.17-0.163,0.262-0.374,0.266c-0.815,0.022-1.628,0.082-2.441,0.135
			c-0.726,0.047-1.453,0.079-2.179,0.123c-0.702,0.046-1.4,0.126-2.1,0.207c-0.54,0.062-1.079,0.125-1.619,0.188
			c-0.013,0.002-0.028-0.001-0.042-0.002c0.044-0.071,0.01-0.143-0.002-0.213c-0.014-0.074,0.011-0.106,0.083-0.102
			c0.241,0.015,0.478-0.027,0.717-0.037c0.406-0.019,0.81-0.078,1.217-0.1c0.42-0.022,0.838-0.071,1.258-0.1
			c0.147-0.011,0.292-0.029,0.438-0.038c0.435-0.027,0.871-0.042,1.305-0.084c0.176-0.016,0.354-0.017,0.53-0.038
			c0.115-0.013,0.238-0.006,0.346-0.059c-0.151-0.029-0.3-0.02-0.452-0.019c-0.383,0.001-0.764,0.01-1.144,0.059
			c-0.182,0.021-0.367,0.038-0.549,0.04c-0.581,0.007-1.155,0.098-1.735,0.104c-0.295,0.003-0.588,0.062-0.883,0.082
			c-0.323,0.024-0.644,0.076-0.967,0.098c-0.18,0.015-0.188,0.021-0.198-0.154c-0.008-0.154-0.083-0.244-0.22-0.296
			c-0.016-0.007-0.028-0.021-0.043-0.031C27.587,47.163,27.594,47.159,27.6,47.155z"/>
		<path fill-rule="evenodd" clip-rule="evenodd" fill="#090909" d="M27.58,47.167c0.015,0.011,0.027,0.024,0.043,0.031
			c0.136,0.052,0.212,0.142,0.22,0.296c0.01,0.176,0.018,0.169,0.198,0.154c0.324-0.021,0.645-0.073,0.967-0.098
			c0.295-0.02,0.587-0.079,0.883-0.082c0.58-0.007,1.154-0.098,1.735-0.104c0.183-0.002,0.368-0.02,0.549-0.04
			c0.38-0.049,0.761-0.058,1.144-0.059c0.151-0.001,0.301-0.011,0.452,0.019c-0.108,0.053-0.23,0.046-0.346,0.059
			c-0.176,0.021-0.354,0.022-0.53,0.038c-0.435,0.042-0.871,0.057-1.305,0.084c-0.146,0.009-0.29,0.027-0.438,0.038
			c-0.42,0.028-0.838,0.077-1.258,0.1c-0.407,0.021-0.811,0.081-1.217,0.1c-0.239,0.01-0.476,0.052-0.717,0.037
			c-0.072-0.005-0.097,0.027-0.083,0.102c0.012,0.07,0.046,0.142,0.002,0.213c-0.017,0.01-0.033,0.011-0.05,0.002
			c-0.047-0.042-0.049-0.1-0.054-0.154c-0.007-0.074-0.046-0.102-0.121-0.09c-0.084,0.009-0.172,0.016-0.259,0.018
			c-0.106,0.004-0.203,0.024-0.275,0.132c-0.09,0.137-0.285,0.187-0.436,0.113c-0.181-0.089-0.269-0.129-0.247-0.377
			c0.019-0.195,0.146-0.337,0.332-0.361c0.188-0.023,0.355,0.083,0.416,0.271c0.023,0.068,0.058,0.102,0.138,0.085
			c0.12-0.022,0.243-0.025,0.362-0.053c0.04-0.009,0.051-0.017,0.053-0.056c0.007-0.184-0.035-0.253-0.17-0.292
			c-0.055-0.016-0.116-0.034-0.123-0.108c0.027-0.008,0.055-0.015,0.084-0.026C27.546,47.162,27.562,47.166,27.58,47.167z"/>
		<path fill-rule="evenodd" clip-rule="evenodd" fill="#090909" d="M27.445,47.184c0.007,0.074,0.068,0.093,0.123,0.108
			c0.135,0.039,0.177,0.108,0.17,0.292c-0.002,0.039-0.014,0.047-0.053,0.056c-0.119,0.027-0.242,0.03-0.362,0.053
			c-0.08,0.017-0.115-0.017-0.138-0.085c-0.061-0.188-0.228-0.295-0.416-0.271c-0.186,0.024-0.313,0.166-0.332,0.361
			c-0.022,0.248,0.066,0.288,0.247,0.377c0.151,0.073,0.346,0.023,0.436-0.113c0.072-0.107,0.169-0.128,0.275-0.132
			c0.087-0.002,0.175-0.009,0.259-0.018c0.075-0.012,0.114,0.016,0.121,0.09c0.005,0.055,0.007,0.112,0.054,0.154
			c-0.188,0.051-0.384,0.057-0.577,0.081c-0.404,0.056-0.808,0.104-1.213,0.155c-0.027,0.003-0.054,0.001-0.083,0.004
			c-0.02-0.193-0.033-0.387-0.061-0.578c-0.017-0.115,0.008-0.193,0.12-0.243c0.064-0.027,0.117-0.076,0.091-0.164
			c0.135-0.033,0.276-0.032,0.414-0.047c0.288-0.028,0.576-0.059,0.863-0.088C27.403,47.173,27.424,47.182,27.445,47.184z"/>
		<path fill-rule="evenodd" clip-rule="evenodd" fill="#EBEBEB" d="M16.931,48.941c-0.077-0.052-0.146,0.009-0.219,0.015
			c-0.041,0.004-0.062-0.002-0.069-0.037c-0.051-0.251-0.084-0.505-0.087-0.761c0.091-0.054,0.192-0.02,0.287-0.033
			c0.019,0.134,0.038,0.267,0.056,0.4c0.004,0.087,0.007,0.176,0.009,0.267c-0.003,0.025,0.007,0.045,0.029,0.059l0.005-0.001
			l0.001-0.006c-0.024,0.015-0.022,0.027,0.004,0.033v-0.006c0,0-0.005-0.001-0.005,0c-0.029,0.015-0.017,0.033-0.007,0.054v-0.006
			C16.934,48.926,16.932,48.934,16.931,48.941z"/>
		<path fill-rule="evenodd" clip-rule="evenodd" fill="#090909" d="M16.898,48.525c-0.018-0.134-0.037-0.267-0.056-0.4
			c0.081-0.011,0.161-0.02,0.242-0.032c0.023,0.018,0.021,0.044,0.024,0.066c0.025,0.238,0.052,0.479,0.078,0.72
			c0.004,0.155,0.023,0.31,0.051,0.464c0.004,0.04,0.008,0.077,0.013,0.117c-0.043,0.014-0.086,0.021-0.131,0.013
			c-0.002-0.244-0.054-0.482-0.073-0.726C17.037,48.645,16.993,48.569,16.898,48.525z"/>
		<path fill-rule="evenodd" clip-rule="evenodd" fill="#EBEBEB" d="M17.187,48.879c-0.025-0.24-0.052-0.481-0.078-0.72
			c-0.003-0.022-0.001-0.049-0.024-0.066c0.067-0.006,0.131-0.04,0.201-0.02c0.025,0.261,0.052,0.522,0.078,0.783
			C17.306,48.876,17.252,48.924,17.187,48.879z"/>
		<path fill-rule="evenodd" clip-rule="evenodd" fill="#090909" d="M26.106,47.311c0.026,0.088-0.026,0.137-0.091,0.164
			c-0.111,0.05-0.136,0.128-0.12,0.243c0.028,0.191,0.042,0.385,0.061,0.578c-0.035,0.014-0.072,0.021-0.11,0.014
			c0.022-0.036,0.011-0.074,0.007-0.11c-0.021-0.169-0.05-0.335-0.064-0.506c-0.013-0.137,0.039-0.223,0.146-0.288
			c0.039-0.022,0.072-0.041,0.076-0.09c0.002-0.006,0.007-0.012,0.011-0.015C26.05,47.306,26.078,47.31,26.106,47.311z"/>
		<path fill-rule="evenodd" clip-rule="evenodd" fill="#641F2C" d="M36.675,47.021c-0.044-0.078-0.032-0.167-0.046-0.25
			c-0.022-0.133-0.04-0.266-0.055-0.4c-0.005-0.04,0.004-0.081,0.022-0.119C36.747,46.494,36.768,46.752,36.675,47.021z"/>
		<path fill-rule="evenodd" clip-rule="evenodd" fill="#EBEBEB" d="M16.988,49.4l-0.004,0.007l0.006,0.009
			c-0.002,0.013-0.003,0.027,0.011,0.037l-0.002-0.004c0,0.014,0,0.026,0,0.04c-0.094,0.032-0.191,0.051-0.291,0.021
			c-0.027-0.068-0.05-0.13,0.069-0.126c0.067,0.003,0.133-0.07,0.203-0.008C16.984,49.386,16.986,49.393,16.988,49.4z"/>
		<path fill-rule="evenodd" clip-rule="evenodd" fill="#EBEBEB" d="M17.25,49.46c-0.004-0.04-0.008-0.077-0.013-0.117
			c0.063-0.012,0.127-0.014,0.188,0.01c0.007,0.032-0.008,0.073,0.03,0.096C17.387,49.454,17.32,49.479,17.25,49.46z"/>
		<path fill-rule="evenodd" clip-rule="evenodd" fill="#090909" d="M16.999,49.489c0-0.014,0-0.026,0-0.04
			c0.013,0.01,0.026,0.021,0.041,0.029C17.025,49.483,17.013,49.485,16.999,49.489z"/>
		<path fill-rule="evenodd" clip-rule="evenodd" fill="#EBEBEB" d="M25.867,48.376c0,0.011,0,0.019-0.001,0.028
			c-0.003-0.001-0.006,0-0.01,0c0.003-0.01,0.007-0.019,0.011-0.026V48.376z"/>
		<path fill-rule="evenodd" clip-rule="evenodd" fill="#EBEBEB" d="M25.867,48.378c-0.005-0.01-0.011-0.017-0.017-0.024
			c0.003-0.001,0.006-0.001,0.009-0.003c0.003,0.009,0.005,0.018,0.008,0.025V48.378z"/>
		<path fill-rule="evenodd" clip-rule="evenodd" fill="#EBEBEB" d="M15.033,49.686c0.009-0.009,0.017-0.01,0.026,0
			C15.051,49.686,15.042,49.687,15.033,49.686z"/>
		<path fill-rule="evenodd" clip-rule="evenodd" fill="#090909" d="M16.963,48.994c0.015,0.032,0.022,0.07-0.001,0.103l0,0
			C16.938,49.063,16.946,49.027,16.963,48.994L16.963,48.994z"/>
		<path fill-rule="evenodd" clip-rule="evenodd" fill="#090909" d="M16.985,49.303c-0.021-0.027-0.03-0.056-0.011-0.087h0
			C17.006,49.242,17.008,49.271,16.985,49.303L16.985,49.303z"/>
		<path fill-rule="evenodd" clip-rule="evenodd" fill="#090909" d="M16.937,48.851c-0.022-0.014-0.032-0.033-0.029-0.059
			c0.013-0.004,0.023-0.026,0.033-0.01C16.954,48.804,16.954,48.829,16.937,48.851z"/>
		<path fill-rule="evenodd" clip-rule="evenodd" fill="#090909" d="M16.968,49.155c0.02,0.02,0.025,0.037,0.006,0.061h0
			C16.959,49.198,16.958,49.179,16.968,49.155L16.968,49.155z"/>
		<path fill-rule="evenodd" clip-rule="evenodd" fill="#090909" d="M16.969,49.155c-0.003-0.019-0.006-0.038-0.007-0.059l0,0
			C16.983,49.115,16.984,49.133,16.969,49.155L16.969,49.155z"/>
		<path fill-rule="evenodd" clip-rule="evenodd" fill="#090909" d="M16.935,48.925c-0.009-0.021-0.022-0.039,0.007-0.054
			C16.958,48.892,16.95,48.908,16.935,48.925z"/>
		<path fill-rule="evenodd" clip-rule="evenodd" fill="#090909" d="M16.944,48.95c0.013,0.012,0.022,0.024,0.019,0.044h0
			c-0.006-0.016-0.014-0.028-0.02-0.042L16.944,48.95z"/>
		<path fill-rule="evenodd" clip-rule="evenodd" fill="#090909" d="M17.001,49.453c-0.015-0.01-0.013-0.024-0.011-0.037
			C16.994,49.428,16.998,49.44,17.001,49.453z"/>
		<path fill-rule="evenodd" clip-rule="evenodd" fill="#090909" d="M16.988,49.4c-0.001-0.008-0.004-0.015-0.007-0.024
			C17.008,49.378,16.988,49.393,16.988,49.4z"/>
		<rect x="16.982" y="49.301" fill-rule="evenodd" clip-rule="evenodd" fill="#090909" width="0.006" height="0.014"/>
		<path fill-rule="evenodd" clip-rule="evenodd" fill="#090909" d="M16.931,48.941c0.001-0.008,0.003-0.016,0.004-0.022
			c0.002,0.01,0.006,0.021,0.009,0.031l-0.001,0.002l-0.004-0.008L16.931,48.941z"/>
		<path fill-rule="evenodd" clip-rule="evenodd" fill="#090909" d="M16.947,48.877c-0.026-0.006-0.028-0.019-0.004-0.033
			C16.944,48.854,16.946,48.866,16.947,48.877z"/>
		<path fill-rule="evenodd" clip-rule="evenodd" fill="#EBEBEB" d="M17.425,49.353c-0.061-0.023-0.125-0.021-0.188-0.01
			c-0.027-0.154-0.047-0.309-0.051-0.464c0.066,0.045,0.12-0.003,0.177-0.022C17.4,49.02,17.417,49.185,17.425,49.353z"/>
		<polygon fill-rule="evenodd" clip-rule="evenodd" fill="#090909" points="16.927,48.441 16.873,48.544 16.999,49.489 
			17.173,49.472 17.025,48.407 		"/>
		<path fill-rule="evenodd" clip-rule="evenodd" fill="#EBEBEB" d="M16.891,48.474l0.11,0.979l-0.31,0.025
			c0,0-0.081-0.656-0.093-0.812c-0.013-0.158,0.042-0.188,0.042-0.188L16.891,48.474z"/>
		<line fill-rule="evenodd" clip-rule="evenodd" fill="#FFFFFF" x1="7.229" y1="48.25" x2="7.854" y2="51.729"/>
		<path fill-rule="evenodd" clip-rule="evenodd" fill="#C44427" d="M6.542,48.959c0,0-0.417,1,0.25,1.938
			c-0.625,0.271-0.625,0.271-0.625,0.271s-0.771-1.125-0.333-2.25L6.542,48.959z"/>
	</g>
</g>
<path fill-rule="evenodd" clip-rule="evenodd" fill="#666766" d="M5.138,42.701c-0.571-0.497-0.673-1.058-0.309-1.729
	c0.057-0.104,0.051-0.148-0.072-0.189c-0.581-0.195-0.916-0.891-0.868-1.396c0.054-0.579,0.461-1.068,1.032-1.213
	c0.121-0.031,0.244-0.049,0.369-0.042c0.062,0.003,0.119-0.002,0.158-0.06c0.019-0.003,0.041-0.003,0.058-0.01
	c0.683-0.295,1.475,0.191,1.478,0.997c0,0.071,0.033,0.108,0.085,0.144c0.207,0.144,0.318,0.349,0.363,0.593
	c0.028,0.15-0.011,0.296-0.03,0.443c-0.002,0.007-0.004,0.015-0.007,0.022c0.007-0.003,0.014-0.006,0.021-0.009
	c0.04-0.019,0.082-0.036,0.121-0.056c0.379-0.191,0.849-0.129,1.155,0.151c0.315,0.291,0.42,0.736,0.266,1.133
	c-0.129,0.332-0.125,0.329,0.071,0.628c0.223,0.34,0.249,0.698,0.059,1.06c-0.188,0.356-0.495,0.529-0.895,0.545
	c-0.074,0.003-0.175-0.043-0.134,0.12c0.124,0.491-0.203,0.89-0.709,0.866c-0.149-0.007-0.147,0.04-0.119,0.157
	c0.053,0.216,0.143,0.424,0.155,0.649c-0.065,0.116-0.161,0.201-0.276,0.261c-0.253,0.129-0.341,0.352-0.378,0.614
	c-0.02,0.142-0.05,0.277,0.031,0.409c0.014,0.022,0.021,0.064,0.01,0.086c-0.095,0.181,0.01,0.33,0.045,0.5
	c0.065,0.317,0.035,0.651,0.011,0.978c-0.008,0.109-0.092,0.184-0.177,0.247c-0.045,0.021-0.09,0.043-0.135,0.064
	c-0.04,0.001-0.08,0.001-0.119,0.002c-0.025-0.036-0.063-0.051-0.104-0.061c-0.147-0.103-0.206-0.242-0.198-0.424
	c0.009-0.218,0.013-0.438-0.001-0.656c-0.009-0.129,0.112-0.251,0.064-0.344c-0.055-0.107-0.15-0.193-0.149-0.328
	c0-0.042-0.037-0.053-0.065-0.072c-0.163-0.114-0.248-0.271-0.231-0.472c0.006-0.07-0.015-0.12-0.059-0.173
	c-0.09-0.109-0.151-0.236-0.152-0.381c-0.001-0.075-0.035-0.1-0.098-0.123c-0.395-0.145-0.646-0.486-0.574-1.011
	c0.027-0.192,0.155-0.374,0.331-0.495c0.064-0.044,0.096-0.095,0.112-0.177c0.068-0.353,0.277-0.589,0.625-0.687
	c0.098-0.027,0.096-0.057,0.074-0.147c-0.036-0.144-0.104-0.194-0.251-0.199C5.505,42.911,5.319,42.808,5.138,42.701z"/>
<path fill="#FFFFFF" d="M18.013,24.429"/>
</svg>
