<?xml version="1.0" encoding="utf-8"?>
<!-- Generator: Adobe Illustrator 16.0.0, SVG Export Plug-In . SVG Version: 6.00 Build 0)  -->
<!DOCTYPE svg PUBLIC "-//W3C//DTD SVG 1.1//EN" "http://www.w3.org/Graphics/SVG/1.1/DTD/svg11.dtd">
<svg version="1.1" id="Layer_1" xmlns="http://www.w3.org/2000/svg" xmlns:xlink="http://www.w3.org/1999/xlink" x="0px" y="0px"
	 width="80px" height="80px" viewBox="0 0 80 80" enable-background="new 0 0 80 80" xml:space="preserve">
<g id="kVvDXc_1_">
	<g>
		<g id="u8mKL7_1_">
			<g>
				<path fill="#C44427" d="M0,42.314c0-1.502,0-3.002,0-4.506c0.124-0.048,0.118-0.152,0.124-0.257
					c0.081-1.709,0.301-3.401,0.629-5.078c1.664-8.506,5.641-15.759,11.975-21.66C19.419,4.58,27.364,1.051,36.496,0.212
					C37.098,0.157,37.729,0.27,38.312,0c1.126,0,2.252,0,3.379,0c0.056,0.162,0.199,0.118,0.313,0.123
					c1.771,0.068,3.527,0.28,5.269,0.613c9.998,1.91,18.119,6.91,24.336,14.943c4.768,6.163,7.474,13.164,8.176,20.938
					c0.058,0.646-0.062,1.318,0.215,1.942c0,1.042,0,2.085,0,3.13c-0.215,0.096-0.111,0.289-0.12,0.436
					c-0.071,1.354-0.198,2.702-0.417,4.036c-1.48,9.058-5.521,16.778-12.232,23.042c-6.614,6.171-14.465,9.672-23.471,10.576
					c-0.605,0.062-1.236-0.04-1.818,0.22c-1.375,0-2.753,0-4.132,0c-0.052-0.168-0.196-0.118-0.309-0.126
					c-1.415-0.087-2.822-0.246-4.219-0.49c-8.993-1.566-16.604-5.701-22.76-12.425c-6.019-6.572-9.438-14.33-10.308-23.211
					C0.165,43.273,0.267,42.764,0,42.314z M43.421,77.361c0.312,0,0.631,0.037,0.938-0.006c3.078-0.424,6.078-1.172,8.992-2.248
					c0.703-0.26,1.371-0.604,2.067-0.869c0.299-0.115,0.392-0.588,0.604-0.54c0.635,0.139,1.018-0.312,1.479-0.529
					c2.125-1.004,4.016-2.387,5.885-3.797c1.116-0.839,2.102-1.826,3.121-2.772c0.789-0.729,1.465-1.582,2.184-2.39
					c0.824-0.922,1.449-1.991,2.164-2.995c0.162-0.072,0.246-0.223,0.324-0.365c0.545-1.021,1.188-1.986,1.77-2.982
					c0.938-1.604,1.66-3.288,2.32-5c1.03-2.67,1.69-5.446,1.953-8.309c0.094-1.012,0.235-2.022,0.262-3.039
					c0.067-2.582-0.049-5.151-0.471-7.712c-0.729-4.428-2.224-8.584-4.455-12.465c-2.084-3.621-4.703-6.812-7.865-9.559
					c-2.021-1.756-4.184-3.307-6.521-4.601c-4.961-2.749-10.282-4.326-15.937-4.654C38.95,2.34,35.667,2.542,32.423,3.22
					c-3.951,0.827-7.675,2.232-11.175,4.239c-4.072,2.34-7.586,5.34-10.549,8.982c-2.547,3.129-4.504,6.598-5.948,10.36
					c-1.182,3.071-1.918,6.255-2.222,9.522c-0.191,2.049-0.239,4.108-0.05,6.176c0.16,1.742,0.372,3.47,0.747,5.181
					c0.896,4.102,2.398,7.965,4.56,11.571c0.781,1.299,1.548,2.608,2.594,3.726c1.011,1.74,2.557,3.017,3.936,4.424
					c1.698,1.74,3.715,3.117,5.751,4.451c0.417,0.271,0.886,0.392,1.31,0.674c1.022,0.68,2.042,1.516,3.394,1.521
					c0.183,0.002,0.301,0.149,0.372,0.299c0.089,0.191,0.249,0.267,0.424,0.341c1.347,0.556,2.714,1.041,4.122,1.42
					c0.233,0.084,0.461,0.188,0.7,0.252c3.65,0.976,7.368,1.348,11.136,1.244C42.158,77.584,42.805,77.568,43.421,77.361z"/>
				<path fill="#F78F3D" d="M10.379,62.979c-1.046-1.115-1.813-2.427-2.594-3.726c-2.162-3.606-3.664-7.471-4.56-11.571
					c-0.375-1.711-0.587-3.438-0.747-5.181c-0.189-2.067-0.142-4.127,0.05-6.176c0.304-3.268,1.04-6.451,2.222-9.522
					c1.444-3.763,3.401-7.23,5.948-10.36C13.662,12.8,17.176,9.8,21.248,7.46c3.5-2.007,7.224-3.412,11.175-4.239
					c3.244-0.679,6.527-0.881,9.813-0.692c5.654,0.328,10.976,1.905,15.937,4.654c2.337,1.294,4.499,2.845,6.521,4.601
					c3.162,2.746,5.781,5.938,7.865,9.559c2.231,3.881,3.727,8.037,4.455,12.465c0.422,2.561,0.538,5.131,0.471,7.711
					c-0.025,1.018-0.168,2.028-0.262,3.041c-0.263,2.86-0.923,5.638-1.953,8.308c-0.66,1.712-1.383,3.396-2.32,5
					c-0.582,0.996-1.225,1.963-1.77,2.981c-0.078,0.145-0.162,0.293-0.324,0.366c-0.174-0.192-0.104-0.435-0.121-0.657
					c-0.133-1.482-0.19-2.979-0.416-4.449c-0.299-1.965-0.691-3.92-1.111-5.863c-0.316-1.465-0.762-2.9-1.605-4.161
					c-0.268-0.397-0.512-0.892-1.115-0.894c-0.364-1.045-0.791-1.357-1.887-1.377c0.037-0.262,0.639-0.396,0.237-0.726
					c-0.274-0.225-0.134-0.307,0.003-0.453c0.467-0.497,0.887-1.062,1.42-1.47c0.43-0.33-0.223-0.87,0.325-1.088
					c-0.545-0.165-0.053-0.356,0.017-0.482c0.114-0.212,0.285-0.413,0.477-0.565c0.352-0.275,0.288-0.467-0.109-0.635
					c0.215-0.186,0.403-0.346,0.59-0.505c0.092-0.092,0.256-0.118,0.26-0.299c-0.185-0.034-0.271,0.081-0.359,0.193
					c-0.154,0.068-0.307,0.134-0.479,0.213c-0.02-0.362,0.263-0.472,0.377-0.682c0.047-0.084,0.177-0.23,0.084-0.257
					c-0.64-0.173-0.131-0.495-0.062-0.679c0.204-0.542,0.631-0.956,0.838-1.535c0.342-0.956,1.094-1.667,1.846-2.337
					c1.711-1.525,2.633-3.454,2.651-5.726c0.031-4.203-1.557-7.798-4.483-10.77c-1.344-1.365-3.053-1.96-5.006-1.764
					c-1.186,0.12-2.244,0.568-3.269,1.132c-0.134,0.071-0.406,0.238-0.417,0.081c-0.042-0.81-0.872-0.81-1.264-1.258
					c-0.17-0.193-0.375-0.534-0.707-0.595c-0.557-0.102-0.814-0.943-1.543-0.618c-0.02,0.008-0.129-0.146-0.17-0.238
					c-0.068-0.142-0.176-0.194-0.32-0.252c-0.613-0.246-1.311-0.335-1.776-0.88c-0.028-0.034-0.131-0.063-0.139-0.05
					c-0.294,0.414-0.38,0.042-0.49-0.139c-0.058-0.092-0.103-0.226-0.207-0.168c-0.657,0.351-0.972-0.768-1.627-0.367
					c-0.718-0.561-1.733-0.243-2.438-0.817c-0.2-0.168-0.41,0.21-0.547-0.053c-0.396-0.768-1.25,0.074-1.695-0.492
					c-0.321,0.419-0.178-0.275-0.416-0.168c-0.436,0.194-0.856-0.131-1.273-0.107c-0.561,0.034-1.04-0.744-1.633-0.139
					c-0.034-0.047-0.059-0.112-0.1-0.137c-0.233-0.123-1.482-0.217-1.776-0.248c-0.517-0.056-1.032,0.094-1.554-0.103
					c-0.356-0.131-0.833-0.472-1.14,0.157c-0.05,0.103-0.126-0.084-0.146-0.081c-0.446,0.021-0.931-0.28-1.311-0.045
					c-0.319,0.199-0.576,0.131-0.838,0.063c-0.49-0.132-0.915,0.018-1.336,0.212c-0.073,0.034-0.076,0.128-0.22,0.092
					c-1.485-0.394-2.707,0.61-4.085,0.828c-0.445,0.067-0.506,0.026-0.5-0.352C30.023,9.604,30,9.818,29.932,9.976
					c-0.094,0.22-0.414,0.372-0.445,0.341c-0.293-0.289-0.802-0.142-1.043-0.593c-0.175-0.33-0.503-0.603-0.812-0.833
					c-2.075-1.564-4.333-1.75-6.652-0.684c-2.885,1.323-5.083,3.458-6.732,6.145c-1.918,3.128-2.06,6.322-0.251,9.585
					c0.404,0.729,1.289,1.26,1.022,2.313c-0.073,0.286,0.495,0.543,0.134,0.915c-0.011-0.053-0.026-0.118-0.095-0.076
					c-0.018,0.013,0.008,0.097,0.013,0.149c0.024,0.19,0.217,0.4,0,0.571c-0.244,0.193-0.157,0.38-0.071,0.603
					c0.152,0.377-0.123,0.812,0.139,1.184c-0.055,0-0.11-0.002-0.163-0.005c-0.079-0.058-0.165-0.186-0.249-0.104
					c-0.052,0.053,0.055,0.165,0.142,0.215c0.065,0.356,0.291,0.729-0.05,1.093c0.406,0.112,0.503,0.427,0.073,0.663
					c-0.442,0.243-0.296,0.442-0.125,0.733c0.236,0.403,0.076,0.822,0.008,1.236c-0.032-0.1-0.076-0.186-0.188-0.204
					c-0.011,0-0.047,0.07-0.04,0.076c0.063,0.062,0.071,0.259,0.236,0.112c0.133,0.613,0.367,1.192,0.624,1.767
					c0.102,0.223,0.391,0.45,0.126,0.746c-0.005-0.078-0.047-0.12-0.126-0.123c-0.01-0.062-0.031-0.115-0.107-0.084
					c-0.005,0.003,0.023,0.09,0.037,0.137c0.037,0.05,0.073,0.1,0.107,0.149c0.155,0.243,0.461,0.679,0.44,0.697
					c-0.443,0.349,0.073,0.45,0.163,0.615c0.162,0.31,0.398,0.574,0.595,0.862c0.039,0.061,0.055,0.196-0.045,0.199
					c-0.068,0.002-0.139-0.121-0.207-0.188l-0.04-0.009c-0.121-0.131-0.207-0.38-0.438-0.12c-0.262,0.042-0.479-0.11-0.718-0.173
					c-1.266-0.346-2.613,0.194-3.286,1.331c-0.668,1.127-0.495,2.584,0.419,3.51c1.315,1.336,3.228,1.17,4.564-0.396
					c-0.005,0.943-0.212,1.854-0.435,2.762c-0.238-0.021-0.469-0.111-0.608-0.287c-0.37-0.468-0.734-0.322-1.142-0.074
					c-0.663,0.405-1.253,0.901-1.761,1.485c-0.508,0.587-0.558,1.113-0.184,1.614c-0.202,0.979-0.642,1.884-0.823,2.868
					c-0.052,0.292,0.105,0.606-0.062,0.853c-0.37,0.542-0.37,1.174-0.475,1.776c-0.123,0.715-0.083,1.478-0.204,2.167
					c-0.121,0.707-0.333,1.438-0.412,2.158C10.597,59.423,10.507,61.202,10.379,62.979z M67.637,36.964
					c0.043-0.041,0.084-0.083,0.127-0.125c0.038-0.045,0.077-0.089,0.119-0.131c0.059-0.021,0.113-0.063,0.062-0.118
					c-0.053-0.055-0.096,0.002-0.122,0.055c-0.054,0.034-0.105,0.065-0.157,0.1c-0.05,0.039-0.104,0.081-0.154,0.123
					c-0.058,0.047-0.14,0.115-0.082,0.179C67.533,37.155,67.585,37.038,67.637,36.964z M11.461,27.154
					c-1.601-0.011-2.94,1.252-2.951,2.777c-0.013,1.766,1.216,3.081,2.903,3.104c1.593,0.024,2.948-1.314,2.972-2.929
					C14.406,28.485,13.096,27.162,11.461,27.154z M8.259,36.288c-0.005,0.904,0.66,1.611,1.538,1.633
					c0.891,0.021,1.661-0.707,1.677-1.585c0.019-0.862-0.765-1.654-1.629-1.644C8.959,34.703,8.267,35.4,8.259,36.288z"/>
				<path fill="#00908D" d="M64.598,43.812c1.096,0.02,1.522,0.332,1.887,1.377c-0.036,0.072-0.109,0.146-0.106,0.218
					c0.028,1.462-0.677,2.665-1.465,3.78c-1.188,1.686-2.052,3.473-2.188,5.545c-0.1,1.484-1.056,2.644-1.512,3.992
					c-0.175,0.515-0.729,1.062-1.095,1.6c-1.415,2.083-2.931,4.085-4.634,5.945c-1.825,1.99-4.045,3.506-6.213,5.08
					c-1.733,1.258-3.42,2.57-4.879,4.146c-0.484,0.521-1.074,1.023-0.972,1.865c-0.616,0.207-1.264,0.223-1.897,0.24
					c-3.768,0.104-7.485-0.27-11.135-1.244c-0.238-0.062-0.466-0.168-0.7-0.252c-0.92-0.838-1.554-1.89-2.23-2.914
					c-0.547-0.827-0.844-1.875-1.874-2.32c-0.047-0.021-0.081-0.098-0.099-0.154c-0.26-0.836-0.886-1.48-1.19-2.291
					c-0.254-0.681-0.799-1.201-1.04-1.892c-0.115-0.33-0.155-0.673-0.322-1.001c-0.364-0.715-0.941-1.252-1.413-1.876
					c-0.885-1.177-2.033-2.142-2.754-3.453c-0.16-0.286-0.328-0.577-0.692-0.683c-0.154-0.045-0.285-0.193-0.235-0.391
					c0.05-0.191-0.003-0.365-0.155-0.436c-0.563-0.256-0.634-0.791-0.818-1.288c-0.333-0.896-0.629-1.804-0.893-2.726
					c-0.163-0.565,0.06-1.279-0.579-1.681c0.354-0.498,0.026-0.998-0.005-1.493c-0.105-1.771-0.679-3.221-2.628-3.679
					c-0.375-0.501-0.325-1.027,0.184-1.614c0.508-0.584,1.098-1.08,1.761-1.486c0.408-0.248,0.772-0.393,1.142,0.074
					c0.139,0.176,0.37,0.268,0.608,0.288c0.097,0.291,0.472,0.313,0.571,0.603c-0.267,0.367-0.689,0.521-1.041,0.775
					c-0.508,0.369-0.82,0.817-0.681,1.483c0.33,1.593,0.912,3.106,1.491,4.616c0.22,0.565,0.597,1.101,0.998,1.566
					c1.378,1.619,3.171,2.338,5.288,2.332c0.749,0,1.491-0.068,2.232-0.119c0.663,0.664,1.344,1.31,2.093,1.877
					c1.012,0.784,2.018,1.58,3.155,2.174c1.905,0.986,3.718,2.105,5.319,3.545c1.192,1.072,2.083,2.437,3.356,3.436
					c0.302,0.235,0.433,0.241,0.692-0.034c0.859-0.903,1.703-1.825,2.637-2.645c1.199-1.045,2.473-1.999,3.723-2.981
					c1.47-1.158,2.949-2.309,4.425-3.461c0.834-0.543,1.63-1.133,2.38-1.785c1.229-0.854,2.391-1.795,3.518-2.771
					c1.646-1.424,3.242-2.9,4.58-4.633c0.861-0.905,1.322-2.038,1.779-3.176C63.309,45.048,63.723,44.249,64.598,43.812z"/>
				<path fill="#11594B" d="M43.421,77.361c-0.103-0.842,0.486-1.344,0.972-1.865c1.459-1.575,3.146-2.889,4.879-4.146
					c2.168-1.574,4.388-3.09,6.213-5.08c1.703-1.86,3.219-3.862,4.634-5.945c0.366-0.537,0.92-1.085,1.095-1.6
					c0.456-1.35,1.412-2.508,1.512-3.992c0.137-2.072,1.002-3.859,2.188-5.545c0.788-1.115,1.493-2.318,1.465-3.78
					c-0.003-0.071,0.07-0.146,0.106-0.218c0.604,0.002,0.85,0.494,1.117,0.894c0.844,1.261,1.289,2.696,1.604,4.161
					c0.42,1.943,0.812,3.898,1.11,5.863c0.227,1.471,0.283,2.967,0.418,4.449c0.018,0.224-0.053,0.465,0.119,0.657
					c-0.715,1.004-1.338,2.073-2.164,2.995c-0.719,0.809-1.394,1.659-2.183,2.391c-1.021,0.945-2.005,1.934-3.12,2.771
					c-1.871,1.41-3.761,2.793-5.886,3.797c-0.461,0.218-0.844,0.668-1.479,0.529c-0.213-0.049-0.306,0.425-0.604,0.539
					c-0.697,0.266-1.365,0.611-2.066,0.871c-2.914,1.076-5.914,1.822-8.994,2.248C44.052,77.398,43.732,77.361,43.421,77.361z"/>
				<path fill="#11594B" d="M12.761,47.831c1.95,0.458,2.523,1.907,2.628,3.679c0.031,0.495,0.359,0.995,0.005,1.493
					c0.639,0.401,0.417,1.114,0.579,1.681c0.264,0.922,0.561,1.828,0.893,2.726c0.184,0.497,0.254,1.032,0.818,1.289
					c0.152,0.067,0.205,0.243,0.155,0.435c-0.05,0.196,0.081,0.346,0.235,0.391c0.364,0.104,0.532,0.396,0.692,0.683
					c0.721,1.312,1.869,2.276,2.754,3.453c0.472,0.624,1.048,1.161,1.413,1.876c0.167,0.328,0.207,0.671,0.322,1.001
					c0.241,0.688,0.786,1.211,1.04,1.892c0.304,0.812,0.93,1.455,1.19,2.291c0.018,0.057,0.052,0.133,0.099,0.154
					c1.03,0.445,1.326,1.493,1.874,2.32c0.676,1.024,1.31,2.076,2.23,2.914c-1.407-0.379-2.775-0.864-4.122-1.42
					c-0.176-0.073-0.335-0.148-0.424-0.34c-0.071-0.149-0.189-0.298-0.372-0.3c-1.352-0.005-2.372-0.841-3.394-1.521
					c-0.424-0.282-0.894-0.403-1.31-0.674c-2.036-1.334-4.054-2.711-5.751-4.451c-1.378-1.407-2.924-2.684-3.936-4.424
					c0.128-1.775,0.217-3.556,0.406-5.324c0.079-0.721,0.291-1.451,0.412-2.158c0.121-0.689,0.081-1.452,0.204-2.167
					c0.105-0.603,0.105-1.234,0.475-1.776c0.167-0.246,0.01-0.561,0.062-0.853C12.119,49.715,12.559,48.809,12.761,47.831z"/>
				<path fill="#FFFFFF" d="M64.598,43.812c-0.875,0.437-1.289,1.234-1.627,2.082c-0.455,1.137-0.916,2.27-1.779,3.176
					c-0.625-0.207-1.031-0.775-1.676-0.976c-0.326-0.103-0.449-0.05-0.545,0.232c-0.033,0.006-0.068,0.014-0.104,0.019
					c0.008,0.016,0.016,0.031,0.023,0.045c0.022-0.022,0.049-0.045,0.075-0.067c0.078,0.014,0.193-0.005,0.233,0.042
					c0.107,0.129-0.037,0.181-0.118,0.218c-0.896,0.419-1.672,1.132-2.746,1.121c-0.121,0-0.244,0.04-0.362,0.073
					c-0.043,0.014-0.07,0.07-0.106,0.109c0.146,0.139,0.394-0.042,0.485,0.174c-0.451,0.514-1.104,0.575-1.656,0.844
					c-1.42,0.688-2.861,1.35-4.231,2.128c-0.517,0.293-1.194,0.39-1.521,0.989c-0.807,0.185-1.613,0.373-2.455,0.326
					c-0.264-0.018-0.553,0.018-0.793,0.116c-0.527,0.224-0.521,0.247-1.055,0.261c-0.188,0.002-0.375,0.004-0.561,0.008
					c-0.135-0.023-0.221,0.025-0.244,0.164c-0.312-0.136-0.605,0.076-0.912,0.047c-0.265,0.229-0.794-0.219-0.922,0.359
					c-0.098-0.318-0.43-0.095-0.577-0.234c-0.39-0.367-0.841,0.307-1.21-0.099c-0.023,0.482-0.477-0.034-0.584,0.253
					c-0.293-0.717-0.466-0.14-0.626,0.096c-0.21-0.153-0.168-0.439-0.404-0.491c-0.196,0.106-0.115,0.343-0.251,0.478
					c-0.254-0.613-0.618-0.611-1.129,0.019c0-0.163,0-0.31,0-0.451c0.008-0.031,0.019-0.062,0.026-0.095
					c-0.029,0.011-0.058,0.021-0.089,0.031c-0.34-0.201-0.54,0.115-0.799,0.217c-0.107-0.141,0.076-0.365-0.134-0.483
					c-0.238,0.047-0.27,0.296-0.424,0.422c-0.042-0.159,0.008-0.532-0.139-0.448c-0.511,0.295-1.011-0.203-1.486,0.068l0.008,0.008
					c0.081-0.128,0.162-0.254,0.241-0.382l0.024-0.024l-0.016,0.031c-0.421,0.037-0.841,0.074-1.26,0.113l0.008,0.008
					c-0.133-0.181-0.346-0.068-0.508-0.134l0.008,0.011c-0.327-0.279-0.712-0.076-1.069-0.131c-0.086-0.014-0.291,0.016-0.249-0.064
					c0.293-0.535-0.223-0.258-0.341-0.332c-0.246-0.15-0.586-0.088-0.843-0.309c0.417-0.148,0.796,0.191,1.205,0.014
					c-0.5-0.238-1.069-0.263-1.459-0.674c0.396-0.771,0.852-1.52,1.171-2.322c0.498-1.248,1.166-2.314,2.455-2.873
					c2.534,0.006,4.486-1.105,5.975-3.104c0.364-0.493,0.406-0.487,0.689,0.06c0.823,1.588,1.983,2.814,3.676,3.49
					c0.769,0.307,0.867,0.346,1.258,0.18c-2.549-0.725-4.071-2.403-4.834-4.824c1.426,0.391,2.484-0.079,3.202-1.354
					c0.063-0.106,0.139-0.21,0.207-0.312c0.549-0.828,0.484-1.521-0.218-2.238c-0.612-0.629-1.319-1.147-2.063-1.604
					c-0.685-0.417-1.459-0.43-2.156-0.095c-0.82,0.396-1.575,0.925-2.366,1.384c-0.548,0.317-0.687,0.802-0.603,1.384
					c0.257,1.755,1.509,2.838,3.28,2.84c-1.26,2.558-3.307,3.907-6.163,4.021c-0.346-0.078-0.584,0.045-0.906,0.24
					c-1.012,0.613-1.708,1.499-2.411,2.405c-0.532,0.685-1.012,1.431-1.821,1.845c-1.158-0.896-2.46-1.556-3.729-2.27
					c-0.495-1.766-1.449-3.385-1.688-5.237c-0.037-0.285-0.247-0.392-0.54-0.399c-0.703-0.021-1.355,0.178-1.992,0.424
					c-1.111,0.436-2.214,0.894-3.32,1.342c-0.1-0.288-0.474-0.312-0.571-0.604c0.223-0.908,0.43-1.818,0.435-2.762
					c0.348-0.221,0.288-0.561,0.259-0.891c0.011-0.379,0.836-0.734,0.029-1.13c0.113-0.517-0.073-0.917-0.472-1.242
					c-0.278-0.228-0.409-0.516-0.319-0.88c0.068,0.067,0.139,0.19,0.207,0.188c0.1-0.003,0.084-0.139,0.045-0.199
					c-0.197-0.288-0.433-0.553-0.595-0.862c-0.089-0.165-0.605-0.267-0.163-0.615c0.021-0.019-0.286-0.454-0.44-0.697
					c0.032-0.023,0.063-0.05,0.089-0.079c0.265-0.296-0.024-0.523-0.126-0.746c-0.257-0.574-0.49-1.153-0.624-1.767l-0.008,0.016
					c0.068-0.414,0.228-0.833-0.008-1.236c-0.17-0.291-0.317-0.49,0.125-0.733c0.43-0.236,0.333-0.551-0.073-0.663
					c0.341-0.364,0.115-0.736,0.05-1.093c0.034-0.037,0.071-0.073,0.107-0.11c0.053,0.003,0.107,0.005,0.163,0.005
					c-0.262-0.372,0.013-0.807-0.139-1.184c-0.086-0.223-0.173-0.409,0.071-0.603c0.217-0.171,0.024-0.381,0-0.571
					c0.029-0.021,0.058-0.048,0.082-0.073c0.361-0.372-0.207-0.629-0.134-0.915c0.267-1.054-0.618-1.585-1.022-2.313
					c-1.808-3.263-1.667-6.457,0.251-9.585c1.648-2.687,3.847-4.821,6.732-6.145c2.319-1.066,4.577-0.881,6.652,0.684
					c0.31,0.23,0.637,0.503,0.812,0.833c0.241,0.451,0.75,0.304,1.043,0.593c0.031,0.031,0.351-0.121,0.445-0.341
					C30,9.818,30.023,9.604,30.283,9.509c-0.005,0.378,0.055,0.419,0.5,0.352c1.378-0.218,2.6-1.222,4.085-0.828
					c0.145,0.036,0.147-0.058,0.22-0.092c0.422-0.194,0.847-0.344,1.336-0.212c0.262,0.067,0.519,0.136,0.838-0.063
					c0.38-0.235,0.865,0.065,1.311,0.045c0.021-0.003,0.097,0.184,0.146,0.081c0.307-0.629,0.783-0.288,1.14-0.157
					c0.521,0.196,1.038,0.047,1.554,0.103c0.294,0.031,1.543,0.125,1.776,0.248c0.041,0.024,0.064,0.09,0.1,0.137
					c0.593-0.605,1.072,0.173,1.633,0.139c0.417-0.023,0.84,0.302,1.273,0.107c0.238-0.107,0.095,0.587,0.416,0.168
					c0.445,0.566,1.3-0.275,1.695,0.492c0.137,0.263,0.346-0.115,0.547,0.053c0.703,0.574,1.721,0.257,2.438,0.817
					c0.655-0.4,0.97,0.718,1.627,0.367c0.104-0.058,0.149,0.076,0.207,0.168c0.11,0.181,0.196,0.553,0.49,0.139
					c0.008-0.014,0.108,0.016,0.139,0.05c0.468,0.545,1.163,0.634,1.776,0.88c0.145,0.058,0.252,0.11,0.32,0.252
					c0.041,0.092,0.15,0.246,0.17,0.238c0.729-0.325,0.986,0.517,1.543,0.618c0.332,0.061,0.537,0.401,0.707,0.595
					c0.392,0.448,1.222,0.448,1.264,1.258c0.011,0.157,0.283-0.01,0.417-0.081c1.024-0.563,2.083-1.012,3.269-1.132
					c1.953-0.196,3.662,0.398,5.006,1.764c2.928,2.972,4.516,6.566,4.483,10.77c-0.019,2.271-0.94,4.2-2.651,5.726
					c-0.752,0.67-1.504,1.381-1.846,2.337c-0.207,0.579-0.634,0.993-0.838,1.535c-0.068,0.184-0.576,0.506,0.062,0.679
					c0.092,0.026-0.037,0.173-0.084,0.257c-0.115,0.21-0.396,0.319-0.377,0.682c0.172-0.079,0.324-0.145,0.479-0.213
					c0.033,0.034,0.064,0.071,0.1,0.105c-0.186,0.159-0.373,0.319-0.589,0.505c0.397,0.168,0.461,0.359,0.109,0.635
					c-0.191,0.152-0.361,0.354-0.478,0.565c-0.068,0.126-0.561,0.317-0.016,0.482c-0.548,0.218,0.104,0.758-0.325,1.088
					c-0.534,0.408-0.954,0.973-1.42,1.471c-0.137,0.146-0.278,0.229-0.003,0.452C65.238,43.416,64.635,43.552,64.598,43.812z
					 M57.211,35.927c0.076-0.146,0.154-0.294,0.23-0.44c0.953-1.797,0.996-3.59,0.025-5.408c-0.561-1.051-1.476-1.714-2.408-2.371
					c-0.578-1.315-2.623-2.644-4.504-1.362c-2.289,1.559-4.854,1.808-7.513,1.697c-1.804-0.075-3.563-0.458-5.348-0.631
					c-1.62-0.163-2.736-1.082-3.745-2.19c-1.179-1.3-2.495-1.835-4.067-0.778c-1.257,0.846-2.295,1.912-3.144,3.165
					c-1.297,1.915-1.908,4.098-2.434,6.312c-0.176,0.938,0.076,1.769,0.799,2.368c0.98,0.812,1.3,1.824,1.206,3.05
					c-0.058,0.727-0.055,1.46,0.233,2.154c0.194,0.461,0.886,0.911,1.3,0.797c0.548-0.154,0.694-0.603,0.697-1.121
					c0-0.147,0.011-0.294,0.003-0.438c-0.152-2.273,0.209-4.438,1.373-6.433c0.556-0.862,1.192-1.666,2.036-2.259
					c4.117-2.896,8.524-3.188,13.15-1.407c0.781,0.302,1.426,0.844,2.181,1.188c-0.058,0.744-0.067,1.483,0.114,2.217
					c0.476,1.892,1.701,3.112,3.435,3.894c0.388,1.787,0.349,3.571,0.032,5.372c-0.102,0.581-0.102,1.205,0.054,1.801
					c0.118,0.455,0.356,0.567,0.774,0.302c0.935-0.604,1.438-1.505,1.48-2.554c0.09-2.119,0.771-3.811,2.696-4.938
					C56.557,37.51,57.208,36.886,57.211,35.927z M70.716,28.805c0.05-0.136,0.118-0.267,0.152-0.408
					c0.483-1.9,0.28-3.758-0.386-5.579c-0.771-2.117-1.765-4.101-3.512-5.604c-1.392-1.195-2.969-1.63-4.764-1.099
					c-0.104,0.019-0.204,0.037-0.307,0.053c-0.842,0.134-1.459,0.553-1.762,1.381c-0.029,0.079-0.181,0.165,0.012,0.218
					c0.307,0.084,0.154,0.215,0.047,0.349c-0.09,0.115-0.312,0.23,0.044,0.304c0.243,0.047,0.255,0.221,0.137,0.427
					c-0.069,0.126-0.19,0.317,0.136,0.302c0.152-0.008,0.163,0.11,0.191,0.252c0.146,0.694,0.316,1.396,0.852,1.912
					c0.23,0.221,0.778,0.314,0.045,0.663c0.246,0.134,0.689,0.137,0.414,0.5c-0.406,0.546,0.076,0.347,0.283,0.389
					c0.021,0.021,0.039,0.042,0.061,0.06c0,0.04-0.006,0.076-0.008,0.115c-0.009,0.014-0.014,0.029-0.019,0.045
					c0.002-0.019,0.005-0.034,0.008-0.053c0.937,0.241-0.397,0.54,0.009,0.761c0.123,0.23,0.481-0.364,0.439,0.141
					c-0.042,0.524-0.034,0.985,0.411,1.34c-0.015,0.013-0.029,0.028-0.04,0.044c0,0.003,0.021,0.021,0.031,0.031
					c0.014-0.016,0.029-0.028,0.043-0.042c0.078,0.019,0.199,0.042,0.133,0.147c-0.201,0.33-0.133,0.521,0.182,0.772
					c0.268,0.213,0.604,0.635,0.551,0.886c-0.082,0.38,0.145,0.713,0.002,1.09c-0.07,0.189-0.041,0.637,0.44,0.605
					c0.217-0.013,0.406,0.039,0.19,0.312c-0.064,0.084-0.146,0.239-0.033,0.249c0.439,0.045-0.012,0.425,0.217,0.52
					c0.218,0.092,0.439,0.165,0.736,0.272c-0.4,0.188-0.514,0.377-0.139,0.581c0.204,0.11,0.387,0.236,0.178,0.453
					c-0.271,0.281-0.055,0.307,0.146,0.367c0.372,0.113,0.523,0.414,0.643,0.744c-0.006,0.014-0.008,0.026-0.014,0.039
					c0-0.016,0.002-0.031,0.006-0.047c0.383,0.139,0.69-0.226,1.059-0.17c0.07,0.173-0.115,0.333,0.042,0.523
					C69.021,31.689,70.126,30.464,70.716,28.805z M21.764,20.179c0.026,0.019,0.065,0.061,0.076,0.053
					c0.065-0.04,0.029-0.081-0.008-0.121c-0.032-0.136-0.063-0.272-0.094-0.411c0.026-0.023,0.05-0.05,0.076-0.076
					c0.178,0.073,0.296,0.372,0.508,0.233c0.17-0.11-0.021-0.333-0.018-0.506c0.005-0.193-0.123-0.503,0.296-0.4
					c0.053,0.065,0.021,0.238,0.142,0.181c0.081-0.037,0.019-0.173-0.063-0.241c-0.28-0.38,0.094-0.584,0.226-0.854l0.008-0.008
					c0.149,0.056,0.296,0.113,0.438,0.165c0.178-0.154,0.068-0.377,0.16-0.584c0.233-0.511,0.857-0.579,1.033-1.085l-0.008,0.008
					c0.335,0.058,0.236-0.584,0.438-0.398c0.542,0.504,0.369-0.151,0.414-0.251c0.115-0.247,0.115-0.687,0.438-0.618
					c0.385,0.083,0.403-0.226,0.574-0.347c0.142-0.104,0.165-0.358,0.398-0.398c0.013,0.008,0.029,0.017,0.044,0.024
					c-0.019-0.006-0.037-0.011-0.052-0.017c-0.205-0.57,0.322-0.712,0.595-1.001c0.317-0.338,0.82-0.416,1.119-0.783
					c0.322-0.391,0.506-0.746,0.102-1.244c-0.414-0.514-0.917-0.899-1.425-1.295c-0.052-0.154-0.197-0.204-0.319-0.28
					c-1.716-1.037-3.478-1.014-5.251-0.188c-2.471,1.15-4.326,3.008-5.785,5.259c-0.737,1.138-1.263,2.393-1.284,3.794
					c-0.178,2.238,0.673,4.119,2.018,5.83c0.113,0.142,0.223,0.383,0.409,0.333c0.244-0.062,0.155-0.346,0.191-0.54l-0.008,0.009
					c0.291-0.389,0.579-0.216,0.865,0.01c0.031,0.037,0.06,0.071,0.091,0.107c-0.01-0.052-0.023-0.104-0.034-0.159
					c0.023-0.456,0.375-0.859,0.212-1.345l-0.005,0.005c0.05-0.062,0.097-0.178,0.144-0.178c0.417-0.008,0.836,0.013,0.957-0.526
					c0.002-0.019,0.076-0.032,0.112-0.026c0.291,0.031,0.291-0.236,0.406-0.388c0.019,0.052,0.039,0.104,0.061,0.157
					c0.013-0.016,0.042-0.031,0.039-0.04c-0.018-0.05-0.044-0.097-0.065-0.146c0.002-0.186,0.013-0.472,0.175-0.477
					c0.404-0.013,0.419-0.272,0.595-0.529C20.918,20.562,21.214,20.11,21.764,20.179z M40.753,47.616
					c-0.982,0-1.931-0.118-2.791-0.647c-0.197-0.119-0.27,0.062-0.351,0.215c-0.128,0.241,0.065,0.219,0.188,0.269
					C38.762,47.844,39.739,47.979,40.753,47.616z"/>
				<path fill="#939291" d="M11.461,27.154c1.635,0.008,2.945,1.331,2.924,2.953c-0.024,1.614-1.378,2.953-2.972,2.929
					c-1.688-0.023-2.917-1.339-2.903-3.104C8.521,28.406,9.86,27.144,11.461,27.154z"/>
				<path fill="#939291" d="M17.15,41.439c0.029,0.33,0.089,0.67-0.259,0.892c-1.336,1.565-3.249,1.731-4.564,0.396
					c-0.915-0.925-1.087-2.382-0.419-3.509c0.673-1.137,2.02-1.677,3.286-1.331c0.238,0.062,0.456,0.215,0.718,0.173l-0.013-0.011
					c0.063,0.045,0.126,0.092,0.188,0.137c0.086,0,0.173-0.003,0.262-0.006l0.04,0.009c-0.089,0.364,0.042,0.652,0.319,0.88
					c0.398,0.325,0.584,0.726,0.472,1.242c-0.338-0.023-0.506-0.338-0.778-0.469c-0.092-0.045-0.173-0.115-0.278-0.037
					c-0.078,0.058-0.099,0.157-0.042,0.212C16.513,40.437,16.841,40.932,17.15,41.439z M15.759,39.705
					c0.026,0.003,0.052,0.006,0.079,0.006c-0.013-0.017-0.024-0.032-0.037-0.045c-0.026-0.014-0.05-0.023-0.076-0.037
					C15.735,39.655,15.748,39.682,15.759,39.705z"/>
				<path fill="#939291" d="M8.259,36.288c0.008-0.888,0.7-1.585,1.585-1.596c0.864-0.011,1.648,0.781,1.629,1.644
					c-0.016,0.878-0.786,1.605-1.677,1.585C8.919,37.899,8.254,37.192,8.259,36.288z"/>
				<path fill="#FFFFFF" d="M16.348,38.18c-0.089,0.003-0.176,0.006-0.262,0.006c-0.062-0.045-0.125-0.092-0.188-0.137l0.013,0.011
					C16.141,37.8,16.228,38.049,16.348,38.18z"/>
				<path fill="#FFFFFF" d="M67.457,37.784c0.089-0.112,0.176-0.228,0.359-0.193c-0.004,0.181-0.168,0.207-0.26,0.299
					C67.521,37.855,67.491,37.818,67.457,37.784z"/>
				<path fill="#FFFFFF" d="M14.868,29.701c-0.086-0.05-0.194-0.162-0.142-0.215c0.084-0.081,0.17,0.047,0.249,0.104
					C14.938,29.628,14.902,29.664,14.868,29.701z"/>
				<path fill="#FFFFFF" d="M14.781,33.411c-0.165,0.146-0.173-0.05-0.236-0.112c-0.008-0.006,0.029-0.076,0.04-0.076
					c0.112,0.019,0.157,0.104,0.188,0.204L14.781,33.411z"/>
				<path fill="#FFFFFF" d="M15.334,35.854c-0.013-0.047-0.042-0.134-0.037-0.137c0.076-0.031,0.097,0.021,0.107,0.084
					C15.381,35.819,15.357,35.838,15.334,35.854z"/>
				<path fill="#FFFFFF" d="M15.405,35.801c0.079,0.003,0.121,0.045,0.126,0.123c-0.026,0.029-0.058,0.056-0.089,0.079
					c-0.034-0.05-0.071-0.1-0.107-0.149C15.357,35.838,15.381,35.819,15.405,35.801z"/>
				<path fill="#FFFFFF" d="M67.824,36.645c0.025-0.053,0.07-0.109,0.123-0.055c0.05,0.055-0.006,0.097-0.063,0.118
					C67.863,36.687,67.841,36.666,67.824,36.645z"/>
				<path fill="#FFFFFF" d="M67.883,36.708c-0.042,0.042-0.081,0.086-0.119,0.131c-0.035-0.031-0.065-0.063-0.098-0.095
					c0.052-0.034,0.104-0.065,0.157-0.1C67.841,36.666,67.863,36.687,67.883,36.708z"/>
				<path fill="#FFFFFF" d="M67.512,36.867c0.053-0.042,0.104-0.084,0.154-0.123c0.031,0.031,0.062,0.063,0.098,0.095
					c-0.043,0.042-0.084,0.084-0.127,0.125C67.596,36.933,67.555,36.898,67.512,36.867z"/>
				<path fill="#FFFFFF" d="M67.637,36.964c-0.052,0.074-0.104,0.191-0.207,0.082c-0.058-0.063,0.024-0.132,0.082-0.179
					C67.555,36.898,67.596,36.933,67.637,36.964z"/>
				<path fill="#FFFFFF" d="M15.069,27.238c-0.005-0.053-0.031-0.137-0.013-0.149c0.068-0.042,0.084,0.023,0.095,0.076
					C15.127,27.19,15.098,27.217,15.069,27.238z"/>
				<path fill="#AFADAD" d="M37.221,54.871c0,0.143,0,0.288,0,0.451c0.511-0.629,0.875-0.633,1.129-0.02
					c0.136-0.134,0.055-0.369,0.251-0.477c0.236,0.052,0.194,0.338,0.404,0.492c0.16-0.235,0.333-0.812,0.626-0.098
					c0.107-0.285,0.561,0.23,0.584-0.252c0.369,0.404,0.82-0.27,1.21,0.098c0.147,0.142,0.479-0.084,0.577,0.235
					c0.128-0.579,0.657-0.131,0.922-0.358c0.064,0.265,0.271,0.341,0.51,0.391c2.596,0.557,5.022,1.533,7.28,2.925
					c-1.476,1.152-2.955,2.304-4.425,3.461c-1.25,0.982-2.523,1.938-3.723,2.981c-0.936,0.818-1.778,1.74-2.637,2.645
					c-0.259,0.275-0.39,0.271-0.692,0.034c-1.273-0.999-2.164-2.362-3.356-3.437c-1.601-1.438-3.414-2.558-5.319-3.545
					c-1.137-0.592-2.143-1.389-3.155-2.172c0.086-0.086,0.16-0.197,0.265-0.257c2.353-1.387,4.892-2.271,7.573-2.76
					c0.215-0.037,0.398-0.103,0.556-0.249c0.154-0.126,0.186-0.375,0.424-0.422c0.209,0.118,0.026,0.344,0.134,0.484
					c0.259-0.103,0.458-0.42,0.799-0.217C37.179,54.829,37.201,54.852,37.221,54.871z"/>
				<path fill="#11594B" d="M28.294,51.837c0.81-0.414,1.289-1.161,1.821-1.845c0.702-0.906,1.399-1.792,2.411-2.405
					c0.322-0.196,0.561-0.319,0.906-0.241c0.04,0.059,0.079,0.118,0.118,0.176c-1.289,0.56-1.958,1.625-2.455,2.875
					c-0.32,0.803-0.776,1.552-1.171,2.321c-0.946,1.89-2.442,3.084-4.504,3.563c-0.037,0.01-0.068,0.044-0.105,0.068
					c-0.742,0.051-1.483,0.119-2.232,0.119c-2.117,0.006-3.91-0.713-5.288-2.332c-0.401-0.467-0.778-1.001-0.998-1.566
					c-0.579-1.51-1.161-3.023-1.491-4.616c-0.139-0.666,0.173-1.114,0.681-1.483c0.351-0.254,0.773-0.408,1.041-0.775
					c1.105-0.447,2.209-0.905,3.32-1.342c0.637-0.246,1.289-0.444,1.992-0.424c0.293,0.01,0.503,0.115,0.54,0.4
					c0.238,1.854,1.192,3.472,1.688,5.238c0.079,1-0.079,1.852-1.352,2.033c0.341,0.516,0.747,0.83,1.258,0.972
					C25.86,52.964,27.128,52.643,28.294,51.837z"/>
				<path fill="#666766" d="M58.971,48.328c0.096-0.282,0.219-0.335,0.545-0.232c0.645,0.199,1.051,0.769,1.676,0.975
					c-1.336,1.731-2.933,3.21-4.58,4.633c-1.127,0.979-2.287,1.919-3.516,2.771c-1.285-0.768-2.574-1.523-3.927-2.168
					c-0.101-0.049-0.151-0.188-0.226-0.283c0.324-0.602,1.004-0.697,1.521-0.99c1.37-0.778,2.812-1.438,4.231-2.128
					c0.553-0.269,1.205-0.33,1.656-0.845c-0.093-0.215-0.342-0.033-0.485-0.172c0.036-0.039,0.063-0.098,0.106-0.111
					c0.118-0.032,0.241-0.072,0.362-0.072c1.074,0.011,1.851-0.702,2.746-1.121c0.081-0.037,0.226-0.089,0.118-0.218
					c-0.04-0.048-0.155-0.028-0.233-0.042L58.971,48.328z"/>
				<path fill="#666766" d="M25.315,56.35c0.037-0.023,0.068-0.059,0.105-0.067c2.062-0.479,3.558-1.675,4.504-3.563
					c0.125,0.131,0.269,0.224,0.422,0.296c0.326,0.153,0.697,0.216,1.037,0.378c-0.409,0.178-0.789-0.162-1.205-0.014
					c0.257,0.221,0.597,0.157,0.843,0.309c0.118,0.074,0.634-0.203,0.341,0.332c-0.042,0.08,0.163,0.051,0.249,0.064
					c0.356,0.055,0.742-0.148,1.069,0.131c-0.013,0.005-0.031,0.008-0.044,0.016c-0.005,0.006-0.005,0.021-0.005,0.031
					c0.013-0.019,0.026-0.039,0.042-0.058c0.163,0.065,0.375-0.047,0.508,0.134c-0.008,0.016-0.016,0.028-0.023,0.042
					c0.005-0.016,0.01-0.03,0.016-0.05c0.419-0.039,0.839-0.076,1.26-0.113l-0.008-0.007c-0.079,0.128-0.16,0.254-0.241,0.382
					c-0.037,0.003-0.074,0.008-0.113,0.008c0.011,0.021,0.016,0.039,0.026,0.062c0.026-0.026,0.052-0.054,0.078-0.076
					c0.475-0.272,0.975,0.226,1.486-0.067c0.147-0.084,0.097,0.287,0.139,0.447c-0.157,0.146-0.341,0.212-0.556,0.249
					c-2.681,0.487-5.22,1.373-7.573,2.761c-0.104,0.06-0.178,0.17-0.265,0.256C26.659,57.659,25.978,57.016,25.315,56.35z"/>
				<path fill="#666766" d="M48.945,54.021c0.072,0.096,0.125,0.235,0.225,0.283c1.354,0.646,2.643,1.401,3.926,2.17
					c-0.75,0.651-1.546,1.241-2.38,1.784c-2.258-1.392-4.685-2.368-7.28-2.925c-0.236-0.05-0.443-0.126-0.51-0.391
					c0.307,0.029,0.602-0.184,0.909-0.047c0.179,0.088,0.213-0.043,0.247-0.166c0.186-0.002,0.372-0.004,0.561-0.008
					c0.534-0.013,0.526-0.037,1.055-0.26c0.24-0.1,0.529-0.134,0.794-0.117C47.331,54.395,48.137,54.206,48.945,54.021z"/>
				<path fill="#B5B7BA" d="M47.283,31.818c-0.754-0.344-1.398-0.886-2.18-1.188c-4.627-1.781-9.036-1.488-13.151,1.407
					c-0.844,0.593-1.48,1.396-2.036,2.259c-1.177-0.039-2.361-0.011-3.527-0.146c-0.692-0.081-1.412,0.023-2.083-0.23
					c0.526-2.215,1.137-4.397,2.434-6.312c0.849-1.253,1.887-2.319,3.144-3.165c1.572-1.057,2.888-0.521,4.067,0.778
					c1.009,1.108,2.125,2.027,3.745,2.19c1.784,0.173,3.545,0.556,5.348,0.631c2.659,0.11,5.224-0.139,7.513-1.697
					c1.881-1.281,3.926,0.047,4.504,1.362c-0.119-0.023-0.246-0.034-0.36-0.076c-1.851-0.676-3.593-0.44-5.209,0.652
					C48.24,29.127,47.613,30.388,47.283,31.818z M30.699,27.903c-1.331-0.003-2.51,0.998-2.518,2.144
					c-0.008,1.043,1.09,2.254,2.039,2.248c1.085-0.005,2.211-1.367,2.217-2.678C32.439,28.506,31.832,27.906,30.699,27.903z"/>
				<path fill="#B5B7BA" d="M19.896,21.919c-0.115,0.151-0.115,0.419-0.406,0.388c-0.037-0.006-0.11,0.008-0.112,0.026
					c-0.121,0.539-0.54,0.519-0.957,0.526c-0.047,0-0.094,0.115-0.144,0.178c-0.008-0.016-0.013-0.033-0.024-0.044
					c-0.008-0.006-0.023,0-0.037,0c0.023,0.013,0.045,0.026,0.066,0.039c0.162,0.485-0.189,0.889-0.212,1.345
					c-0.019,0.018-0.04,0.033-0.058,0.052c-0.286-0.226-0.574-0.398-0.865-0.01c-0.008-0.037-0.013-0.071-0.021-0.108
					c-0.016,0.011-0.034,0.021-0.05,0.032c0.026,0.023,0.052,0.044,0.079,0.067c-0.037,0.194,0.052,0.478-0.191,0.54
					c-0.186,0.05-0.296-0.191-0.409-0.333c-1.344-1.711-2.196-3.592-2.018-5.83c0.299,0.019,0.503-0.181,0.723-0.327
					c3.414-2.301,6.834-4.596,10.227-6.926c0.587-0.403,1.289-0.684,1.69-1.331c0.508,0.396,1.011,0.781,1.425,1.295
					c0.404,0.498,0.22,0.854-0.102,1.244c-0.299,0.367-0.802,0.445-1.119,0.783c-0.272,0.289-0.799,0.431-0.595,1.001l0.008-0.008
					c-0.233,0.04-0.257,0.294-0.398,0.398c-0.17,0.121-0.188,0.43-0.574,0.347c-0.322-0.068-0.322,0.371-0.438,0.618
					c-0.045,0.1,0.128,0.755-0.414,0.251c-0.202-0.186-0.103,0.456-0.438,0.398c-0.013-0.016-0.026-0.028-0.042-0.042
					c0.019,0.011,0.034,0.023,0.05,0.034c-0.176,0.506-0.799,0.574-1.033,1.085c-0.091,0.207,0.019,0.43-0.16,0.584
					c-0.142-0.052-0.288-0.109-0.438-0.165c-0.047-0.028-0.094-0.061-0.142-0.089c-0.008,0.019-0.019,0.037-0.026,0.055
					c0.052,0.017,0.107,0.029,0.16,0.042c-0.131,0.271-0.506,0.475-0.226,0.854c-0.026,0.021-0.052,0.042-0.079,0.062
					c-0.419-0.104-0.291,0.205-0.296,0.398c-0.003,0.173,0.188,0.396,0.018,0.506c-0.212,0.139-0.33-0.16-0.508-0.233
					c-0.029-0.021-0.073-0.065-0.084-0.058c-0.068,0.042-0.031,0.09,0.008,0.134c0.031,0.139,0.062,0.275,0.094,0.411
					c-0.023,0.021-0.044,0.045-0.068,0.068c-0.55-0.068-0.846,0.383-1.063,0.705c-0.176,0.257-0.191,0.517-0.595,0.529
					c-0.162,0.005-0.173,0.291-0.175,0.477L19.896,21.919z"/>
				<path fill="#B5B7BA" d="M63.202,25.271c-0.445-0.354-0.453-0.815-0.411-1.34c0.042-0.505-0.316,0.09-0.439-0.141
					c-0.406-0.221,0.928-0.52-0.009-0.761l0.011,0.008c0.002-0.039,0.008-0.075,0.008-0.115c0.014-0.028,0.025-0.055,0.039-0.081
					c-0.033,0.006-0.064,0.014-0.1,0.021c-0.207-0.042-0.689,0.157-0.283-0.389c0.275-0.363-0.168-0.366-0.414-0.5
					c0.733-0.349,0.187-0.442-0.045-0.663c-0.533-0.516-0.703-1.218-0.852-1.912c-0.027-0.142-0.039-0.26-0.191-0.252
					c-0.326,0.016-0.205-0.176-0.136-0.302c0.118-0.206,0.106-0.38-0.137-0.427c-0.354-0.073-0.134-0.188-0.044-0.304
					c0.107-0.134,0.26-0.265-0.047-0.349c-0.191-0.053-0.041-0.139-0.012-0.218c0.303-0.828,0.92-1.247,1.762-1.381
					c0.103-0.016,0.203-0.034,0.307-0.053c2.643,4.028,5.279,8.056,7.926,12.077c0.152,0.236,0.246,0.545,0.582,0.613
					c-0.59,1.659-1.695,2.885-3.142,3.844c-0.157-0.19,0.028-0.351-0.042-0.523c-0.367-0.056-0.676,0.309-1.059,0.17l0.008,0.008
					c-0.117-0.33-0.271-0.631-0.643-0.744c-0.201-0.061-0.417-0.086-0.146-0.367c0.209-0.217,0.027-0.343-0.178-0.453
					c-0.375-0.204-0.263-0.393,0.139-0.581c-0.297-0.107-0.52-0.181-0.736-0.272c-0.229-0.095,0.223-0.475-0.217-0.52
					c-0.113-0.01-0.031-0.165,0.033-0.249c0.216-0.272,0.025-0.324-0.19-0.312c-0.481,0.031-0.512-0.416-0.44-0.604
					c0.143-0.377-0.084-0.71-0.002-1.09c0.053-0.251-0.283-0.673-0.551-0.886c-0.314-0.251-0.383-0.442-0.182-0.772
					c0.066-0.105-0.055-0.129-0.133-0.147L63.202,25.271z"/>
				<path fill="#B5B7BA" d="M27.178,10.203c-0.401,0.647-1.103,0.928-1.69,1.331c-3.393,2.33-6.813,4.625-10.227,6.926
					c-0.22,0.146-0.424,0.346-0.723,0.327c0.021-1.401,0.547-2.656,1.284-3.794c1.459-2.251,3.314-4.108,5.785-5.259
					c1.774-0.825,3.535-0.849,5.251,0.188C26.981,9.999,27.125,10.049,27.178,10.203z"/>
				<path fill="#B5B7BA" d="M70.716,28.805c-0.336-0.068-0.43-0.377-0.582-0.613c-2.646-4.021-5.284-8.049-7.926-12.077
					c1.795-0.531,3.372-0.097,4.765,1.099c1.746,1.504,2.739,3.487,3.51,5.604c0.666,1.821,0.871,3.679,0.387,5.579
					C70.834,28.538,70.766,28.669,70.716,28.805z"/>
				<path fill="#11594B" d="M47.283,31.818c0.33-1.431,0.957-2.691,2.207-3.535c1.615-1.093,3.359-1.328,5.209-0.652
					c0.115,0.042,0.24,0.053,0.361,0.076c0.933,0.657,1.848,1.32,2.407,2.371c0.97,1.818,0.929,3.611-0.026,5.408
					c-0.075,0.146-0.153,0.294-0.229,0.44c-0.364,0.364-0.674,0.781-1.087,1.101c-1.605,1.242-3.391,1.412-5.293,0.901
					c-1.732-0.781-2.959-2.002-3.434-3.894C47.215,33.302,47.225,32.562,47.283,31.818z M48.596,33.433
					c0.199,1.014,0.666,1.868,1.488,2.51c1.658,1.454,4.445,1.452,6.074-0.906c1.017-1.468,0.958-3.073,0.064-4.518
					c-0.852-1.376-2.502-2.109-4.066-1.905C50.074,28.889,48.208,30.861,48.596,33.433z"/>
				<path fill="#AFADAD" d="M39.595,43.326c-1.771-0.002-3.023-1.085-3.28-2.84c-0.084-0.582,0.055-1.066,0.603-1.384
					c0.792-0.459,1.546-0.988,2.366-1.384c0.697-0.335,1.472-0.322,2.155,0.095c0.744,0.456,1.451,0.975,2.064,1.604
					c0.702,0.718,0.766,1.41,0.219,2.238c-0.068,0.102-0.145,0.204-0.207,0.312c-0.719,1.275-1.777,1.745-3.203,1.354
					C40.075,43.324,39.834,43.324,39.595,43.326z M40.773,42.682c0.64,0.101,1.19,0.147,1.644-0.299
					c0.14-0.136,0.207-0.316,0.136-0.514c-0.047-0.133-0.183-0.225-0.293-0.167C41.754,41.964,41.148,42.082,40.773,42.682z
					 M38.812,42.577c0.144-0.026,0.301,0.062,0.359-0.089c0.058-0.152-0.04-0.303-0.147-0.383c-0.291-0.227-0.6-0.434-0.912-0.629
					c-0.142-0.086-0.325-0.14-0.466-0.017c-0.168,0.146-0.116,0.341-0.024,0.511C37.887,42.459,38.372,42.501,38.812,42.577z"/>
				<path fill="#B5B7BA" d="M24.306,33.92c0.671,0.254,1.391,0.149,2.083,0.23c1.166,0.136,2.35,0.107,3.527,0.146
					c-1.164,1.994-1.525,4.158-1.373,6.433c0.008,0.146-0.003,0.291-0.003,0.438c-0.002,0.519-0.149,0.967-0.697,1.121
					c-0.414,0.114-1.105-0.336-1.3-0.797c-0.288-0.694-0.291-1.428-0.233-2.154c0.094-1.226-0.226-2.237-1.206-3.05
					C24.382,35.688,24.13,34.857,24.306,33.92z"/>
				<path fill="#B5B7BA" d="M50.832,37.929c1.902,0.511,3.688,0.341,5.293-0.901c0.413-0.319,0.723-0.736,1.087-1.101
					c-0.003,0.959-0.655,1.583-1.342,1.983c-1.927,1.129-2.606,2.818-2.696,4.939c-0.042,1.047-0.547,1.948-1.48,2.553
					c-0.418,0.267-0.656,0.154-0.774-0.303c-0.153-0.595-0.153-1.219-0.053-1.8C51.18,41.5,51.219,39.716,50.832,37.929z"/>
				<path fill="#666766" d="M28.294,51.837c-1.166,0.806-2.434,1.127-3.823,0.736c-0.511-0.142-0.917-0.456-1.258-0.972
					c1.273-0.183,1.431-1.033,1.352-2.033C25.833,50.281,27.136,50.939,28.294,51.837z"/>
				<path fill="#11594B" d="M39.595,43.326c0.239-0.002,0.479-0.002,0.718-0.006c0.763,2.422,2.285,4.102,4.835,4.824
					c-0.392,0.168-0.49,0.129-1.258-0.179c-1.693-0.676-2.854-1.901-3.677-3.489c-0.283-0.547-0.325-0.554-0.689-0.061
					c-1.489,1.999-3.441,3.109-5.975,3.104c-0.04-0.058-0.079-0.117-0.118-0.176C36.289,47.232,38.335,45.884,39.595,43.326z"/>
				<path fill="#666766" d="M40.753,47.616c-1.014,0.36-1.991,0.228-2.953-0.165c-0.123-0.051-0.317-0.026-0.188-0.268
					c0.081-0.152,0.154-0.336,0.351-0.216C38.822,47.498,39.771,47.616,40.753,47.616z"/>
				<path fill="#AFADAD" d="M17.15,41.439c-0.309-0.508-0.637-1.003-1.069-1.423c-0.058-0.055-0.037-0.154,0.042-0.212
					c0.105-0.078,0.187-0.008,0.278,0.037c0.272,0.131,0.44,0.445,0.778,0.469C17.986,40.706,17.161,41.062,17.15,41.439z"/>
				<path fill="#AFADAD" d="M44.082,54.732c-0.034,0.123-0.068,0.254-0.247,0.164C43.861,54.759,43.948,54.709,44.082,54.732z"/>
				<path fill="#939291" d="M22.679,18.89c0.082,0.068,0.144,0.204,0.063,0.241c-0.121,0.058-0.089-0.115-0.142-0.179
					C22.626,18.932,22.653,18.91,22.679,18.89z"/>
				<path fill="#AFADAD" d="M58.967,48.323c-0.025,0.022-0.053,0.045-0.076,0.067c-0.008-0.014-0.016-0.029-0.022-0.045
					c0.034-0.005,0.069-0.013,0.103-0.019L58.967,48.323z"/>
				<path fill="#939291" d="M19.93,21.89c0.021,0.05,0.047,0.097,0.065,0.146c0.002,0.009-0.026,0.024-0.039,0.04
					c-0.021-0.053-0.042-0.105-0.061-0.157L19.93,21.89z"/>
				<path fill="#939291" d="M18.07,24.377c0.01,0.055,0.023,0.107,0.034,0.159c-0.031-0.036-0.06-0.07-0.091-0.107
					C18.03,24.41,18.051,24.395,18.07,24.377z"/>
				<path fill="#939291" d="M66.475,32.295c-0.004,0.016-0.006,0.031-0.006,0.047c0.006-0.013,0.008-0.025,0.014-0.039
					L66.475,32.295z"/>
				<path fill="#939291" d="M62.342,23.029c-0.003,0.019-0.006,0.034-0.008,0.053c0.005-0.016,0.01-0.031,0.018-0.045L62.342,23.029
					z"/>
				<polygon fill="#939291" points="34.433,54.216 34.449,54.186 34.425,54.209 				"/>
				<path fill="#AFADAD" d="M37.158,54.809c0.032-0.011,0.061-0.021,0.089-0.031c-0.008,0.031-0.019,0.062-0.026,0.095
					C37.201,54.852,37.179,54.829,37.158,54.809z"/>
				<path fill="#939291" d="M26.788,14.526c0.016,0.006,0.034,0.011,0.052,0.017c-0.016-0.008-0.031-0.017-0.044-0.024
					L26.788,14.526z"/>
				<path fill="#939291" d="M21.833,20.11c0.037,0.04,0.073,0.081,0.008,0.121c-0.011,0.008-0.05-0.034-0.076-0.053
					C21.788,20.155,21.809,20.132,21.833,20.11z"/>
				<path fill="#939291" d="M63.236,25.304c-0.014,0.014-0.029,0.026-0.043,0.042c-0.01-0.01-0.031-0.028-0.031-0.031
					c0.011-0.016,0.025-0.031,0.04-0.044L63.236,25.304z"/>
				<path fill="#F78F3D" d="M15.897,38.049c0.063,0.045,0.126,0.092,0.188,0.137C16.023,38.141,15.96,38.094,15.897,38.049z"/>
				<path fill="#AFADAD" d="M15.759,39.705c-0.011-0.023-0.024-0.05-0.034-0.076c0.026,0.014,0.05,0.023,0.076,0.037L15.759,39.705z
					"/>
				<path fill="#AFADAD" d="M15.8,39.666c0.013,0.013,0.024,0.028,0.037,0.045c-0.026,0-0.053-0.003-0.079-0.006L15.8,39.666z"/>
				<path fill="#FFFFFF" d="M34.176,54.583c-0.026,0.022-0.052,0.05-0.078,0.076c-0.011-0.021-0.016-0.039-0.026-0.062
					c0.039,0,0.076-0.005,0.113-0.008L34.176,54.583z"/>
				<path fill="#FFFFFF" d="M32.672,54.203c-0.016,0.02-0.029,0.039-0.042,0.058c0-0.011,0-0.026,0.005-0.03
					c0.013-0.008,0.031-0.012,0.044-0.017L32.672,54.203z"/>
				<path fill="#FFFFFF" d="M33.173,54.329c-0.005,0.019-0.01,0.034-0.016,0.05c0.008-0.014,0.016-0.025,0.023-0.042L33.173,54.329z
					"/>
				<path fill="#11594B" d="M30.699,27.903c1.132,0.003,1.74,0.603,1.737,1.714c-0.005,1.311-1.132,2.673-2.217,2.678
					c-0.948,0.006-2.046-1.205-2.039-2.248C28.189,28.901,29.368,27.9,30.699,27.903z"/>
				<path fill="#FFFFFF" d="M17.155,24.41c-0.026-0.023-0.053-0.044-0.079-0.067c0.016-0.011,0.034-0.021,0.05-0.032
					c0.008,0.037,0.013,0.071,0.021,0.108L17.155,24.41z"/>
				<path fill="#FFFFFF" d="M22.904,18.035c-0.053-0.013-0.108-0.025-0.16-0.042c0.008-0.018,0.019-0.036,0.026-0.055
					c0.047,0.028,0.094,0.061,0.142,0.089L22.904,18.035z"/>
				<path fill="#FFFFFF" d="M24.542,16.523c-0.016-0.011-0.032-0.023-0.05-0.034c0.016,0.014,0.029,0.026,0.042,0.042L24.542,16.523
					z"/>
				<path fill="#FFFFFF" d="M18.282,23.032c-0.021-0.013-0.042-0.026-0.066-0.039c0.013,0,0.029-0.006,0.037,0
					c0.011,0.011,0.016,0.028,0.024,0.044L18.282,23.032z"/>
				<path fill="#FFFFFF" d="M21.738,19.699c-0.04-0.044-0.076-0.092-0.008-0.134c0.011-0.008,0.055,0.037,0.084,0.058
					C21.788,19.649,21.764,19.676,21.738,19.699z"/>
				<path fill="#FFFFFF" d="M62.3,22.862c0.034-0.008,0.065-0.016,0.101-0.021c-0.014,0.026-0.026,0.053-0.039,0.081
					C62.339,22.904,62.32,22.883,62.3,22.862z"/>
				<path fill="#B5B7BA" d="M48.596,33.433c-0.388-2.571,1.479-4.544,3.562-4.819c1.563-0.204,3.216,0.529,4.067,1.905
					c0.893,1.444,0.95,3.05-0.065,4.518c-1.628,2.358-4.416,2.36-6.074,0.906C49.87,34.938,49.372,34.104,48.596,33.433z
					 M53.955,31.305c-0.395-0.854-1.13-0.878-1.921-0.825c-0.668,0.044-1.071,0.396-1.289,0.99
					c-0.238,0.652-0.095,1.315,0.058,1.947c0.092,0.377,0.305,0.78,0.78,0.883c0.011,0.134,0.076,0.207,0.208,0.274
					c0.93,0.496,1.666,0.281,2.641-0.783C55.034,33.131,54.762,31.703,53.955,31.305z"/>
				<path fill="#FFFFFF" d="M48.596,33.433c0.775,0.671,1.273,1.506,1.488,2.51C49.262,35.301,48.795,34.446,48.596,33.433z"/>
				<path fill="#11594B" d="M40.773,42.682c0.375-0.6,0.98-0.718,1.486-0.979c0.11-0.059,0.246,0.033,0.293,0.167
					c0.071,0.196,0.004,0.378-0.136,0.514C41.964,42.829,41.414,42.781,40.773,42.682z"/>
				<path fill="#11594B" d="M38.812,42.577c-0.44-0.076-0.925-0.118-1.19-0.604c-0.092-0.171-0.144-0.365,0.024-0.512
					c0.141-0.123,0.325-0.07,0.466,0.016c0.312,0.196,0.621,0.403,0.912,0.629c0.107,0.082,0.205,0.23,0.147,0.384
					C39.113,42.639,38.956,42.551,38.812,42.577z"/>
				<path fill="#11594B" d="M51.583,34.3c-0.478-0.103-0.688-0.506-0.78-0.883c-0.152-0.632-0.296-1.295-0.058-1.947
					c0.218-0.595,0.621-0.946,1.289-0.99c0.791-0.053,1.526-0.029,1.921,0.825l0.011-0.011c-0.124-0.05-0.159,0.058-0.224,0.118
					c-0.01,0.045-0.021,0.092-0.031,0.136l-0.002,0.003c-0.271-0.361-0.632-0.27-1.038-0.228c0.304,0.217,0.3,0.634,0.663,0.726
					l-0.003,0.003c-0.136,0.036-0.181,0.117-0.123,0.251l0.003-0.002c-0.104-0.021-0.134,0.031-0.126,0.123l-0.003,0.002
					c-0.098-0.013-0.126,0.037-0.123,0.123l-0.003,0.003c-0.089-0.005-0.12,0.042-0.122,0.123v0.003
					c-0.132,0.039-0.18,0.118-0.126,0.246v0.006c-0.101-0.019-0.131,0.031-0.124,0.12l-0.002,0.005
					c-0.092-0.01-0.126,0.037-0.123,0.121l-0.003,0.002c-0.134,0.04-0.179,0.118-0.126,0.249h0.003
					c-0.101-0.019-0.134,0.032-0.123,0.123l-0.005,0.003c-0.096-0.011-0.126,0.037-0.121,0.123l-0.005,0.003
					c-0.087-0.005-0.121,0.042-0.121,0.123l-0.002,0.003c-0.126,0.039-0.171,0.12-0.123,0.246l-0.003,0.005
					c-0.207-0.039-0.207,0.129-0.252,0.252L51.583,34.3z"/>
				<path fill="#11594B" d="M53.955,31.305c0.807,0.398,1.079,1.826,0.477,2.486c-0.975,1.064-1.711,1.279-2.641,0.783
					c-0.132-0.067-0.197-0.141-0.208-0.274l-0.005,0.008c0.126-0.042,0.275-0.061,0.252-0.252l0.003-0.005
					c0.133-0.037,0.179-0.118,0.123-0.246l0.002-0.003c0.103,0.021,0.132-0.031,0.121-0.123l0.005-0.003
					c0.092,0.011,0.126-0.036,0.121-0.123l0.005-0.003c0.084,0.003,0.12-0.044,0.123-0.123H52.33
					c0.126-0.042,0.173-0.12,0.126-0.249l0.003-0.002c0.094,0.013,0.125-0.037,0.123-0.121l0.002-0.005
					c0.087,0.005,0.124-0.039,0.124-0.12v-0.006c0.131-0.036,0.183-0.115,0.126-0.246v-0.003c0.102,0.019,0.131-0.034,0.122-0.123
					l0.003-0.003c0.092,0.011,0.126-0.039,0.123-0.123l0.003-0.002c0.084,0,0.121-0.048,0.126-0.123l-0.003,0.002
					c0.118-0.044,0.171-0.123,0.123-0.251l0.003-0.003c0.254-0.07,0.393-0.226,0.375-0.498l0.002-0.003
					c0.087,0.04,0.129-0.016,0.165-0.081c0.028-0.058,0.058-0.115,0.09-0.173L53.955,31.305z"/>
				<path fill="#435F66" d="M53.708,31.551c0.019,0.272-0.121,0.428-0.375,0.498c-0.364-0.092-0.358-0.509-0.663-0.726
					C53.077,31.281,53.438,31.189,53.708,31.551z"/>
				<path fill="#939291" d="M51.83,34.056c0.023,0.191-0.126,0.21-0.252,0.252C51.623,34.185,51.623,34.017,51.83,34.056z"/>
				<path fill="#939291" d="M53.331,32.052c0.048,0.128-0.005,0.207-0.123,0.251C53.15,32.169,53.195,32.088,53.331,32.052z"/>
				<path fill="#939291" d="M52.833,32.678c0.058,0.131,0.005,0.21-0.126,0.246C52.654,32.796,52.702,32.717,52.833,32.678z"/>
				<path fill="#939291" d="M52.456,33.178c0.047,0.129,0,0.207-0.126,0.249C52.277,33.296,52.322,33.218,52.456,33.178z"/>
				<path fill="#AFADAD" d="M53.965,31.294c-0.031,0.058-0.061,0.115-0.09,0.173c-0.044-0.018-0.089-0.036-0.134-0.055
					C53.805,31.352,53.841,31.244,53.965,31.294z"/>
				<path fill="#939291" d="M51.956,33.805c0.056,0.128,0.01,0.209-0.123,0.246C51.785,33.925,51.83,33.844,51.956,33.805z"/>
				<path fill="#939291" d="M53.21,32.301c-0.005,0.075-0.042,0.123-0.126,0.123C53.077,32.332,53.107,32.279,53.21,32.301z"/>
				<path fill="#939291" d="M53.742,31.412c0.045,0.019,0.09,0.037,0.134,0.055c-0.036,0.065-0.078,0.121-0.165,0.081
					C53.721,31.504,53.732,31.457,53.742,31.412z"/>
				<path fill="#939291" d="M52.205,33.553c0.005,0.087-0.029,0.134-0.121,0.123C52.079,33.59,52.109,33.542,52.205,33.553z"/>
				<path fill="#939291" d="M52.079,33.679c0.011,0.092-0.019,0.144-0.121,0.123C51.958,33.721,51.992,33.674,52.079,33.679z"/>
				<path fill="#939291" d="M52.333,33.427c-0.003,0.079-0.039,0.126-0.123,0.123C52.199,33.459,52.232,33.408,52.333,33.427z"/>
				<path fill="#939291" d="M52.582,33.055c0.002,0.084-0.029,0.134-0.123,0.121C52.456,33.092,52.49,33.045,52.582,33.055z"/>
				<path fill="#939291" d="M52.708,32.93c0,0.081-0.037,0.125-0.124,0.12C52.577,32.961,52.607,32.911,52.708,32.93z"/>
				<path fill="#939291" d="M52.956,32.552c0.009,0.089-0.021,0.142-0.122,0.123C52.835,32.594,52.867,32.547,52.956,32.552z"/>
				<path fill="#939291" d="M53.082,32.426c0.003,0.084-0.031,0.134-0.123,0.123C52.956,32.463,52.984,32.413,53.082,32.426z"/>
			</g>
		</g>
	</g>
</g>
</svg>
